%TF.GenerationSoftware,KiCad,Pcbnew,(6.0.7)*%
%TF.CreationDate,2024-08-27T11:09:32+08:00*%
%TF.ProjectId,KiCad_Esp32_LotNoDisplay,4b694361-645f-4457-9370-33325f4c6f74,rev?*%
%TF.SameCoordinates,Original*%
%TF.FileFunction,Legend,Bot*%
%TF.FilePolarity,Positive*%
%FSLAX46Y46*%
G04 Gerber Fmt 4.6, Leading zero omitted, Abs format (unit mm)*
G04 Created by KiCad (PCBNEW (6.0.7)) date 2024-08-27 11:09:32*
%MOMM*%
%LPD*%
G01*
G04 APERTURE LIST*
%ADD10C,0.150000*%
G04 APERTURE END LIST*
D10*
X28527952Y-76493619D02*
X28527952Y-75779333D01*
X28480333Y-75636476D01*
X28385095Y-75541238D01*
X28242238Y-75493619D01*
X28147000Y-75493619D01*
X29480333Y-75493619D02*
X29004142Y-75493619D01*
X29004142Y-76493619D01*
X30385095Y-75588857D02*
X30337476Y-75541238D01*
X30194619Y-75493619D01*
X30099380Y-75493619D01*
X29956523Y-75541238D01*
X29861285Y-75636476D01*
X29813666Y-75731714D01*
X29766047Y-75922190D01*
X29766047Y-76065047D01*
X29813666Y-76255523D01*
X29861285Y-76350761D01*
X29956523Y-76446000D01*
X30099380Y-76493619D01*
X30194619Y-76493619D01*
X30337476Y-76446000D01*
X30385095Y-76398380D01*
X31099380Y-76493619D02*
X31099380Y-75779333D01*
X31051761Y-75636476D01*
X30956523Y-75541238D01*
X30813666Y-75493619D01*
X30718428Y-75493619D01*
X32051761Y-75493619D02*
X31575571Y-75493619D01*
X31575571Y-76493619D01*
X32956523Y-75588857D02*
X32908904Y-75541238D01*
X32766047Y-75493619D01*
X32670809Y-75493619D01*
X32527952Y-75541238D01*
X32432714Y-75636476D01*
X32385095Y-75731714D01*
X32337476Y-75922190D01*
X32337476Y-76065047D01*
X32385095Y-76255523D01*
X32432714Y-76350761D01*
X32527952Y-76446000D01*
X32670809Y-76493619D01*
X32766047Y-76493619D01*
X32908904Y-76446000D01*
X32956523Y-76398380D01*
X33670809Y-76493619D02*
X33670809Y-75779333D01*
X33623190Y-75636476D01*
X33527952Y-75541238D01*
X33385095Y-75493619D01*
X33289857Y-75493619D01*
X34623190Y-75493619D02*
X34147000Y-75493619D01*
X34147000Y-76493619D01*
X35527952Y-75588857D02*
X35480333Y-75541238D01*
X35337476Y-75493619D01*
X35242238Y-75493619D01*
X35099380Y-75541238D01*
X35004142Y-75636476D01*
X34956523Y-75731714D01*
X34908904Y-75922190D01*
X34908904Y-76065047D01*
X34956523Y-76255523D01*
X35004142Y-76350761D01*
X35099380Y-76446000D01*
X35242238Y-76493619D01*
X35337476Y-76493619D01*
X35480333Y-76446000D01*
X35527952Y-76398380D01*
X36242238Y-76493619D02*
X36242238Y-75779333D01*
X36194619Y-75636476D01*
X36099380Y-75541238D01*
X35956523Y-75493619D01*
X35861285Y-75493619D01*
X37194619Y-75493619D02*
X36718428Y-75493619D01*
X36718428Y-76493619D01*
X38099380Y-75588857D02*
X38051761Y-75541238D01*
X37908904Y-75493619D01*
X37813666Y-75493619D01*
X37670809Y-75541238D01*
X37575571Y-75636476D01*
X37527952Y-75731714D01*
X37480333Y-75922190D01*
X37480333Y-76065047D01*
X37527952Y-76255523D01*
X37575571Y-76350761D01*
X37670809Y-76446000D01*
X37813666Y-76493619D01*
X37908904Y-76493619D01*
X38051761Y-76446000D01*
X38099380Y-76398380D01*
M02*
