%TF.GenerationSoftware,KiCad,Pcbnew,(6.0.7)*%
%TF.CreationDate,2024-08-27T11:09:28+08:00*%
%TF.ProjectId,KiCad_Esp32_LotNoDisplay,4b694361-645f-4457-9370-33325f4c6f74,rev?*%
%TF.SameCoordinates,Original*%
%TF.FileFunction,Drillmap*%
%TF.FilePolarity,Positive*%
%FSLAX45Y45*%
G04 Gerber Fmt 4.5, Leading zero omitted, Abs format (unit mm)*
G04 Created by KiCad (PCBNEW (6.0.7)) date 2024-08-27 11:09:28*
%MOMM*%
%LPD*%
G01*
G04 APERTURE LIST*
%ADD10C,0.100000*%
%ADD11C,0.200000*%
G04 APERTURE END LIST*
D10*
X2286000Y-2540000D02*
G75*
G03*
X2032000Y-2794000I0J-254000D01*
G01*
X2286000Y-2540000D02*
X7493000Y-2540000D01*
X7493000Y-7747000D02*
G75*
G03*
X7747000Y-7493000I0J254000D01*
G01*
X2032000Y-7493000D02*
G75*
G03*
X2286000Y-7747000I254000J0D01*
G01*
X7493000Y-7747000D02*
X2286000Y-7747000D01*
X2032000Y-7493000D02*
X2032000Y-2794000D01*
X7747000Y-2794000D02*
G75*
G03*
X7493000Y-2540000I-254000J0D01*
G01*
X7747000Y-2794000D02*
X7747000Y-7493000D01*
D11*
X2284619Y-8062476D02*
X2284619Y-7862476D01*
X2332238Y-7862476D01*
X2360810Y-7872000D01*
X2379857Y-7891048D01*
X2389381Y-7910095D01*
X2398905Y-7948190D01*
X2398905Y-7976762D01*
X2389381Y-8014857D01*
X2379857Y-8033905D01*
X2360810Y-8052952D01*
X2332238Y-8062476D01*
X2284619Y-8062476D01*
X2484619Y-8062476D02*
X2484619Y-7929143D01*
X2484619Y-7967238D02*
X2494143Y-7948190D01*
X2503667Y-7938667D01*
X2522714Y-7929143D01*
X2541762Y-7929143D01*
X2608429Y-8062476D02*
X2608429Y-7929143D01*
X2608429Y-7862476D02*
X2598905Y-7872000D01*
X2608429Y-7881524D01*
X2617952Y-7872000D01*
X2608429Y-7862476D01*
X2608429Y-7881524D01*
X2732238Y-8062476D02*
X2713190Y-8052952D01*
X2703667Y-8033905D01*
X2703667Y-7862476D01*
X2837000Y-8062476D02*
X2817952Y-8052952D01*
X2808428Y-8033905D01*
X2808428Y-7862476D01*
X3065571Y-8062476D02*
X3065571Y-7862476D01*
X3132238Y-8005333D01*
X3198905Y-7862476D01*
X3198905Y-8062476D01*
X3379857Y-8062476D02*
X3379857Y-7957714D01*
X3370333Y-7938667D01*
X3351286Y-7929143D01*
X3313190Y-7929143D01*
X3294143Y-7938667D01*
X3379857Y-8052952D02*
X3360809Y-8062476D01*
X3313190Y-8062476D01*
X3294143Y-8052952D01*
X3284619Y-8033905D01*
X3284619Y-8014857D01*
X3294143Y-7995809D01*
X3313190Y-7986286D01*
X3360809Y-7986286D01*
X3379857Y-7976762D01*
X3475095Y-7929143D02*
X3475095Y-8129143D01*
X3475095Y-7938667D02*
X3494143Y-7929143D01*
X3532238Y-7929143D01*
X3551286Y-7938667D01*
X3560809Y-7948190D01*
X3570333Y-7967238D01*
X3570333Y-8024381D01*
X3560809Y-8043428D01*
X3551286Y-8052952D01*
X3532238Y-8062476D01*
X3494143Y-8062476D01*
X3475095Y-8052952D01*
X3656048Y-8043428D02*
X3665571Y-8052952D01*
X3656048Y-8062476D01*
X3646524Y-8052952D01*
X3656048Y-8043428D01*
X3656048Y-8062476D01*
X3656048Y-7938667D02*
X3665571Y-7948190D01*
X3656048Y-7957714D01*
X3646524Y-7948190D01*
X3656048Y-7938667D01*
X3656048Y-7957714D01*
M02*
