%TF.GenerationSoftware,KiCad,Pcbnew,(6.0.7)*%
%TF.CreationDate,2024-08-27T11:09:32+08:00*%
%TF.ProjectId,KiCad_Esp32_LotNoDisplay,4b694361-645f-4457-9370-33325f4c6f74,rev?*%
%TF.SameCoordinates,Original*%
%TF.FileFunction,Legend,Top*%
%TF.FilePolarity,Positive*%
%FSLAX46Y46*%
G04 Gerber Fmt 4.6, Leading zero omitted, Abs format (unit mm)*
G04 Created by KiCad (PCBNEW (6.0.7)) date 2024-08-27 11:09:32*
%MOMM*%
%LPD*%
G01*
G04 APERTURE LIST*
%ADD10C,0.150000*%
%ADD11C,0.120000*%
%ADD12C,0.200000*%
%ADD13C,0.127000*%
G04 APERTURE END LIST*
D10*
X32076023Y-26143000D02*
X31999833Y-26104904D01*
X31885547Y-26104904D01*
X31771261Y-26143000D01*
X31695071Y-26219190D01*
X31656976Y-26295380D01*
X31618880Y-26447761D01*
X31618880Y-26562047D01*
X31656976Y-26714428D01*
X31695071Y-26790619D01*
X31771261Y-26866809D01*
X31885547Y-26904904D01*
X31961738Y-26904904D01*
X32076023Y-26866809D01*
X32114119Y-26828714D01*
X32114119Y-26562047D01*
X31961738Y-26562047D01*
X32456976Y-26904904D02*
X32456976Y-26104904D01*
X32914119Y-26904904D01*
X32914119Y-26104904D01*
X33295071Y-26904904D02*
X33295071Y-26104904D01*
X33485547Y-26104904D01*
X33599833Y-26143000D01*
X33676023Y-26219190D01*
X33714119Y-26295380D01*
X33752214Y-26447761D01*
X33752214Y-26562047D01*
X33714119Y-26714428D01*
X33676023Y-26790619D01*
X33599833Y-26866809D01*
X33485547Y-26904904D01*
X33295071Y-26904904D01*
X35085928Y-26104904D02*
X34704976Y-26104904D01*
X34666880Y-26485857D01*
X34704976Y-26447761D01*
X34781166Y-26409666D01*
X34971642Y-26409666D01*
X35047833Y-26447761D01*
X35085928Y-26485857D01*
X35124023Y-26562047D01*
X35124023Y-26752523D01*
X35085928Y-26828714D01*
X35047833Y-26866809D01*
X34971642Y-26904904D01*
X34781166Y-26904904D01*
X34704976Y-26866809D01*
X34666880Y-26828714D01*
X35352595Y-26104904D02*
X35619261Y-26904904D01*
X35885928Y-26104904D01*
X39365880Y-26866809D02*
X39480166Y-26904904D01*
X39670642Y-26904904D01*
X39746833Y-26866809D01*
X39784928Y-26828714D01*
X39823023Y-26752523D01*
X39823023Y-26676333D01*
X39784928Y-26600142D01*
X39746833Y-26562047D01*
X39670642Y-26523952D01*
X39518261Y-26485857D01*
X39442071Y-26447761D01*
X39403976Y-26409666D01*
X39365880Y-26333476D01*
X39365880Y-26257285D01*
X39403976Y-26181095D01*
X39442071Y-26143000D01*
X39518261Y-26104904D01*
X39708738Y-26104904D01*
X39823023Y-26143000D01*
X40623023Y-26828714D02*
X40584928Y-26866809D01*
X40470642Y-26904904D01*
X40394452Y-26904904D01*
X40280166Y-26866809D01*
X40203976Y-26790619D01*
X40165880Y-26714428D01*
X40127785Y-26562047D01*
X40127785Y-26447761D01*
X40165880Y-26295380D01*
X40203976Y-26219190D01*
X40280166Y-26143000D01*
X40394452Y-26104904D01*
X40470642Y-26104904D01*
X40584928Y-26143000D01*
X40623023Y-26181095D01*
X41346833Y-26904904D02*
X40965880Y-26904904D01*
X40965880Y-26104904D01*
X36698880Y-26866809D02*
X36813166Y-26904904D01*
X37003642Y-26904904D01*
X37079833Y-26866809D01*
X37117928Y-26828714D01*
X37156023Y-26752523D01*
X37156023Y-26676333D01*
X37117928Y-26600142D01*
X37079833Y-26562047D01*
X37003642Y-26523952D01*
X36851261Y-26485857D01*
X36775071Y-26447761D01*
X36736976Y-26409666D01*
X36698880Y-26333476D01*
X36698880Y-26257285D01*
X36736976Y-26181095D01*
X36775071Y-26143000D01*
X36851261Y-26104904D01*
X37041738Y-26104904D01*
X37156023Y-26143000D01*
X37498880Y-26904904D02*
X37498880Y-26104904D01*
X37689357Y-26104904D01*
X37803642Y-26143000D01*
X37879833Y-26219190D01*
X37917928Y-26295380D01*
X37956023Y-26447761D01*
X37956023Y-26562047D01*
X37917928Y-26714428D01*
X37879833Y-26790619D01*
X37803642Y-26866809D01*
X37689357Y-26904904D01*
X37498880Y-26904904D01*
X38260785Y-26676333D02*
X38641738Y-26676333D01*
X38184595Y-26904904D02*
X38451261Y-26104904D01*
X38717928Y-26904904D01*
X24947619Y-42826901D02*
X25947619Y-42826901D01*
X24947619Y-43398329D01*
X25947619Y-43398329D01*
X24947619Y-44017377D02*
X24995238Y-43922139D01*
X25042857Y-43874520D01*
X25138095Y-43826901D01*
X25423809Y-43826901D01*
X25519047Y-43874520D01*
X25566666Y-43922139D01*
X25614285Y-44017377D01*
X25614285Y-44160234D01*
X25566666Y-44255472D01*
X25519047Y-44303091D01*
X25423809Y-44350710D01*
X25138095Y-44350710D01*
X25042857Y-44303091D01*
X24995238Y-44255472D01*
X24947619Y-44160234D01*
X24947619Y-44017377D01*
X24947619Y-45207853D02*
X25947619Y-45207853D01*
X24995238Y-45207853D02*
X24947619Y-45112615D01*
X24947619Y-44922139D01*
X24995238Y-44826901D01*
X25042857Y-44779282D01*
X25138095Y-44731663D01*
X25423809Y-44731663D01*
X25519047Y-44779282D01*
X25566666Y-44826901D01*
X25614285Y-44922139D01*
X25614285Y-45112615D01*
X25566666Y-45207853D01*
X24995238Y-46064996D02*
X24947619Y-45969758D01*
X24947619Y-45779282D01*
X24995238Y-45684044D01*
X25090476Y-45636425D01*
X25471428Y-45636425D01*
X25566666Y-45684044D01*
X25614285Y-45779282D01*
X25614285Y-45969758D01*
X25566666Y-46064996D01*
X25471428Y-46112615D01*
X25376190Y-46112615D01*
X25280952Y-45636425D01*
X24947619Y-46541186D02*
X25947619Y-46541186D01*
X25233333Y-46874520D01*
X25947619Y-47207853D01*
X24947619Y-47207853D01*
X25042857Y-48255472D02*
X24995238Y-48207853D01*
X24947619Y-48064996D01*
X24947619Y-47969758D01*
X24995238Y-47826901D01*
X25090476Y-47731663D01*
X25185714Y-47684044D01*
X25376190Y-47636425D01*
X25519047Y-47636425D01*
X25709523Y-47684044D01*
X25804761Y-47731663D01*
X25900000Y-47826901D01*
X25947619Y-47969758D01*
X25947619Y-48064996D01*
X25900000Y-48207853D01*
X25852380Y-48255472D01*
X25947619Y-48684044D02*
X25138095Y-48684044D01*
X25042857Y-48731663D01*
X24995238Y-48779282D01*
X24947619Y-48874520D01*
X24947619Y-49064996D01*
X24995238Y-49160234D01*
X25042857Y-49207853D01*
X25138095Y-49255472D01*
X25947619Y-49255472D01*
X25328571Y-49731663D02*
X25328571Y-50493567D01*
X25947619Y-50874520D02*
X25947619Y-51493567D01*
X25566666Y-51160234D01*
X25566666Y-51303091D01*
X25519047Y-51398329D01*
X25471428Y-51445948D01*
X25376190Y-51493567D01*
X25138095Y-51493567D01*
X25042857Y-51445948D01*
X24995238Y-51398329D01*
X24947619Y-51303091D01*
X24947619Y-51017377D01*
X24995238Y-50922139D01*
X25042857Y-50874520D01*
X25852380Y-51874520D02*
X25900000Y-51922139D01*
X25947619Y-52017377D01*
X25947619Y-52255472D01*
X25900000Y-52350710D01*
X25852380Y-52398329D01*
X25757142Y-52445948D01*
X25661904Y-52445948D01*
X25519047Y-52398329D01*
X24947619Y-51826901D01*
X24947619Y-52445948D01*
X24995238Y-52826901D02*
X24947619Y-52969758D01*
X24947619Y-53207853D01*
X24995238Y-53303091D01*
X25042857Y-53350710D01*
X25138095Y-53398329D01*
X25233333Y-53398329D01*
X25328571Y-53350710D01*
X25376190Y-53303091D01*
X25423809Y-53207853D01*
X25471428Y-53017377D01*
X25519047Y-52922139D01*
X25566666Y-52874520D01*
X25661904Y-52826901D01*
X25757142Y-52826901D01*
X25852380Y-52874520D01*
X25900000Y-52922139D01*
X25947619Y-53017377D01*
X25947619Y-53255472D01*
X25900000Y-53398329D01*
X23661619Y-46826901D02*
X22852095Y-46826901D01*
X22756857Y-46874520D01*
X22709238Y-46922139D01*
X22661619Y-47017377D01*
X22661619Y-47207853D01*
X22709238Y-47303091D01*
X22756857Y-47350710D01*
X22852095Y-47398329D01*
X23661619Y-47398329D01*
X22709238Y-47826901D02*
X22661619Y-47969758D01*
X22661619Y-48207853D01*
X22709238Y-48303091D01*
X22756857Y-48350710D01*
X22852095Y-48398329D01*
X22947333Y-48398329D01*
X23042571Y-48350710D01*
X23090190Y-48303091D01*
X23137809Y-48207853D01*
X23185428Y-48017377D01*
X23233047Y-47922139D01*
X23280666Y-47874520D01*
X23375904Y-47826901D01*
X23471142Y-47826901D01*
X23566380Y-47874520D01*
X23614000Y-47922139D01*
X23661619Y-48017377D01*
X23661619Y-48255472D01*
X23614000Y-48398329D01*
X23185428Y-49160234D02*
X23137809Y-49303091D01*
X23090190Y-49350710D01*
X22994952Y-49398329D01*
X22852095Y-49398329D01*
X22756857Y-49350710D01*
X22709238Y-49303091D01*
X22661619Y-49207853D01*
X22661619Y-48826901D01*
X23661619Y-48826901D01*
X23661619Y-49160234D01*
X23614000Y-49255472D01*
X23566380Y-49303091D01*
X23471142Y-49350710D01*
X23375904Y-49350710D01*
X23280666Y-49303091D01*
X23233047Y-49255472D01*
X23185428Y-49160234D01*
X23185428Y-48826901D01*
X71724571Y-55399639D02*
X71724571Y-55066306D01*
X72248380Y-54923449D02*
X72248380Y-55399639D01*
X71248380Y-55399639D01*
X71248380Y-54923449D01*
X72200761Y-54542496D02*
X72248380Y-54399639D01*
X72248380Y-54161544D01*
X72200761Y-54066306D01*
X72153142Y-54018687D01*
X72057904Y-53971068D01*
X71962666Y-53971068D01*
X71867428Y-54018687D01*
X71819809Y-54066306D01*
X71772190Y-54161544D01*
X71724571Y-54352020D01*
X71676952Y-54447258D01*
X71629333Y-54494877D01*
X71534095Y-54542496D01*
X71438857Y-54542496D01*
X71343619Y-54494877D01*
X71296000Y-54447258D01*
X71248380Y-54352020D01*
X71248380Y-54113925D01*
X71296000Y-53971068D01*
X72248380Y-53542496D02*
X71248380Y-53542496D01*
X71248380Y-53161544D01*
X71296000Y-53066306D01*
X71343619Y-53018687D01*
X71438857Y-52971068D01*
X71581714Y-52971068D01*
X71676952Y-53018687D01*
X71724571Y-53066306D01*
X71772190Y-53161544D01*
X71772190Y-53542496D01*
X71248380Y-52637735D02*
X71248380Y-52018687D01*
X71629333Y-52352020D01*
X71629333Y-52209163D01*
X71676952Y-52113925D01*
X71724571Y-52066306D01*
X71819809Y-52018687D01*
X72057904Y-52018687D01*
X72153142Y-52066306D01*
X72200761Y-52113925D01*
X72248380Y-52209163D01*
X72248380Y-52494877D01*
X72200761Y-52590115D01*
X72153142Y-52637735D01*
X71343619Y-51637735D02*
X71296000Y-51590115D01*
X71248380Y-51494877D01*
X71248380Y-51256782D01*
X71296000Y-51161544D01*
X71343619Y-51113925D01*
X71438857Y-51066306D01*
X71534095Y-51066306D01*
X71676952Y-51113925D01*
X72248380Y-51685354D01*
X72248380Y-51066306D01*
X72343619Y-50875830D02*
X72343619Y-50113925D01*
X72248380Y-49399639D02*
X72248380Y-49875830D01*
X71248380Y-49875830D01*
X72248380Y-48923449D02*
X72200761Y-49018687D01*
X72153142Y-49066306D01*
X72057904Y-49113925D01*
X71772190Y-49113925D01*
X71676952Y-49066306D01*
X71629333Y-49018687D01*
X71581714Y-48923449D01*
X71581714Y-48780592D01*
X71629333Y-48685354D01*
X71676952Y-48637735D01*
X71772190Y-48590115D01*
X72057904Y-48590115D01*
X72153142Y-48637735D01*
X72200761Y-48685354D01*
X72248380Y-48780592D01*
X72248380Y-48923449D01*
X71581714Y-48304401D02*
X71581714Y-47923449D01*
X71248380Y-48161544D02*
X72105523Y-48161544D01*
X72200761Y-48113925D01*
X72248380Y-48018687D01*
X72248380Y-47923449D01*
X72248380Y-47590115D02*
X71248380Y-47590115D01*
X72248380Y-47018687D01*
X71248380Y-47018687D01*
X72248380Y-46399639D02*
X72200761Y-46494877D01*
X72153142Y-46542496D01*
X72057904Y-46590115D01*
X71772190Y-46590115D01*
X71676952Y-46542496D01*
X71629333Y-46494877D01*
X71581714Y-46399639D01*
X71581714Y-46256782D01*
X71629333Y-46161544D01*
X71676952Y-46113925D01*
X71772190Y-46066306D01*
X72057904Y-46066306D01*
X72153142Y-46113925D01*
X72200761Y-46161544D01*
X72248380Y-46256782D01*
X72248380Y-46399639D01*
X72248380Y-45637735D02*
X71248380Y-45637735D01*
X71248380Y-45399639D01*
X71296000Y-45256782D01*
X71391238Y-45161544D01*
X71486476Y-45113925D01*
X71676952Y-45066306D01*
X71819809Y-45066306D01*
X72010285Y-45113925D01*
X72105523Y-45161544D01*
X72200761Y-45256782D01*
X72248380Y-45399639D01*
X72248380Y-45637735D01*
X72248380Y-44637735D02*
X71581714Y-44637735D01*
X71248380Y-44637735D02*
X71296000Y-44685354D01*
X71343619Y-44637735D01*
X71296000Y-44590115D01*
X71248380Y-44637735D01*
X71343619Y-44637735D01*
X72200761Y-44209163D02*
X72248380Y-44113925D01*
X72248380Y-43923449D01*
X72200761Y-43828211D01*
X72105523Y-43780592D01*
X72057904Y-43780592D01*
X71962666Y-43828211D01*
X71915047Y-43923449D01*
X71915047Y-44066306D01*
X71867428Y-44161544D01*
X71772190Y-44209163D01*
X71724571Y-44209163D01*
X71629333Y-44161544D01*
X71581714Y-44066306D01*
X71581714Y-43923449D01*
X71629333Y-43828211D01*
X71581714Y-43352020D02*
X72581714Y-43352020D01*
X71629333Y-43352020D02*
X71581714Y-43256782D01*
X71581714Y-43066306D01*
X71629333Y-42971068D01*
X71676952Y-42923449D01*
X71772190Y-42875830D01*
X72057904Y-42875830D01*
X72153142Y-42923449D01*
X72200761Y-42971068D01*
X72248380Y-43066306D01*
X72248380Y-43256782D01*
X72200761Y-43352020D01*
X72248380Y-42304401D02*
X72200761Y-42399639D01*
X72105523Y-42447258D01*
X71248380Y-42447258D01*
X72248380Y-41494877D02*
X71724571Y-41494877D01*
X71629333Y-41542496D01*
X71581714Y-41637735D01*
X71581714Y-41828211D01*
X71629333Y-41923449D01*
X72200761Y-41494877D02*
X72248380Y-41590115D01*
X72248380Y-41828211D01*
X72200761Y-41923449D01*
X72105523Y-41971068D01*
X72010285Y-41971068D01*
X71915047Y-41923449D01*
X71867428Y-41828211D01*
X71867428Y-41590115D01*
X71819809Y-41494877D01*
X71581714Y-41113925D02*
X72248380Y-40875830D01*
X71581714Y-40637735D02*
X72248380Y-40875830D01*
X72486476Y-40971068D01*
X72534095Y-41018687D01*
X72581714Y-41113925D01*
X73858380Y-55399639D02*
X72858380Y-55399639D01*
X73572666Y-55066306D01*
X72858380Y-54732973D01*
X73858380Y-54732973D01*
X72858380Y-54352020D02*
X73858380Y-53685354D01*
X72858380Y-53685354D02*
X73858380Y-54352020D01*
X73858380Y-53304401D02*
X72858380Y-53304401D01*
X73763142Y-52256782D02*
X73810761Y-52304401D01*
X73858380Y-52447258D01*
X73858380Y-52542496D01*
X73810761Y-52685354D01*
X73715523Y-52780592D01*
X73620285Y-52828211D01*
X73429809Y-52875830D01*
X73286952Y-52875830D01*
X73096476Y-52828211D01*
X73001238Y-52780592D01*
X72906000Y-52685354D01*
X72858380Y-52542496D01*
X72858380Y-52447258D01*
X72906000Y-52304401D01*
X72953619Y-52256782D01*
X73334571Y-50732973D02*
X73382190Y-50590115D01*
X73429809Y-50542496D01*
X73525047Y-50494877D01*
X73667904Y-50494877D01*
X73763142Y-50542496D01*
X73810761Y-50590115D01*
X73858380Y-50685354D01*
X73858380Y-51066306D01*
X72858380Y-51066306D01*
X72858380Y-50732973D01*
X72906000Y-50637735D01*
X72953619Y-50590115D01*
X73048857Y-50542496D01*
X73144095Y-50542496D01*
X73239333Y-50590115D01*
X73286952Y-50637735D01*
X73334571Y-50732973D01*
X73334571Y-51066306D01*
X73334571Y-50066306D02*
X73334571Y-49732973D01*
X73858380Y-49590115D02*
X73858380Y-50066306D01*
X72858380Y-50066306D01*
X72858380Y-49590115D01*
X73858380Y-48399639D02*
X72858380Y-48399639D01*
X73572666Y-48066306D01*
X72858380Y-47732973D01*
X73858380Y-47732973D01*
X73858380Y-47256782D02*
X72858380Y-47256782D01*
X73858380Y-46685354D02*
X73286952Y-47113925D01*
X72858380Y-46685354D02*
X73429809Y-47256782D01*
X72858380Y-46352020D02*
X72858380Y-45732973D01*
X73239333Y-46066306D01*
X73239333Y-45923449D01*
X73286952Y-45828211D01*
X73334571Y-45780592D01*
X73429809Y-45732973D01*
X73667904Y-45732973D01*
X73763142Y-45780592D01*
X73810761Y-45828211D01*
X73858380Y-45923449D01*
X73858380Y-46209163D01*
X73810761Y-46304401D01*
X73763142Y-46352020D01*
X72858380Y-45399639D02*
X72858380Y-44780592D01*
X73239333Y-45113925D01*
X73239333Y-44971068D01*
X73286952Y-44875830D01*
X73334571Y-44828211D01*
X73429809Y-44780592D01*
X73667904Y-44780592D01*
X73763142Y-44828211D01*
X73810761Y-44875830D01*
X73858380Y-44971068D01*
X73858380Y-45256782D01*
X73810761Y-45352020D01*
X73763142Y-45399639D01*
X72858380Y-44161544D02*
X72858380Y-44066306D01*
X72906000Y-43971068D01*
X72953619Y-43923449D01*
X73048857Y-43875830D01*
X73239333Y-43828211D01*
X73477428Y-43828211D01*
X73667904Y-43875830D01*
X73763142Y-43923449D01*
X73810761Y-43971068D01*
X73858380Y-44066306D01*
X73858380Y-44161544D01*
X73810761Y-44256782D01*
X73763142Y-44304401D01*
X73667904Y-44352020D01*
X73477428Y-44399639D01*
X73239333Y-44399639D01*
X73048857Y-44352020D01*
X72953619Y-44304401D01*
X72906000Y-44256782D01*
X72858380Y-44161544D01*
X74801714Y-55494877D02*
X75468380Y-55256782D01*
X74801714Y-55018687D01*
X75420761Y-54256782D02*
X75468380Y-54352020D01*
X75468380Y-54542496D01*
X75420761Y-54637735D01*
X75325523Y-54685354D01*
X74944571Y-54685354D01*
X74849333Y-54637735D01*
X74801714Y-54542496D01*
X74801714Y-54352020D01*
X74849333Y-54256782D01*
X74944571Y-54209163D01*
X75039809Y-54209163D01*
X75135047Y-54685354D01*
X75468380Y-53780592D02*
X74801714Y-53780592D01*
X74992190Y-53780592D02*
X74896952Y-53732973D01*
X74849333Y-53685354D01*
X74801714Y-53590115D01*
X74801714Y-53494877D01*
X75373142Y-53161544D02*
X75420761Y-53113925D01*
X75468380Y-53161544D01*
X75420761Y-53209163D01*
X75373142Y-53161544D01*
X75468380Y-53161544D01*
X74849333Y-53161544D02*
X74896952Y-53113925D01*
X74944571Y-53161544D01*
X74896952Y-53209163D01*
X74849333Y-53161544D01*
X74944571Y-53161544D01*
X74563619Y-51971068D02*
X74516000Y-51923449D01*
X74468380Y-51828211D01*
X74468380Y-51590115D01*
X74516000Y-51494877D01*
X74563619Y-51447258D01*
X74658857Y-51399639D01*
X74754095Y-51399639D01*
X74896952Y-51447258D01*
X75468380Y-52018687D01*
X75468380Y-51399639D01*
X74468380Y-50780592D02*
X74468380Y-50685354D01*
X74516000Y-50590115D01*
X74563619Y-50542496D01*
X74658857Y-50494877D01*
X74849333Y-50447258D01*
X75087428Y-50447258D01*
X75277904Y-50494877D01*
X75373142Y-50542496D01*
X75420761Y-50590115D01*
X75468380Y-50685354D01*
X75468380Y-50780592D01*
X75420761Y-50875830D01*
X75373142Y-50923449D01*
X75277904Y-50971068D01*
X75087428Y-51018687D01*
X74849333Y-51018687D01*
X74658857Y-50971068D01*
X74563619Y-50923449D01*
X74516000Y-50875830D01*
X74468380Y-50780592D01*
X74563619Y-50066306D02*
X74516000Y-50018687D01*
X74468380Y-49923449D01*
X74468380Y-49685354D01*
X74516000Y-49590115D01*
X74563619Y-49542496D01*
X74658857Y-49494877D01*
X74754095Y-49494877D01*
X74896952Y-49542496D01*
X75468380Y-50113925D01*
X75468380Y-49494877D01*
X74801714Y-48637735D02*
X75468380Y-48637735D01*
X74420761Y-48875830D02*
X75135047Y-49113925D01*
X75135047Y-48494877D01*
X75087428Y-48113925D02*
X75087428Y-47352020D01*
X74468380Y-46685354D02*
X74468380Y-46590115D01*
X74516000Y-46494877D01*
X74563619Y-46447258D01*
X74658857Y-46399639D01*
X74849333Y-46352020D01*
X75087428Y-46352020D01*
X75277904Y-46399639D01*
X75373142Y-46447258D01*
X75420761Y-46494877D01*
X75468380Y-46590115D01*
X75468380Y-46685354D01*
X75420761Y-46780592D01*
X75373142Y-46828211D01*
X75277904Y-46875830D01*
X75087428Y-46923449D01*
X74849333Y-46923449D01*
X74658857Y-46875830D01*
X74563619Y-46828211D01*
X74516000Y-46780592D01*
X74468380Y-46685354D01*
X74896952Y-45780592D02*
X74849333Y-45875830D01*
X74801714Y-45923449D01*
X74706476Y-45971068D01*
X74658857Y-45971068D01*
X74563619Y-45923449D01*
X74516000Y-45875830D01*
X74468380Y-45780592D01*
X74468380Y-45590115D01*
X74516000Y-45494877D01*
X74563619Y-45447258D01*
X74658857Y-45399639D01*
X74706476Y-45399639D01*
X74801714Y-45447258D01*
X74849333Y-45494877D01*
X74896952Y-45590115D01*
X74896952Y-45780592D01*
X74944571Y-45875830D01*
X74992190Y-45923449D01*
X75087428Y-45971068D01*
X75277904Y-45971068D01*
X75373142Y-45923449D01*
X75420761Y-45875830D01*
X75468380Y-45780592D01*
X75468380Y-45590115D01*
X75420761Y-45494877D01*
X75373142Y-45447258D01*
X75277904Y-45399639D01*
X75087428Y-45399639D01*
X74992190Y-45447258D01*
X74944571Y-45494877D01*
X74896952Y-45590115D01*
X75087428Y-44971068D02*
X75087428Y-44209163D01*
X74563619Y-43780592D02*
X74516000Y-43732973D01*
X74468380Y-43637735D01*
X74468380Y-43399639D01*
X74516000Y-43304401D01*
X74563619Y-43256782D01*
X74658857Y-43209163D01*
X74754095Y-43209163D01*
X74896952Y-43256782D01*
X75468380Y-43828211D01*
X75468380Y-43209163D01*
X74468380Y-42875830D02*
X74468380Y-42209163D01*
X75468380Y-42637735D01*
X75468380Y-41399639D02*
X74944571Y-41399639D01*
X74849333Y-41447258D01*
X74801714Y-41542496D01*
X74801714Y-41732973D01*
X74849333Y-41828211D01*
X75420761Y-41399639D02*
X75468380Y-41494877D01*
X75468380Y-41732973D01*
X75420761Y-41828211D01*
X75325523Y-41875830D01*
X75230285Y-41875830D01*
X75135047Y-41828211D01*
X75087428Y-41732973D01*
X75087428Y-41494877D01*
X75039809Y-41399639D01*
%TO.C,J5*%
X42584809Y-30932380D02*
X42584809Y-29932380D01*
X43013380Y-30027619D02*
X43061000Y-29980000D01*
X43156238Y-29932380D01*
X43394333Y-29932380D01*
X43489571Y-29980000D01*
X43537190Y-30027619D01*
X43584809Y-30122857D01*
X43584809Y-30218095D01*
X43537190Y-30360952D01*
X42965761Y-30932380D01*
X43584809Y-30932380D01*
X44584809Y-30837142D02*
X44537190Y-30884761D01*
X44394333Y-30932380D01*
X44299095Y-30932380D01*
X44156238Y-30884761D01*
X44061000Y-30789523D01*
X44013380Y-30694285D01*
X43965761Y-30503809D01*
X43965761Y-30360952D01*
X44013380Y-30170476D01*
X44061000Y-30075238D01*
X44156238Y-29980000D01*
X44299095Y-29932380D01*
X44394333Y-29932380D01*
X44537190Y-29980000D01*
X44584809Y-30027619D01*
%TO.C,J2*%
X53475714Y-26852380D02*
X53475714Y-25852380D01*
X53809047Y-26566666D01*
X54142380Y-25852380D01*
X54142380Y-26852380D01*
X54570952Y-26566666D02*
X55047142Y-26566666D01*
X54475714Y-26852380D02*
X54809047Y-25852380D01*
X55142380Y-26852380D01*
X55380476Y-25852380D02*
X56047142Y-26852380D01*
X56047142Y-25852380D02*
X55380476Y-26852380D01*
X56332857Y-25852380D02*
X56999523Y-25852380D01*
X56570952Y-26852380D01*
X57332857Y-25947619D02*
X57380476Y-25900000D01*
X57475714Y-25852380D01*
X57713809Y-25852380D01*
X57809047Y-25900000D01*
X57856666Y-25947619D01*
X57904285Y-26042857D01*
X57904285Y-26138095D01*
X57856666Y-26280952D01*
X57285238Y-26852380D01*
X57904285Y-26852380D01*
X58856666Y-26852380D02*
X58285238Y-26852380D01*
X58570952Y-26852380D02*
X58570952Y-25852380D01*
X58475714Y-25995238D01*
X58380476Y-26090476D01*
X58285238Y-26138095D01*
X59332857Y-26852380D02*
X59523333Y-26852380D01*
X59618571Y-26804761D01*
X59666190Y-26757142D01*
X59761428Y-26614285D01*
X59809047Y-26423809D01*
X59809047Y-26042857D01*
X59761428Y-25947619D01*
X59713809Y-25900000D01*
X59618571Y-25852380D01*
X59428095Y-25852380D01*
X59332857Y-25900000D01*
X59285238Y-25947619D01*
X59237619Y-26042857D01*
X59237619Y-26280952D01*
X59285238Y-26376190D01*
X59332857Y-26423809D01*
X59428095Y-26471428D01*
X59618571Y-26471428D01*
X59713809Y-26423809D01*
X59761428Y-26376190D01*
X59809047Y-26280952D01*
X59999523Y-26947619D02*
X60761428Y-26947619D01*
X60999523Y-26852380D02*
X60999523Y-25852380D01*
X61237619Y-25852380D01*
X61380476Y-25900000D01*
X61475714Y-25995238D01*
X61523333Y-26090476D01*
X61570952Y-26280952D01*
X61570952Y-26423809D01*
X61523333Y-26614285D01*
X61475714Y-26709523D01*
X61380476Y-26804761D01*
X61237619Y-26852380D01*
X60999523Y-26852380D01*
X61999523Y-26852380D02*
X61999523Y-26185714D01*
X61999523Y-25852380D02*
X61951904Y-25900000D01*
X61999523Y-25947619D01*
X62047142Y-25900000D01*
X61999523Y-25852380D01*
X61999523Y-25947619D01*
X62428095Y-26804761D02*
X62523333Y-26852380D01*
X62713809Y-26852380D01*
X62809047Y-26804761D01*
X62856666Y-26709523D01*
X62856666Y-26661904D01*
X62809047Y-26566666D01*
X62713809Y-26519047D01*
X62570952Y-26519047D01*
X62475714Y-26471428D01*
X62428095Y-26376190D01*
X62428095Y-26328571D01*
X62475714Y-26233333D01*
X62570952Y-26185714D01*
X62713809Y-26185714D01*
X62809047Y-26233333D01*
X63285238Y-26185714D02*
X63285238Y-27185714D01*
X63285238Y-26233333D02*
X63380476Y-26185714D01*
X63570952Y-26185714D01*
X63666190Y-26233333D01*
X63713809Y-26280952D01*
X63761428Y-26376190D01*
X63761428Y-26661904D01*
X63713809Y-26757142D01*
X63666190Y-26804761D01*
X63570952Y-26852380D01*
X63380476Y-26852380D01*
X63285238Y-26804761D01*
X64332857Y-26852380D02*
X64237619Y-26804761D01*
X64190000Y-26709523D01*
X64190000Y-25852380D01*
X65142380Y-26852380D02*
X65142380Y-26328571D01*
X65094761Y-26233333D01*
X64999523Y-26185714D01*
X64809047Y-26185714D01*
X64713809Y-26233333D01*
X65142380Y-26804761D02*
X65047142Y-26852380D01*
X64809047Y-26852380D01*
X64713809Y-26804761D01*
X64666190Y-26709523D01*
X64666190Y-26614285D01*
X64713809Y-26519047D01*
X64809047Y-26471428D01*
X65047142Y-26471428D01*
X65142380Y-26423809D01*
X65523333Y-26185714D02*
X65761428Y-26852380D01*
X65999523Y-26185714D02*
X65761428Y-26852380D01*
X65666190Y-27090476D01*
X65618571Y-27138095D01*
X65523333Y-27185714D01*
%TO.C,R8*%
X66492380Y-47680476D02*
X66492380Y-48251904D01*
X66492380Y-47966190D02*
X65492380Y-47966190D01*
X65635238Y-48061428D01*
X65730476Y-48156666D01*
X65778095Y-48251904D01*
X65492380Y-47061428D02*
X65492380Y-46966190D01*
X65540000Y-46870952D01*
X65587619Y-46823333D01*
X65682857Y-46775714D01*
X65873333Y-46728095D01*
X66111428Y-46728095D01*
X66301904Y-46775714D01*
X66397142Y-46823333D01*
X66444761Y-46870952D01*
X66492380Y-46966190D01*
X66492380Y-47061428D01*
X66444761Y-47156666D01*
X66397142Y-47204285D01*
X66301904Y-47251904D01*
X66111428Y-47299523D01*
X65873333Y-47299523D01*
X65682857Y-47251904D01*
X65587619Y-47204285D01*
X65540000Y-47156666D01*
X65492380Y-47061428D01*
X66492380Y-46299523D02*
X65492380Y-46299523D01*
X66492380Y-45728095D02*
X65920952Y-46156666D01*
X65492380Y-45728095D02*
X66063809Y-46299523D01*
%TO.C,R5*%
X46305712Y-47204285D02*
X46305712Y-47775714D01*
X46305712Y-47490000D02*
X45305712Y-47490000D01*
X45448570Y-47585238D01*
X45543808Y-47680476D01*
X45591427Y-47775714D01*
X46305712Y-46775714D02*
X45305712Y-46775714D01*
X46305712Y-46204285D02*
X45734284Y-46632857D01*
X45305712Y-46204285D02*
X45877141Y-46775714D01*
%TO.C,R4*%
X37282380Y-47680476D02*
X37282380Y-48251904D01*
X37282380Y-47966190D02*
X36282380Y-47966190D01*
X36425238Y-48061428D01*
X36520476Y-48156666D01*
X36568095Y-48251904D01*
X36282380Y-47061428D02*
X36282380Y-46966190D01*
X36330000Y-46870952D01*
X36377619Y-46823333D01*
X36472857Y-46775714D01*
X36663333Y-46728095D01*
X36901428Y-46728095D01*
X37091904Y-46775714D01*
X37187142Y-46823333D01*
X37234761Y-46870952D01*
X37282380Y-46966190D01*
X37282380Y-47061428D01*
X37234761Y-47156666D01*
X37187142Y-47204285D01*
X37091904Y-47251904D01*
X36901428Y-47299523D01*
X36663333Y-47299523D01*
X36472857Y-47251904D01*
X36377619Y-47204285D01*
X36330000Y-47156666D01*
X36282380Y-47061428D01*
X37282380Y-46299523D02*
X36282380Y-46299523D01*
X37282380Y-45728095D02*
X36710952Y-46156666D01*
X36282380Y-45728095D02*
X36853809Y-46299523D01*
%TO.C,R3*%
X61044042Y-47204285D02*
X61044042Y-47775714D01*
X61044042Y-47490000D02*
X60044042Y-47490000D01*
X60186900Y-47585238D01*
X60282138Y-47680476D01*
X60329757Y-47775714D01*
X61044042Y-46775714D02*
X60044042Y-46775714D01*
X61044042Y-46204285D02*
X60472614Y-46632857D01*
X60044042Y-46204285D02*
X60615471Y-46775714D01*
%TO.C,R2*%
X52020710Y-47680476D02*
X52020710Y-48251904D01*
X52020710Y-47966190D02*
X51020710Y-47966190D01*
X51163568Y-48061428D01*
X51258806Y-48156666D01*
X51306425Y-48251904D01*
X51020710Y-47061428D02*
X51020710Y-46966190D01*
X51068330Y-46870952D01*
X51115949Y-46823333D01*
X51211187Y-46775714D01*
X51401663Y-46728095D01*
X51639758Y-46728095D01*
X51830234Y-46775714D01*
X51925472Y-46823333D01*
X51973091Y-46870952D01*
X52020710Y-46966190D01*
X52020710Y-47061428D01*
X51973091Y-47156666D01*
X51925472Y-47204285D01*
X51830234Y-47251904D01*
X51639758Y-47299523D01*
X51401663Y-47299523D01*
X51211187Y-47251904D01*
X51115949Y-47204285D01*
X51068330Y-47156666D01*
X51020710Y-47061428D01*
X52020710Y-46299523D02*
X51020710Y-46299523D01*
X52020710Y-45728095D02*
X51449282Y-46156666D01*
X51020710Y-45728095D02*
X51592139Y-46299523D01*
%TO.C,J3*%
X42392203Y-75113660D02*
X41916012Y-75113660D01*
X41868393Y-75589851D01*
X41916012Y-75542232D01*
X42011250Y-75494613D01*
X42249346Y-75494613D01*
X42344584Y-75542232D01*
X42392203Y-75589851D01*
X42439822Y-75685089D01*
X42439822Y-75923184D01*
X42392203Y-76018422D01*
X42344584Y-76066041D01*
X42249346Y-76113660D01*
X42011250Y-76113660D01*
X41916012Y-76066041D01*
X41868393Y-76018422D01*
X42725536Y-75113660D02*
X43058870Y-76113660D01*
X43392203Y-75113660D01*
X43677917Y-75066041D02*
X44677917Y-75066041D01*
X43725536Y-75351756D02*
X44011250Y-75351756D01*
X44296965Y-75351756D02*
X44630298Y-75351756D01*
X43677917Y-75494613D02*
X44011250Y-75494613D01*
X44296965Y-75494613D02*
X44677917Y-75494613D01*
X43725536Y-75780327D02*
X44677917Y-75780327D01*
X43725536Y-75970803D02*
X44677917Y-75970803D01*
X44201727Y-76113660D02*
X44773155Y-76113660D01*
X43582679Y-75208899D02*
X43582679Y-75399375D01*
X43725536Y-75637470D02*
X43725536Y-76018422D01*
X44154108Y-75066041D02*
X44154108Y-75542232D01*
X44201727Y-75637470D02*
X44201727Y-76113660D01*
X43725536Y-75637470D02*
X44677917Y-75637470D01*
X44677917Y-75970803D01*
X43582679Y-75208899D02*
X44773155Y-75208899D01*
X44773155Y-75399375D01*
X44820774Y-75970803D02*
X44773155Y-76113660D01*
X45487441Y-75018422D02*
X46296965Y-75018422D01*
X45630298Y-75446994D02*
X46201727Y-75446994D01*
X45630298Y-75637470D02*
X46201727Y-75637470D01*
X45725536Y-76113660D02*
X45916012Y-76113660D01*
X45630298Y-75256518D02*
X45630298Y-75637470D01*
X45916012Y-75066041D02*
X45868393Y-75256518D01*
X45916012Y-75637470D02*
X45916012Y-76113660D01*
X45630298Y-75256518D02*
X46201727Y-75256518D01*
X46201727Y-75637470D01*
X46106489Y-75780327D02*
X46249346Y-75923184D01*
X45677917Y-75780327D02*
X45582679Y-75970803D01*
X45154108Y-75018422D02*
X45344584Y-75113660D01*
X45058870Y-75351756D02*
X45296965Y-75446994D01*
X45296965Y-75685089D02*
X45106489Y-76113660D01*
X45487441Y-75018422D02*
X45487441Y-75589851D01*
X45392203Y-75970803D01*
%TO.C,Q2*%
X41234373Y-47752832D02*
X41281992Y-47609975D01*
X41329611Y-47562356D01*
X41424849Y-47514737D01*
X41567706Y-47514737D01*
X41662944Y-47562356D01*
X41710563Y-47609975D01*
X41758182Y-47705213D01*
X41758182Y-48086166D01*
X40758182Y-48086166D01*
X40758182Y-47752832D01*
X40805802Y-47657594D01*
X40853421Y-47609975D01*
X40948659Y-47562356D01*
X41043897Y-47562356D01*
X41139135Y-47609975D01*
X41186754Y-47657594D01*
X41234373Y-47752832D01*
X41234373Y-48086166D01*
X41710563Y-47133785D02*
X41758182Y-46990928D01*
X41758182Y-46752832D01*
X41710563Y-46657594D01*
X41662944Y-46609975D01*
X41567706Y-46562356D01*
X41472468Y-46562356D01*
X41377230Y-46609975D01*
X41329611Y-46657594D01*
X41281992Y-46752832D01*
X41234373Y-46943309D01*
X41186754Y-47038547D01*
X41139135Y-47086166D01*
X41043897Y-47133785D01*
X40948659Y-47133785D01*
X40853421Y-47086166D01*
X40805802Y-47038547D01*
X40758182Y-46943309D01*
X40758182Y-46705213D01*
X40805802Y-46562356D01*
X41710563Y-46181404D02*
X41758182Y-46038547D01*
X41758182Y-45800451D01*
X41710563Y-45705213D01*
X41662944Y-45657594D01*
X41567706Y-45609975D01*
X41472468Y-45609975D01*
X41377230Y-45657594D01*
X41329611Y-45705213D01*
X41281992Y-45800451D01*
X41234373Y-45990928D01*
X41186754Y-46086166D01*
X41139135Y-46133785D01*
X41043897Y-46181404D01*
X40948659Y-46181404D01*
X40853421Y-46133785D01*
X40805802Y-46086166D01*
X40758182Y-45990928D01*
X40758182Y-45752832D01*
X40805802Y-45609975D01*
X41758182Y-44657594D02*
X41758182Y-45229023D01*
X41758182Y-44943309D02*
X40758182Y-44943309D01*
X40901040Y-45038547D01*
X40996278Y-45133785D01*
X41043897Y-45229023D01*
X40758182Y-44324261D02*
X40758182Y-43705213D01*
X41139135Y-44038547D01*
X41139135Y-43895689D01*
X41186754Y-43800451D01*
X41234373Y-43752832D01*
X41329611Y-43705213D01*
X41567706Y-43705213D01*
X41662944Y-43752832D01*
X41710563Y-43800451D01*
X41758182Y-43895689D01*
X41758182Y-44181404D01*
X41710563Y-44276642D01*
X41662944Y-44324261D01*
X41186754Y-43133785D02*
X41139135Y-43229023D01*
X41091516Y-43276642D01*
X40996278Y-43324261D01*
X40948659Y-43324261D01*
X40853421Y-43276642D01*
X40805802Y-43229023D01*
X40758182Y-43133785D01*
X40758182Y-42943309D01*
X40805802Y-42848070D01*
X40853421Y-42800451D01*
X40948659Y-42752832D01*
X40996278Y-42752832D01*
X41091516Y-42800451D01*
X41139135Y-42848070D01*
X41186754Y-42943309D01*
X41186754Y-43133785D01*
X41234373Y-43229023D01*
X41281992Y-43276642D01*
X41377230Y-43324261D01*
X41567706Y-43324261D01*
X41662944Y-43276642D01*
X41710563Y-43229023D01*
X41758182Y-43133785D01*
X41758182Y-42943309D01*
X41710563Y-42848070D01*
X41662944Y-42800451D01*
X41567706Y-42752832D01*
X41377230Y-42752832D01*
X41281992Y-42800451D01*
X41234373Y-42848070D01*
X41186754Y-42943309D01*
%TO.C,Q1*%
X56007328Y-47649676D02*
X56054947Y-47506819D01*
X56102566Y-47459200D01*
X56197804Y-47411581D01*
X56340661Y-47411581D01*
X56435899Y-47459200D01*
X56483518Y-47506819D01*
X56531137Y-47602057D01*
X56531137Y-47983010D01*
X55531137Y-47983010D01*
X55531137Y-47649676D01*
X55578757Y-47554438D01*
X55626376Y-47506819D01*
X55721614Y-47459200D01*
X55816852Y-47459200D01*
X55912090Y-47506819D01*
X55959709Y-47554438D01*
X56007328Y-47649676D01*
X56007328Y-47983010D01*
X56483518Y-47030629D02*
X56531137Y-46887772D01*
X56531137Y-46649676D01*
X56483518Y-46554438D01*
X56435899Y-46506819D01*
X56340661Y-46459200D01*
X56245423Y-46459200D01*
X56150185Y-46506819D01*
X56102566Y-46554438D01*
X56054947Y-46649676D01*
X56007328Y-46840153D01*
X55959709Y-46935391D01*
X55912090Y-46983010D01*
X55816852Y-47030629D01*
X55721614Y-47030629D01*
X55626376Y-46983010D01*
X55578757Y-46935391D01*
X55531137Y-46840153D01*
X55531137Y-46602057D01*
X55578757Y-46459200D01*
X56483518Y-46078248D02*
X56531137Y-45935391D01*
X56531137Y-45697295D01*
X56483518Y-45602057D01*
X56435899Y-45554438D01*
X56340661Y-45506819D01*
X56245423Y-45506819D01*
X56150185Y-45554438D01*
X56102566Y-45602057D01*
X56054947Y-45697295D01*
X56007328Y-45887772D01*
X55959709Y-45983010D01*
X55912090Y-46030629D01*
X55816852Y-46078248D01*
X55721614Y-46078248D01*
X55626376Y-46030629D01*
X55578757Y-45983010D01*
X55531137Y-45887772D01*
X55531137Y-45649676D01*
X55578757Y-45506819D01*
X56531137Y-44554438D02*
X56531137Y-45125867D01*
X56531137Y-44840153D02*
X55531137Y-44840153D01*
X55673995Y-44935391D01*
X55769233Y-45030629D01*
X55816852Y-45125867D01*
X55531137Y-44221105D02*
X55531137Y-43602057D01*
X55912090Y-43935391D01*
X55912090Y-43792533D01*
X55959709Y-43697295D01*
X56007328Y-43649676D01*
X56102566Y-43602057D01*
X56340661Y-43602057D01*
X56435899Y-43649676D01*
X56483518Y-43697295D01*
X56531137Y-43792533D01*
X56531137Y-44078248D01*
X56483518Y-44173486D01*
X56435899Y-44221105D01*
X55959709Y-43030629D02*
X55912090Y-43125867D01*
X55864471Y-43173486D01*
X55769233Y-43221105D01*
X55721614Y-43221105D01*
X55626376Y-43173486D01*
X55578757Y-43125867D01*
X55531137Y-43030629D01*
X55531137Y-42840153D01*
X55578757Y-42744914D01*
X55626376Y-42697295D01*
X55721614Y-42649676D01*
X55769233Y-42649676D01*
X55864471Y-42697295D01*
X55912090Y-42744914D01*
X55959709Y-42840153D01*
X55959709Y-43030629D01*
X56007328Y-43125867D01*
X56054947Y-43173486D01*
X56150185Y-43221105D01*
X56340661Y-43221105D01*
X56435899Y-43173486D01*
X56483518Y-43125867D01*
X56531137Y-43030629D01*
X56531137Y-42840153D01*
X56483518Y-42744914D01*
X56435899Y-42697295D01*
X56340661Y-42649676D01*
X56150185Y-42649676D01*
X56054947Y-42697295D01*
X56007328Y-42744914D01*
X55959709Y-42840153D01*
%TO.C,J4*%
X48291904Y-26852380D02*
X47958571Y-26376190D01*
X47720476Y-26852380D02*
X47720476Y-25852380D01*
X48101428Y-25852380D01*
X48196666Y-25900000D01*
X48244285Y-25947619D01*
X48291904Y-26042857D01*
X48291904Y-26185714D01*
X48244285Y-26280952D01*
X48196666Y-26328571D01*
X48101428Y-26376190D01*
X47720476Y-26376190D01*
X49101428Y-26804761D02*
X49006190Y-26852380D01*
X48815714Y-26852380D01*
X48720476Y-26804761D01*
X48672857Y-26709523D01*
X48672857Y-26328571D01*
X48720476Y-26233333D01*
X48815714Y-26185714D01*
X49006190Y-26185714D01*
X49101428Y-26233333D01*
X49149047Y-26328571D01*
X49149047Y-26423809D01*
X48672857Y-26519047D01*
X49530000Y-26804761D02*
X49625238Y-26852380D01*
X49815714Y-26852380D01*
X49910952Y-26804761D01*
X49958571Y-26709523D01*
X49958571Y-26661904D01*
X49910952Y-26566666D01*
X49815714Y-26519047D01*
X49672857Y-26519047D01*
X49577619Y-26471428D01*
X49530000Y-26376190D01*
X49530000Y-26328571D01*
X49577619Y-26233333D01*
X49672857Y-26185714D01*
X49815714Y-26185714D01*
X49910952Y-26233333D01*
X50768095Y-26804761D02*
X50672857Y-26852380D01*
X50482380Y-26852380D01*
X50387142Y-26804761D01*
X50339523Y-26709523D01*
X50339523Y-26328571D01*
X50387142Y-26233333D01*
X50482380Y-26185714D01*
X50672857Y-26185714D01*
X50768095Y-26233333D01*
X50815714Y-26328571D01*
X50815714Y-26423809D01*
X50339523Y-26519047D01*
X51101428Y-26185714D02*
X51482380Y-26185714D01*
X51244285Y-25852380D02*
X51244285Y-26709523D01*
X51291904Y-26804761D01*
X51387142Y-26852380D01*
X51482380Y-26852380D01*
%TO.C,J1*%
X54292779Y-75581512D02*
X54435636Y-75629131D01*
X54483255Y-75676750D01*
X54530874Y-75771988D01*
X54530874Y-75914845D01*
X54483255Y-76010083D01*
X54435636Y-76057702D01*
X54340398Y-76105321D01*
X53959445Y-76105321D01*
X53959445Y-75105321D01*
X54292779Y-75105321D01*
X54388017Y-75152941D01*
X54435636Y-75200560D01*
X54483255Y-75295798D01*
X54483255Y-75391036D01*
X54435636Y-75486274D01*
X54388017Y-75533893D01*
X54292779Y-75581512D01*
X53959445Y-75581512D01*
X55388017Y-76105321D02*
X55388017Y-75581512D01*
X55340398Y-75486274D01*
X55245160Y-75438655D01*
X55054683Y-75438655D01*
X54959445Y-75486274D01*
X55388017Y-76057702D02*
X55292779Y-76105321D01*
X55054683Y-76105321D01*
X54959445Y-76057702D01*
X54911826Y-75962464D01*
X54911826Y-75867226D01*
X54959445Y-75771988D01*
X55054683Y-75724369D01*
X55292779Y-75724369D01*
X55388017Y-75676750D01*
X55864207Y-76105321D02*
X55864207Y-75438655D01*
X55864207Y-75629131D02*
X55911826Y-75533893D01*
X55959445Y-75486274D01*
X56054683Y-75438655D01*
X56149921Y-75438655D01*
X56911826Y-76057702D02*
X56816588Y-76105321D01*
X56626112Y-76105321D01*
X56530874Y-76057702D01*
X56483255Y-76010083D01*
X56435636Y-75914845D01*
X56435636Y-75629131D01*
X56483255Y-75533893D01*
X56530874Y-75486274D01*
X56626112Y-75438655D01*
X56816588Y-75438655D01*
X56911826Y-75486274D01*
X57483255Y-76105321D02*
X57388017Y-76057702D01*
X57340398Y-76010083D01*
X57292779Y-75914845D01*
X57292779Y-75629131D01*
X57340398Y-75533893D01*
X57388017Y-75486274D01*
X57483255Y-75438655D01*
X57626112Y-75438655D01*
X57721350Y-75486274D01*
X57768969Y-75533893D01*
X57816588Y-75629131D01*
X57816588Y-75914845D01*
X57768969Y-76010083D01*
X57721350Y-76057702D01*
X57626112Y-76105321D01*
X57483255Y-76105321D01*
X58673731Y-76105321D02*
X58673731Y-75105321D01*
X58673731Y-76057702D02*
X58578493Y-76105321D01*
X58388017Y-76105321D01*
X58292779Y-76057702D01*
X58245160Y-76010083D01*
X58197541Y-75914845D01*
X58197541Y-75629131D01*
X58245160Y-75533893D01*
X58292779Y-75486274D01*
X58388017Y-75438655D01*
X58578493Y-75438655D01*
X58673731Y-75486274D01*
X59530874Y-76057702D02*
X59435636Y-76105321D01*
X59245160Y-76105321D01*
X59149921Y-76057702D01*
X59102302Y-75962464D01*
X59102302Y-75581512D01*
X59149921Y-75486274D01*
X59245160Y-75438655D01*
X59435636Y-75438655D01*
X59530874Y-75486274D01*
X59578493Y-75581512D01*
X59578493Y-75676750D01*
X59102302Y-75771988D01*
X61340398Y-76105321D02*
X61007064Y-75629131D01*
X60768969Y-76105321D02*
X60768969Y-75105321D01*
X61149921Y-75105321D01*
X61245160Y-75152941D01*
X61292779Y-75200560D01*
X61340398Y-75295798D01*
X61340398Y-75438655D01*
X61292779Y-75533893D01*
X61245160Y-75581512D01*
X61149921Y-75629131D01*
X60768969Y-75629131D01*
X62149921Y-76057702D02*
X62054683Y-76105321D01*
X61864207Y-76105321D01*
X61768969Y-76057702D01*
X61721350Y-75962464D01*
X61721350Y-75581512D01*
X61768969Y-75486274D01*
X61864207Y-75438655D01*
X62054683Y-75438655D01*
X62149921Y-75486274D01*
X62197541Y-75581512D01*
X62197541Y-75676750D01*
X61721350Y-75771988D01*
X63054683Y-76105321D02*
X63054683Y-75581512D01*
X63007064Y-75486274D01*
X62911826Y-75438655D01*
X62721350Y-75438655D01*
X62626112Y-75486274D01*
X63054683Y-76057702D02*
X62959445Y-76105321D01*
X62721350Y-76105321D01*
X62626112Y-76057702D01*
X62578493Y-75962464D01*
X62578493Y-75867226D01*
X62626112Y-75771988D01*
X62721350Y-75724369D01*
X62959445Y-75724369D01*
X63054683Y-75676750D01*
X63959445Y-76105321D02*
X63959445Y-75105321D01*
X63959445Y-76057702D02*
X63864207Y-76105321D01*
X63673731Y-76105321D01*
X63578493Y-76057702D01*
X63530874Y-76010083D01*
X63483255Y-75914845D01*
X63483255Y-75629131D01*
X63530874Y-75533893D01*
X63578493Y-75486274D01*
X63673731Y-75438655D01*
X63864207Y-75438655D01*
X63959445Y-75486274D01*
X64816588Y-76057702D02*
X64721350Y-76105321D01*
X64530874Y-76105321D01*
X64435636Y-76057702D01*
X64388017Y-75962464D01*
X64388017Y-75581512D01*
X64435636Y-75486274D01*
X64530874Y-75438655D01*
X64721350Y-75438655D01*
X64816588Y-75486274D01*
X64864207Y-75581512D01*
X64864207Y-75676750D01*
X64388017Y-75771988D01*
X65292779Y-76105321D02*
X65292779Y-75438655D01*
X65292779Y-75629131D02*
X65340398Y-75533893D01*
X65388017Y-75486274D01*
X65483255Y-75438655D01*
X65578493Y-75438655D01*
%TO.C,C1*%
X31785066Y-73090757D02*
X31785066Y-73757423D01*
X31546971Y-72709804D02*
X31308876Y-73424090D01*
X31927924Y-73424090D01*
X32213638Y-72757423D02*
X32880304Y-72757423D01*
X32451733Y-73757423D01*
X33451733Y-72757423D02*
X33546971Y-72757423D01*
X33642209Y-72805043D01*
X33689828Y-72852662D01*
X33737447Y-72947900D01*
X33785066Y-73138376D01*
X33785066Y-73376471D01*
X33737447Y-73566947D01*
X33689828Y-73662185D01*
X33642209Y-73709804D01*
X33546971Y-73757423D01*
X33451733Y-73757423D01*
X33356495Y-73709804D01*
X33308876Y-73662185D01*
X33261257Y-73566947D01*
X33213638Y-73376471D01*
X33213638Y-73138376D01*
X33261257Y-72947900D01*
X33308876Y-72852662D01*
X33356495Y-72805043D01*
X33451733Y-72757423D01*
X34642209Y-73090757D02*
X34642209Y-73757423D01*
X34213638Y-73090757D02*
X34213638Y-73614566D01*
X34261257Y-73709804D01*
X34356495Y-73757423D01*
X34499352Y-73757423D01*
X34594590Y-73709804D01*
X34642209Y-73662185D01*
X35451733Y-73233614D02*
X35118400Y-73233614D01*
X35118400Y-73757423D02*
X35118400Y-72757423D01*
X35594590Y-72757423D01*
D11*
%TO.C,J5*%
X31259000Y-33510000D02*
X41639000Y-33510000D01*
X41639000Y-33510000D02*
X41639000Y-27490000D01*
X32889000Y-27490000D02*
X32889000Y-28490000D01*
X41059000Y-32910000D02*
X39459000Y-32910000D01*
X32889000Y-29020000D02*
X32639000Y-28490000D01*
X39459000Y-32910000D02*
X39459000Y-33510000D01*
X31839000Y-32910000D02*
X31839000Y-33510000D01*
X32639000Y-28490000D02*
X32639000Y-27490000D01*
X41059000Y-33510000D02*
X41059000Y-32910000D01*
X38519000Y-33510000D02*
X38519000Y-32910000D01*
X35979000Y-33510000D02*
X35979000Y-32910000D01*
X40259000Y-28490000D02*
X32639000Y-28490000D01*
X31259000Y-27490000D02*
X31259000Y-33510000D01*
X35979000Y-32910000D02*
X34379000Y-32910000D01*
X33439000Y-32910000D02*
X31839000Y-32910000D01*
X41929000Y-32480000D02*
X41929000Y-28480000D01*
X40259000Y-28490000D02*
X40009000Y-29020000D01*
X41639000Y-27490000D02*
X31259000Y-27490000D01*
X40009000Y-29020000D02*
X32889000Y-29020000D01*
X36919000Y-32910000D02*
X36919000Y-33510000D01*
X40009000Y-27490000D02*
X40009000Y-28490000D01*
X34379000Y-32910000D02*
X34379000Y-33510000D01*
X33439000Y-33510000D02*
X33439000Y-32910000D01*
X40259000Y-27490000D02*
X40259000Y-28490000D01*
X38519000Y-32910000D02*
X36919000Y-32910000D01*
D12*
%TO.C,U2*%
X69185475Y-39198806D02*
G75*
G03*
X69185475Y-39198806I-100000J0D01*
G01*
D13*
X70325475Y-60788806D02*
X70325475Y-57088806D01*
X22125475Y-52148806D02*
X22125475Y-60788806D01*
X76525475Y-39088806D02*
X76525475Y-57088806D01*
X76525475Y-57088806D02*
X70325475Y-57088806D01*
X70325475Y-35388806D02*
X22125475Y-35388806D01*
X22125475Y-44018806D02*
X21225475Y-44018806D01*
X21225475Y-52148806D02*
X22125475Y-52148806D01*
X22125475Y-60788806D02*
X70325475Y-60788806D01*
X22125475Y-35388806D02*
X22125475Y-44018806D01*
X21225475Y-44018806D02*
X21225475Y-52148806D01*
X70325475Y-39088806D02*
X70325475Y-35388806D01*
X70325475Y-39088806D02*
X76525475Y-39088806D01*
D11*
%TO.C,J2*%
X64520000Y-29020000D02*
X54860000Y-29020000D01*
X53230000Y-27490000D02*
X53230000Y-33510000D01*
X64770000Y-28490000D02*
X54610000Y-28490000D01*
X64770000Y-27490000D02*
X64770000Y-28490000D01*
X66150000Y-27490000D02*
X53230000Y-27490000D01*
X55410000Y-32910000D02*
X53810000Y-32910000D01*
X54860000Y-29020000D02*
X54610000Y-28490000D01*
X63030000Y-33510000D02*
X63030000Y-32910000D01*
X53810000Y-32910000D02*
X53810000Y-33510000D01*
X58890000Y-32910000D02*
X58890000Y-33510000D01*
X66150000Y-33510000D02*
X66150000Y-27490000D01*
X55410000Y-33510000D02*
X55410000Y-32910000D01*
X57950000Y-32910000D02*
X56350000Y-32910000D01*
X61430000Y-32910000D02*
X61430000Y-33510000D01*
X65570000Y-32910000D02*
X63970000Y-32910000D01*
X57950000Y-33510000D02*
X57950000Y-32910000D01*
X56350000Y-32910000D02*
X56350000Y-33510000D01*
X65570000Y-33510000D02*
X65570000Y-32910000D01*
X60490000Y-33510000D02*
X60490000Y-32910000D01*
X53230000Y-33510000D02*
X66150000Y-33510000D01*
X64520000Y-27490000D02*
X64520000Y-28490000D01*
X54860000Y-27490000D02*
X54860000Y-28490000D01*
X64770000Y-28490000D02*
X64520000Y-29020000D01*
X66440000Y-32480000D02*
X66440000Y-28480000D01*
X54610000Y-28490000D02*
X54610000Y-27490000D01*
X60490000Y-32910000D02*
X58890000Y-32910000D01*
X63030000Y-32910000D02*
X61430000Y-32910000D01*
X63970000Y-32910000D02*
X63970000Y-33510000D01*
%TO.C,R8*%
X66040000Y-51030000D02*
X66040000Y-50260000D01*
X66040000Y-42950000D02*
X66040000Y-43720000D01*
X67410000Y-43720000D02*
X64670000Y-43720000D01*
X64670000Y-50260000D02*
X67410000Y-50260000D01*
X64670000Y-43720000D02*
X64670000Y-50260000D01*
X67410000Y-50260000D02*
X67410000Y-43720000D01*
%TO.C,R5*%
X47223332Y-50260000D02*
X47223332Y-43720000D01*
X44483332Y-43720000D02*
X44483332Y-50260000D01*
X44483332Y-50260000D02*
X47223332Y-50260000D01*
X47223332Y-43720000D02*
X44483332Y-43720000D01*
X45853332Y-42950000D02*
X45853332Y-43720000D01*
X45853332Y-51030000D02*
X45853332Y-50260000D01*
%TO.C,R4*%
X38200000Y-50260000D02*
X38200000Y-43720000D01*
X35460000Y-43720000D02*
X35460000Y-50260000D01*
X35460000Y-50260000D02*
X38200000Y-50260000D01*
X38200000Y-43720000D02*
X35460000Y-43720000D01*
X36830000Y-42950000D02*
X36830000Y-43720000D01*
X36830000Y-51030000D02*
X36830000Y-50260000D01*
%TO.C,R3*%
X61961662Y-50260000D02*
X61961662Y-43720000D01*
X59221662Y-43720000D02*
X59221662Y-50260000D01*
X59221662Y-50260000D02*
X61961662Y-50260000D01*
X61961662Y-43720000D02*
X59221662Y-43720000D01*
X60591662Y-42950000D02*
X60591662Y-43720000D01*
X60591662Y-51030000D02*
X60591662Y-50260000D01*
%TO.C,R2*%
X51568330Y-51030000D02*
X51568330Y-50260000D01*
X51568330Y-42950000D02*
X51568330Y-43720000D01*
X52938330Y-43720000D02*
X50198330Y-43720000D01*
X50198330Y-50260000D02*
X52938330Y-50260000D01*
X50198330Y-43720000D02*
X50198330Y-50260000D01*
X52938330Y-50260000D02*
X52938330Y-43720000D01*
%TO.C,J3*%
X39258870Y-63261280D02*
X39258870Y-62211280D01*
X40308870Y-62211280D02*
X39258870Y-62211280D01*
X48658870Y-68311280D02*
X48658870Y-77111280D01*
X39458870Y-62411280D02*
X42058870Y-62411280D01*
X45958870Y-62411280D02*
X48658870Y-62411280D01*
X48658870Y-62411280D02*
X48658870Y-64311280D01*
X48658870Y-77111280D02*
X39458870Y-77111280D01*
X39458870Y-77111280D02*
X39458870Y-62411280D01*
%TO.C,Q2*%
X39781666Y-50800000D02*
X39781666Y-50150000D01*
X42901666Y-50800000D02*
X42901666Y-49125000D01*
X39781666Y-50800000D02*
X39781666Y-51450000D01*
X42901666Y-50800000D02*
X42901666Y-51450000D01*
%TO.C,Q1*%
X54519996Y-50800000D02*
X54519996Y-50150000D01*
X57639996Y-50800000D02*
X57639996Y-49125000D01*
X54519996Y-50800000D02*
X54519996Y-51450000D01*
X57639996Y-50800000D02*
X57639996Y-51450000D01*
%TO.C,J4*%
X52180000Y-27490000D02*
X46880000Y-27490000D01*
X50000000Y-32910000D02*
X50000000Y-33510000D01*
X52470000Y-32480000D02*
X52470000Y-28480000D01*
X52180000Y-33510000D02*
X52180000Y-27490000D01*
X49060000Y-33510000D02*
X49060000Y-32910000D01*
X48260000Y-28490000D02*
X48260000Y-27490000D01*
X48510000Y-27490000D02*
X48510000Y-28490000D01*
X51600000Y-32910000D02*
X50000000Y-32910000D01*
X49060000Y-32910000D02*
X47460000Y-32910000D01*
X48510000Y-29020000D02*
X48260000Y-28490000D01*
X50800000Y-28490000D02*
X48260000Y-28490000D01*
X50800000Y-27490000D02*
X50800000Y-28490000D01*
X50550000Y-27490000D02*
X50550000Y-28490000D01*
X50800000Y-28490000D02*
X50550000Y-29020000D01*
X46880000Y-33510000D02*
X52180000Y-33510000D01*
X51600000Y-33510000D02*
X51600000Y-32910000D01*
X46880000Y-27490000D02*
X46880000Y-33510000D01*
X47460000Y-32910000D02*
X47460000Y-33510000D01*
X50550000Y-29020000D02*
X48510000Y-29020000D01*
%TO.C,J1*%
X51607541Y-76902941D02*
X67807541Y-76902941D01*
X67807541Y-63902941D02*
X67807541Y-76902941D01*
X51607541Y-63902941D02*
X67807541Y-63902941D01*
X51607541Y-63902941D02*
X51607541Y-76902941D01*
%TO.C,C1*%
X38547924Y-66955043D02*
G75*
G03*
X38547924Y-66955043I-5120000J0D01*
G01*
X34027924Y-61910043D02*
X34027924Y-72000043D01*
X33427924Y-61875043D02*
X33427924Y-72035043D01*
X36028924Y-68196043D02*
X36028924Y-71326043D01*
X36348924Y-68196043D02*
X36348924Y-71121043D01*
X36148924Y-68196043D02*
X36148924Y-71253043D01*
X35868924Y-62493043D02*
X35868924Y-65714043D01*
X36068924Y-68196043D02*
X36068924Y-71302043D01*
X35468924Y-68196043D02*
X35468924Y-71612043D01*
X37668924Y-64125043D02*
X37668924Y-69785043D01*
X36468924Y-62875043D02*
X36468924Y-65714043D01*
X35388924Y-62265043D02*
X35388924Y-65714043D01*
X34828924Y-62070043D02*
X34828924Y-65714043D01*
X38468924Y-66093043D02*
X38468924Y-67817043D01*
X34788924Y-62058043D02*
X34788924Y-65714043D01*
X37028924Y-63354043D02*
X37028924Y-65714043D01*
X35108924Y-62158043D02*
X35108924Y-65714043D01*
X38148924Y-65011043D02*
X38148924Y-68899043D01*
X33787924Y-61887043D02*
X33787924Y-72023043D01*
X33987924Y-61905043D02*
X33987924Y-72005043D01*
X37428924Y-63799043D02*
X37428924Y-70111043D01*
X35748924Y-68196043D02*
X35748924Y-71480043D01*
X35508924Y-62316043D02*
X35508924Y-65714043D01*
X37068924Y-68196043D02*
X37068924Y-70516043D01*
X36588924Y-68196043D02*
X36588924Y-70944043D01*
X36148924Y-62657043D02*
X36148924Y-65714043D01*
X36908924Y-63239043D02*
X36908924Y-65714043D01*
X34107924Y-61920043D02*
X34107924Y-71990043D01*
X34788924Y-68196043D02*
X34788924Y-71852043D01*
X35788924Y-62451043D02*
X35788924Y-65714043D01*
X35068924Y-62144043D02*
X35068924Y-65714043D01*
X36228924Y-68196043D02*
X36228924Y-71202043D01*
X36708924Y-68196043D02*
X36708924Y-70847043D01*
X38028924Y-64746043D02*
X38028924Y-69164043D01*
X34308924Y-61951043D02*
X34308924Y-71959043D01*
X34868924Y-62081043D02*
X34868924Y-65714043D01*
X33627924Y-61878043D02*
X33627924Y-72032043D01*
X36908924Y-68196043D02*
X36908924Y-70671043D01*
X34548924Y-61999043D02*
X34548924Y-71911043D01*
X33947924Y-61901043D02*
X33947924Y-72009043D01*
X35948924Y-68196043D02*
X35948924Y-71372043D01*
X35148924Y-62172043D02*
X35148924Y-65714043D01*
X34988924Y-68196043D02*
X34988924Y-71792043D01*
X35468924Y-62298043D02*
X35468924Y-65714043D01*
X36948924Y-68196043D02*
X36948924Y-70634043D01*
X36748924Y-63097043D02*
X36748924Y-65714043D01*
X35908924Y-68196043D02*
X35908924Y-71395043D01*
X35268924Y-62217043D02*
X35268924Y-65714043D01*
X34828924Y-68196043D02*
X34828924Y-71840043D01*
X37268924Y-63608043D02*
X37268924Y-70302043D01*
X35028924Y-62131043D02*
X35028924Y-65714043D01*
X36668924Y-63030043D02*
X36668924Y-65714043D01*
X34468924Y-61981043D02*
X34468924Y-71929043D01*
X36508924Y-68196043D02*
X36508924Y-71005043D01*
X35708924Y-62410043D02*
X35708924Y-65714043D01*
X36788924Y-68196043D02*
X36788924Y-70779043D01*
X36188924Y-68196043D02*
X36188924Y-71228043D01*
X37348924Y-63701043D02*
X37348924Y-70209043D01*
X37308924Y-63654043D02*
X37308924Y-70256043D01*
X36788924Y-63131043D02*
X36788924Y-65714043D01*
X33707924Y-61882043D02*
X33707924Y-72028043D01*
X35988924Y-68196043D02*
X35988924Y-71350043D01*
X37868924Y-64445043D02*
X37868924Y-69465043D01*
X36068924Y-62608043D02*
X36068924Y-65714043D01*
X35068924Y-68196043D02*
X35068924Y-71766043D01*
X33827924Y-61890043D02*
X33827924Y-72020043D01*
X37468924Y-63849043D02*
X37468924Y-70061043D01*
X36628924Y-68196043D02*
X36628924Y-70912043D01*
X35388924Y-68196043D02*
X35388924Y-71645043D01*
X35868924Y-68196043D02*
X35868924Y-71417043D01*
X33667924Y-61880043D02*
X33667924Y-72030043D01*
X34708924Y-62037043D02*
X34708924Y-65714043D01*
X37828924Y-64376043D02*
X37828924Y-69534043D01*
X36828924Y-68196043D02*
X36828924Y-70744043D01*
X28448278Y-63580043D02*
X28448278Y-64580043D01*
X33587924Y-61877043D02*
X33587924Y-72033043D01*
X35628924Y-62371043D02*
X35628924Y-65714043D01*
X34668924Y-62027043D02*
X34668924Y-71883043D01*
X35708924Y-68196043D02*
X35708924Y-71500043D01*
X36988924Y-68196043D02*
X36988924Y-70595043D01*
X36028924Y-62584043D02*
X36028924Y-65714043D01*
X36988924Y-63315043D02*
X36988924Y-65714043D01*
X36868924Y-63202043D02*
X36868924Y-65714043D01*
X35228924Y-68196043D02*
X35228924Y-71709043D01*
X35268924Y-68196043D02*
X35268924Y-71693043D01*
X35548924Y-68196043D02*
X35548924Y-71576043D01*
X37588924Y-64010043D02*
X37588924Y-69900043D01*
X37948924Y-64590043D02*
X37948924Y-69320043D01*
X35988924Y-62560043D02*
X35988924Y-65714043D01*
X35828924Y-62472043D02*
X35828924Y-65714043D01*
X37508924Y-63901043D02*
X37508924Y-70009043D01*
X36428924Y-62845043D02*
X36428924Y-65714043D01*
X37108924Y-68196043D02*
X37108924Y-70475043D01*
X35668924Y-62391043D02*
X35668924Y-65714043D01*
X36108924Y-68196043D02*
X36108924Y-71278043D01*
X36228924Y-62708043D02*
X36228924Y-65714043D01*
X35348924Y-62248043D02*
X35348924Y-65714043D01*
X35908924Y-62515043D02*
X35908924Y-65714043D01*
X38508924Y-66356043D02*
X38508924Y-67554043D01*
X34748924Y-68196043D02*
X34748924Y-71862043D01*
X34228924Y-61937043D02*
X34228924Y-71973043D01*
X37148924Y-68196043D02*
X37148924Y-70433043D01*
X34868924Y-68196043D02*
X34868924Y-71829043D01*
X35668924Y-68196043D02*
X35668924Y-71519043D01*
X36468924Y-68196043D02*
X36468924Y-71035043D01*
X36508924Y-62905043D02*
X36508924Y-65714043D01*
X36428924Y-68196043D02*
X36428924Y-71065043D01*
X34188924Y-61931043D02*
X34188924Y-71979043D01*
X38428924Y-65893043D02*
X38428924Y-68017043D01*
X33547924Y-61876043D02*
X33547924Y-72034043D01*
X36708924Y-63063043D02*
X36708924Y-65714043D01*
X37068924Y-63394043D02*
X37068924Y-65714043D01*
X35948924Y-62538043D02*
X35948924Y-65714043D01*
X37628924Y-64066043D02*
X37628924Y-69844043D01*
X36308924Y-68196043D02*
X36308924Y-71149043D01*
X34268924Y-61944043D02*
X34268924Y-71966043D01*
X36268924Y-68196043D02*
X36268924Y-71176043D01*
X34428924Y-61973043D02*
X34428924Y-71937043D01*
X35148924Y-68196043D02*
X35148924Y-71738043D01*
X37188924Y-63519043D02*
X37188924Y-70391043D01*
X35308924Y-68196043D02*
X35308924Y-71678043D01*
X33507924Y-61875043D02*
X33507924Y-72035043D01*
X36388924Y-62817043D02*
X36388924Y-65714043D01*
X35348924Y-68196043D02*
X35348924Y-71662043D01*
X34628924Y-62017043D02*
X34628924Y-71893043D01*
X36108924Y-62632043D02*
X36108924Y-65714043D01*
X37788924Y-64310043D02*
X37788924Y-69600043D01*
X36628924Y-62998043D02*
X36628924Y-65714043D01*
X34988924Y-62118043D02*
X34988924Y-65714043D01*
X37548924Y-63955043D02*
X37548924Y-69955043D01*
X33907924Y-61897043D02*
X33907924Y-72013043D01*
X38268924Y-65325043D02*
X38268924Y-68585043D01*
X36188924Y-62682043D02*
X36188924Y-65714043D01*
X37748924Y-64246043D02*
X37748924Y-69664043D01*
X34067924Y-61915043D02*
X34067924Y-71995043D01*
X36948924Y-63276043D02*
X36948924Y-65714043D01*
X35628924Y-68196043D02*
X35628924Y-71539043D01*
X35828924Y-68196043D02*
X35828924Y-71438043D01*
X35188924Y-68196043D02*
X35188924Y-71723043D01*
X35228924Y-62201043D02*
X35228924Y-65714043D01*
X36548924Y-62935043D02*
X36548924Y-65714043D01*
X38068924Y-64830043D02*
X38068924Y-69080043D01*
X34388924Y-61965043D02*
X34388924Y-71945043D01*
X34708924Y-68196043D02*
X34708924Y-71873043D01*
X37708924Y-64185043D02*
X37708924Y-69725043D01*
X38228924Y-65213043D02*
X38228924Y-68697043D01*
X36868924Y-68196043D02*
X36868924Y-70708043D01*
X36828924Y-63166043D02*
X36828924Y-65714043D01*
X35588924Y-68196043D02*
X35588924Y-71558043D01*
X34588924Y-62008043D02*
X34588924Y-71902043D01*
X36748924Y-68196043D02*
X36748924Y-70813043D01*
X35108924Y-68196043D02*
X35108924Y-71752043D01*
X34148924Y-61925043D02*
X34148924Y-71985043D01*
X35748924Y-62430043D02*
X35748924Y-65714043D01*
X37108924Y-63435043D02*
X37108924Y-65714043D01*
X38348924Y-65577043D02*
X38348924Y-68333043D01*
X34508924Y-61990043D02*
X34508924Y-71920043D01*
X34348924Y-61958043D02*
X34348924Y-71952043D01*
X35308924Y-62232043D02*
X35308924Y-65714043D01*
X34948924Y-68196043D02*
X34948924Y-71805043D01*
X37228924Y-63563043D02*
X37228924Y-70347043D01*
X36308924Y-62761043D02*
X36308924Y-65714043D01*
X38388924Y-65725043D02*
X38388924Y-68185043D01*
X35428924Y-62281043D02*
X35428924Y-65714043D01*
X27948278Y-64080043D02*
X28948278Y-64080043D01*
X35548924Y-62334043D02*
X35548924Y-65714043D01*
X33467924Y-61875043D02*
X33467924Y-72035043D01*
X35588924Y-62352043D02*
X35588924Y-65714043D01*
X34948924Y-62105043D02*
X34948924Y-65714043D01*
X37908924Y-64516043D02*
X37908924Y-69394043D01*
X36388924Y-68196043D02*
X36388924Y-71093043D01*
X35508924Y-68196043D02*
X35508924Y-71594043D01*
X36268924Y-62734043D02*
X36268924Y-65714043D01*
X37388924Y-63749043D02*
X37388924Y-70161043D01*
X36548924Y-68196043D02*
X36548924Y-70975043D01*
X35028924Y-68196043D02*
X35028924Y-71779043D01*
X33747924Y-61885043D02*
X33747924Y-72025043D01*
X36348924Y-62789043D02*
X36348924Y-65714043D01*
X37028924Y-68196043D02*
X37028924Y-70556043D01*
X38188924Y-65109043D02*
X38188924Y-68801043D01*
X38108924Y-64918043D02*
X38108924Y-68992043D01*
X34748924Y-62048043D02*
X34748924Y-65714043D01*
X34908924Y-62093043D02*
X34908924Y-65714043D01*
X34908924Y-68196043D02*
X34908924Y-71817043D01*
X33867924Y-61893043D02*
X33867924Y-72017043D01*
X38308924Y-65445043D02*
X38308924Y-68465043D01*
X36668924Y-68196043D02*
X36668924Y-70880043D01*
X37988924Y-64666043D02*
X37988924Y-69244043D01*
X35188924Y-62187043D02*
X35188924Y-65714043D01*
X36588924Y-62966043D02*
X36588924Y-65714043D01*
X35428924Y-68196043D02*
X35428924Y-71629043D01*
X37148924Y-63477043D02*
X37148924Y-65714043D01*
X35788924Y-68196043D02*
X35788924Y-71459043D01*
%TD*%
M02*
