M48
; DRILL file {KiCad (6.0.7)} date Tue Aug 27 11:09:27 2024
; FORMAT={-:-/ absolute / inch / decimal}
; #@! TF.CreationDate,2024-08-27T11:09:27+08:00
; #@! TF.GenerationSoftware,Kicad,Pcbnew,(6.0.7)
; #@! TF.FileFunction,Plated,1,2,PTH
FMAT,2
INCH
; #@! TA.AperFunction,Plated,PTH,ViaDrill
T1C0.0157
; #@! TA.AperFunction,Plated,PTH,ComponentDrill
T2C0.0197
; #@! TA.AperFunction,Plated,PTH,ComponentDrill
T3C0.0315
; #@! TA.AperFunction,Plated,PTH,ComponentDrill
T4C0.0394
; #@! TA.AperFunction,Plated,PTH,ComponentDrill
T5C0.0402
; #@! TA.AperFunction,Plated,PTH,ComponentDrill
T6C0.0469
; #@! TA.AperFunction,Plated,PTH,ComponentDrill
T7C0.1260
%
G90
G05
T1
X1.59Y-2.095
X2.17Y-2.095
T2
X0.9055Y-1.2
X0.9055Y-2.85
X0.9332Y-1.1332
X0.9332Y-1.2668
X0.9332Y-2.7832
X0.9332Y-2.9168
X1.0Y-1.1055
X1.0Y-1.2945
X1.0Y-2.7555
X1.0Y-2.9445
X1.0668Y-1.1332
X1.0668Y-1.2668
X1.0668Y-2.7832
X1.0668Y-2.9168
X1.0945Y-1.2
X1.0945Y-2.85
X2.7555Y-1.2
X2.7555Y-2.85
X2.7832Y-1.1332
X2.7832Y-1.2668
X2.7832Y-2.7832
X2.7832Y-2.9168
X2.85Y-1.1055
X2.85Y-1.2945
X2.85Y-2.7555
X2.85Y-2.9445
X2.9168Y-1.1332
X2.9168Y-1.2668
X2.9168Y-2.7832
X2.9168Y-2.9168
X2.9445Y-1.2
X2.9445Y-2.85
T3
X1.45Y-1.65
X1.45Y-2.05
X1.8052Y-1.65
X1.8052Y-2.05
X2.0302Y-1.65
X2.0302Y-2.05
X2.2168Y-2.5789
X2.2168Y-2.6891
X2.2995Y-2.6891
X2.3855Y-1.65
X2.3855Y-2.05
X2.4019Y-2.6891
X2.4845Y-2.5789
X2.4845Y-2.6891
X2.6Y-1.65
X2.6Y-2.05
T4
X1.2176Y-2.636
X1.4145Y-2.636
T5
X0.9195Y-1.4433
X0.9199Y-2.3433
X1.0195Y-1.4433
X1.0199Y-2.3433
X1.1195Y-1.4433
X1.1199Y-2.3433
X1.2195Y-1.4433
X1.2199Y-2.3433
X1.3195Y-1.4433
X1.3199Y-2.3433
X1.4195Y-1.4433
X1.4199Y-2.3433
X1.5195Y-1.4433
X1.5199Y-2.3433
X1.6195Y-1.4433
X1.6199Y-2.3433
X1.7195Y-1.4433
X1.7199Y-2.3433
X1.8195Y-1.4433
X1.8199Y-2.3433
X1.9195Y-1.4433
X1.9199Y-2.3433
X2.0195Y-1.4433
X2.0199Y-2.3433
X2.1195Y-1.4433
X2.1199Y-2.3433
X2.2195Y-1.4433
X2.2199Y-2.3433
X2.3195Y-1.4433
X2.3199Y-2.3433
X2.4195Y-1.4433
X2.4199Y-2.3433
X2.5195Y-1.4433
X2.5199Y-2.3433
X2.6195Y-1.4433
X2.6199Y-2.3433
X2.7195Y-1.4433
X2.7199Y-2.3433
T6
X1.285Y-1.2
X1.385Y-1.2
X1.485Y-1.2
X1.585Y-1.2
X1.9Y-1.2
X2.0Y-1.2
X2.15Y-1.2
X2.25Y-1.2
X2.35Y-1.2
X2.45Y-1.2
X2.55Y-1.2
T7
X1.0Y-1.2
X1.0Y-2.85
X2.85Y-1.2
X2.85Y-2.85
T4
G00X1.6952Y-2.4926
M15
G01X1.774Y-2.4926
M16
G05
G00X1.6952Y-2.7288
M15
G01X1.774Y-2.7288
M16
G05
G00X1.9196Y-2.6501
M15
G01X1.9196Y-2.5713
M16
G05
G00X2.081Y-2.7718
M15
G01X2.081Y-2.8308
M16
G05
G00X2.3113Y-2.8328
M15
G01X2.3901Y-2.8328
M16
G05
G00X2.6204Y-2.7718
M15
G01X2.6204Y-2.8308
M16
G05
T0
M30
