%TF.GenerationSoftware,KiCad,Pcbnew,7.0.10*%
%TF.CreationDate,2026-01-21T09:32:35+08:00*%
%TF.ProjectId,KiCad_Esp32_LotNoDisplay,4b694361-645f-4457-9370-33325f4c6f74,rev?*%
%TF.SameCoordinates,Original*%
%TF.FileFunction,Copper,L2,Bot*%
%TF.FilePolarity,Positive*%
%FSLAX46Y46*%
G04 Gerber Fmt 4.6, Leading zero omitted, Abs format (unit mm)*
G04 Created by KiCad (PCBNEW 7.0.10) date 2026-01-21 09:32:35*
%MOMM*%
%LPD*%
G01*
G04 APERTURE LIST*
G04 Aperture macros list*
%AMRoundRect*
0 Rectangle with rounded corners*
0 $1 Rounding radius*
0 $2 $3 $4 $5 $6 $7 $8 $9 X,Y pos of 4 corners*
0 Add a 4 corners polygon primitive as box body*
4,1,4,$2,$3,$4,$5,$6,$7,$8,$9,$2,$3,0*
0 Add four circle primitives for the rounded corners*
1,1,$1+$1,$2,$3*
1,1,$1+$1,$4,$5*
1,1,$1+$1,$6,$7*
1,1,$1+$1,$8,$9*
0 Add four rect primitives between the rounded corners*
20,1,$1+$1,$2,$3,$4,$5,0*
20,1,$1+$1,$4,$5,$6,$7,0*
20,1,$1+$1,$6,$7,$8,$9,0*
20,1,$1+$1,$8,$9,$2,$3,0*%
G04 Aperture macros list end*
%TA.AperFunction,ComponentPad*%
%ADD10C,0.800000*%
%TD*%
%TA.AperFunction,ComponentPad*%
%ADD11C,6.400000*%
%TD*%
%TA.AperFunction,ComponentPad*%
%ADD12C,1.600000*%
%TD*%
%TA.AperFunction,ComponentPad*%
%ADD13O,1.600000X1.600000*%
%TD*%
%TA.AperFunction,ComponentPad*%
%ADD14RoundRect,0.250000X0.620000X0.845000X-0.620000X0.845000X-0.620000X-0.845000X0.620000X-0.845000X0*%
%TD*%
%TA.AperFunction,ComponentPad*%
%ADD15O,1.740000X2.190000*%
%TD*%
%TA.AperFunction,ComponentPad*%
%ADD16R,3.500000X3.500000*%
%TD*%
%TA.AperFunction,ComponentPad*%
%ADD17RoundRect,0.750000X1.000000X-0.750000X1.000000X0.750000X-1.000000X0.750000X-1.000000X-0.750000X0*%
%TD*%
%TA.AperFunction,ComponentPad*%
%ADD18RoundRect,0.875000X0.875000X-0.875000X0.875000X0.875000X-0.875000X0.875000X-0.875000X-0.875000X0*%
%TD*%
%TA.AperFunction,ComponentPad*%
%ADD19R,1.600000X1.600000*%
%TD*%
%TA.AperFunction,ComponentPad*%
%ADD20O,2.000000X3.500000*%
%TD*%
%TA.AperFunction,ComponentPad*%
%ADD21O,4.000000X2.000000*%
%TD*%
%TA.AperFunction,ComponentPad*%
%ADD22R,2.000000X2.000000*%
%TD*%
%TA.AperFunction,ComponentPad*%
%ADD23C,2.000000*%
%TD*%
%TA.AperFunction,ComponentPad*%
%ADD24C,1.530000*%
%TD*%
%TA.AperFunction,ComponentPad*%
%ADD25R,1.530000X1.530000*%
%TD*%
%TA.AperFunction,ViaPad*%
%ADD26C,0.800000*%
%TD*%
%TA.AperFunction,Conductor*%
%ADD27C,0.250000*%
%TD*%
G04 APERTURE END LIST*
D10*
%TO.P,H3,1*%
%TO.N,N/C*%
X74087056Y-70692944D03*
X72390000Y-69990000D03*
D11*
X72390000Y-72390000D03*
D10*
X70692944Y-70692944D03*
X70692944Y-74087056D03*
X69990000Y-72390000D03*
X72390000Y-74790000D03*
X74087056Y-74087056D03*
X74790000Y-72390000D03*
%TD*%
D12*
%TO.P,R8,1*%
%TO.N,EN*%
X66040000Y-41910000D03*
D13*
%TO.P,R8,2*%
%TO.N,+3.3V*%
X66040000Y-52070000D03*
%TD*%
D14*
%TO.P,J4,1,Pin_1*%
%TO.N,EN*%
X50800000Y-30480000D03*
D15*
%TO.P,J4,2,Pin_2*%
%TO.N,GND*%
X48260000Y-30480000D03*
%TD*%
D14*
%TO.P,J5,1,Pin_1*%
%TO.N,SCL*%
X40259000Y-30480000D03*
D15*
%TO.P,J5,2,Pin_2*%
%TO.N,SDA*%
X37719000Y-30480000D03*
%TO.P,J5,3,Pin_3*%
%TO.N,+5V*%
X35179000Y-30480000D03*
%TO.P,J5,4,Pin_4*%
%TO.N,GND*%
X32639000Y-30480000D03*
%TD*%
D12*
%TO.P,R5,1*%
%TO.N,+3.3V*%
X45853332Y-41910000D03*
D13*
%TO.P,R5,2*%
%TO.N,PS2-Data*%
X45853332Y-52070000D03*
%TD*%
D16*
%TO.P,J3,1,Pin_1*%
%TO.N,+5V*%
X44058870Y-63311280D03*
D17*
%TO.P,J3,2,Pin_2*%
%TO.N,GND*%
X44058870Y-69311280D03*
D18*
%TO.P,J3,3*%
%TO.N,N/C*%
X48758870Y-66311280D03*
%TD*%
D10*
%TO.P,H1,1*%
%TO.N,N/C*%
X25400000Y-28080000D03*
X27097056Y-32177056D03*
X27800000Y-30480000D03*
X23000000Y-30480000D03*
X27097056Y-28782944D03*
X23702944Y-32177056D03*
X25400000Y-32880000D03*
D11*
X25400000Y-30480000D03*
D10*
X23702944Y-28782944D03*
%TD*%
D19*
%TO.P,J1,1,Data*%
%TO.N,Net-(J1-Pad1)*%
X61007541Y-68302941D03*
D12*
%TO.P,J1,2*%
%TO.N,unconnected-(J1-Pad2)*%
X58407541Y-68302941D03*
%TO.P,J1,3,GND*%
%TO.N,GND*%
X63107541Y-68302941D03*
%TO.P,J1,4,+5V*%
%TO.N,+5V*%
X56307541Y-68302941D03*
%TO.P,J1,5,CLK*%
%TO.N,Net-(J1-Pad5)*%
X63107541Y-65502941D03*
%TO.P,J1,6*%
%TO.N,unconnected-(J1-Pad6)*%
X56307541Y-65502941D03*
D20*
%TO.P,J1,7,GND*%
%TO.N,GND*%
X52857541Y-71152941D03*
X66557541Y-71152941D03*
D21*
X59707541Y-71952941D03*
%TD*%
D10*
%TO.P,H2,1*%
%TO.N,N/C*%
X74087056Y-32177056D03*
X72390000Y-32880000D03*
X72390000Y-28080000D03*
X69990000Y-30480000D03*
D11*
X72390000Y-30480000D03*
D10*
X74087056Y-28782944D03*
X70692944Y-28782944D03*
X70692944Y-32177056D03*
X74790000Y-30480000D03*
%TD*%
D12*
%TO.P,R4,1*%
%TO.N,+5V*%
X36830000Y-41910000D03*
D13*
%TO.P,R4,2*%
%TO.N,Net-(J1-Pad1)*%
X36830000Y-52070000D03*
%TD*%
D12*
%TO.P,R2,1*%
%TO.N,+5V*%
X51568330Y-41910000D03*
D13*
%TO.P,R2,2*%
%TO.N,Net-(J1-Pad5)*%
X51568330Y-52070000D03*
%TD*%
D22*
%TO.P,C1,1*%
%TO.N,+5V*%
X30927924Y-66955043D03*
D23*
%TO.P,C1,2*%
%TO.N,GND*%
X35927924Y-66955043D03*
%TD*%
D10*
%TO.P,H4,1*%
%TO.N,N/C*%
X23702944Y-70692944D03*
X27800000Y-72390000D03*
X27097056Y-70692944D03*
X25400000Y-69990000D03*
X23702944Y-74087056D03*
X27097056Y-74087056D03*
D11*
X25400000Y-72390000D03*
D10*
X23000000Y-72390000D03*
X25400000Y-74790000D03*
%TD*%
D14*
%TO.P,J2,1,Pin_1*%
%TO.N,+5V*%
X64770000Y-30480000D03*
D15*
%TO.P,J2,2,Pin_2*%
%TO.N,GND*%
X62230000Y-30480000D03*
%TO.P,J2,3,Pin_3*%
%TO.N,DIN*%
X59690000Y-30480000D03*
%TO.P,J2,4,Pin_4*%
%TO.N,CS*%
X57150000Y-30480000D03*
%TO.P,J2,5,Pin_5*%
%TO.N,CLK*%
X54610000Y-30480000D03*
%TD*%
D24*
%TO.P,U2,38,GND3*%
%TO.N,GND*%
X69085475Y-59518806D03*
%TO.P,U2,37,IO23*%
%TO.N,DIN*%
X66545475Y-59518806D03*
%TO.P,U2,36,IO22*%
%TO.N,SCL*%
X64005475Y-59518806D03*
%TO.P,U2,35,TXD0*%
%TO.N,unconnected-(U2-Pad35)*%
X61465475Y-59518806D03*
%TO.P,U2,34,RXD0*%
%TO.N,unconnected-(U2-Pad34)*%
X58925475Y-59518806D03*
%TO.P,U2,33,IO21*%
%TO.N,SDA*%
X56385475Y-59518806D03*
%TO.P,U2,32,GND2*%
%TO.N,GND*%
X53845475Y-59518806D03*
%TO.P,U2,31,IO19*%
%TO.N,unconnected-(U2-Pad31)*%
X51305475Y-59518806D03*
%TO.P,U2,30,IO18*%
%TO.N,CLK*%
X48765475Y-59518806D03*
%TO.P,U2,29,IO5*%
%TO.N,CS*%
X46225475Y-59518806D03*
%TO.P,U2,28,IO17*%
%TO.N,unconnected-(U2-Pad28)*%
X43685475Y-59518806D03*
%TO.P,U2,27,IO16*%
%TO.N,unconnected-(U2-Pad27)*%
X41145475Y-59518806D03*
%TO.P,U2,26,IO4*%
%TO.N,unconnected-(U2-Pad26)*%
X38605475Y-59518806D03*
%TO.P,U2,25,IO0*%
%TO.N,unconnected-(U2-Pad25)*%
X36065475Y-59518806D03*
%TO.P,U2,24,IO2*%
%TO.N,unconnected-(U2-Pad24)*%
X33525475Y-59518806D03*
%TO.P,U2,23,IO15*%
%TO.N,unconnected-(U2-Pad23)*%
X30985475Y-59518806D03*
%TO.P,U2,22,SD1*%
%TO.N,unconnected-(U2-Pad22)*%
X28445475Y-59518806D03*
%TO.P,U2,21,SD0*%
%TO.N,unconnected-(U2-Pad21)*%
X25905475Y-59518806D03*
%TO.P,U2,20,CLK*%
%TO.N,unconnected-(U2-Pad20)*%
X23365475Y-59518806D03*
%TO.P,U2,19,EXT_5V*%
%TO.N,+5V*%
X23355475Y-36658806D03*
%TO.P,U2,18,CMD*%
%TO.N,unconnected-(U2-Pad18)*%
X25895475Y-36658806D03*
%TO.P,U2,17,SD3*%
%TO.N,unconnected-(U2-Pad17)*%
X28435475Y-36658806D03*
%TO.P,U2,16,SD2*%
%TO.N,unconnected-(U2-Pad16)*%
X30975475Y-36658806D03*
%TO.P,U2,15,IO13*%
%TO.N,unconnected-(U2-Pad15)*%
X33515475Y-36658806D03*
%TO.P,U2,14,GND1*%
%TO.N,GND*%
X36055475Y-36658806D03*
%TO.P,U2,13,IO12*%
%TO.N,unconnected-(U2-Pad13)*%
X38595475Y-36658806D03*
%TO.P,U2,12,IO14*%
%TO.N,unconnected-(U2-Pad12)*%
X41135475Y-36658806D03*
%TO.P,U2,11,IO27*%
%TO.N,unconnected-(U2-Pad11)*%
X43675475Y-36658806D03*
%TO.P,U2,10,IO26*%
%TO.N,unconnected-(U2-Pad10)*%
X46215475Y-36658806D03*
%TO.P,U2,9,IO25*%
%TO.N,unconnected-(U2-Pad9)*%
X48755475Y-36658806D03*
%TO.P,U2,8,IO33*%
%TO.N,unconnected-(U2-Pad8)*%
X51295475Y-36658806D03*
%TO.P,U2,7,IO32*%
%TO.N,unconnected-(U2-Pad7)*%
X53835475Y-36658806D03*
%TO.P,U2,6,IO35*%
%TO.N,unconnected-(U2-Pad6)*%
X56375475Y-36658806D03*
%TO.P,U2,5,IO34*%
%TO.N,unconnected-(U2-Pad5)*%
X58915475Y-36658806D03*
%TO.P,U2,4,IO39*%
%TO.N,PS2-CLK*%
X61455475Y-36658806D03*
%TO.P,U2,3,IO36*%
%TO.N,PS2-Data*%
X63995475Y-36658806D03*
%TO.P,U2,2,EN*%
%TO.N,EN*%
X66535475Y-36658806D03*
D25*
%TO.P,U2,1,3V3*%
%TO.N,+3.3V*%
X69075475Y-36658806D03*
%TD*%
D12*
%TO.P,R3,1*%
%TO.N,+3.3V*%
X60591662Y-41910000D03*
D13*
%TO.P,R3,2*%
%TO.N,PS2-CLK*%
X60591662Y-52070000D03*
%TD*%
D26*
%TO.N,PS2-CLK*%
X55118000Y-53213000D03*
%TO.N,PS2-Data*%
X40386000Y-53213000D03*
%TD*%
D27*
%TO.N,DIN*%
X70493208Y-61076000D02*
X67680000Y-61076000D01*
X56272000Y-34809000D02*
X70113604Y-34809000D01*
X52832000Y-29464000D02*
X52832000Y-31369000D01*
X53721000Y-28575000D02*
X52832000Y-29464000D01*
X59690000Y-30480000D02*
X59690000Y-29464000D01*
X71432000Y-36127396D02*
X71432000Y-60137208D01*
X59690000Y-29464000D02*
X58801000Y-28575000D01*
X70113604Y-34809000D02*
X71432000Y-36127396D01*
X66545475Y-59941475D02*
X66545475Y-59518806D01*
X58801000Y-28575000D02*
X53721000Y-28575000D01*
X67680000Y-61076000D02*
X66545475Y-59941475D01*
X71432000Y-60137208D02*
X70493208Y-61076000D01*
X52832000Y-31369000D02*
X56272000Y-34809000D01*
%TO.N,CS*%
X57150000Y-32383604D02*
X58675396Y-33909000D01*
X72332000Y-35754604D02*
X72332000Y-60510000D01*
X72332000Y-60510000D02*
X70866000Y-61976000D01*
X58675396Y-33909000D02*
X70486396Y-33909000D01*
X70486396Y-33909000D02*
X72332000Y-35754604D01*
X70866000Y-61976000D02*
X47879000Y-61976000D01*
X46225475Y-60322475D02*
X46225475Y-59518806D01*
X57150000Y-30480000D02*
X57150000Y-32383604D01*
X47879000Y-61976000D02*
X46225475Y-60322475D01*
%TO.N,PS2-CLK*%
X61455475Y-36658806D02*
X62611000Y-37814331D01*
X59448662Y-53213000D02*
X60591662Y-52070000D01*
X55118000Y-53213000D02*
X59448662Y-53213000D01*
X62611000Y-50050662D02*
X60591662Y-52070000D01*
X62611000Y-37814331D02*
X62611000Y-50050662D01*
%TO.N,PS2-Data*%
X43688000Y-53213000D02*
X44710332Y-53213000D01*
X40386000Y-53213000D02*
X43688000Y-53213000D01*
X48483952Y-35259000D02*
X47508766Y-36234186D01*
X44710332Y-53213000D02*
X45853332Y-52070000D01*
X62595669Y-35259000D02*
X48483952Y-35259000D01*
X63995475Y-36658806D02*
X62595669Y-35259000D01*
X47508766Y-36234186D02*
X47508766Y-50414566D01*
X47508766Y-50414566D02*
X45853332Y-52070000D01*
%TO.N,CLK*%
X54610000Y-32510604D02*
X56458396Y-34359000D01*
X71882000Y-35941000D02*
X71882000Y-60323604D01*
X70679604Y-61526000D02*
X50772669Y-61526000D01*
X71882000Y-60323604D02*
X70679604Y-61526000D01*
X50772669Y-61526000D02*
X48765475Y-59518806D01*
X56458396Y-34359000D02*
X70300000Y-34359000D01*
X70300000Y-34359000D02*
X71882000Y-35941000D01*
X54610000Y-30480000D02*
X54610000Y-32510604D01*
%TO.N,SCL*%
X61780000Y-56700000D02*
X64005475Y-58925475D01*
X34842262Y-54400262D02*
X37142000Y-56700000D01*
X34842262Y-35896738D02*
X34842262Y-54400262D01*
X40259000Y-30480000D02*
X34842262Y-35896738D01*
X37142000Y-56700000D02*
X61780000Y-56700000D01*
X64005475Y-58925475D02*
X64005475Y-59518806D01*
%TO.N,SDA*%
X32258000Y-36068000D02*
X37719000Y-30607000D01*
X54016669Y-57150000D02*
X36955604Y-57150000D01*
X36955604Y-57150000D02*
X32258000Y-52452396D01*
X56385475Y-59518806D02*
X54016669Y-57150000D01*
X32258000Y-52452396D02*
X32258000Y-36068000D01*
X37719000Y-30607000D02*
X37719000Y-30480000D01*
%TD*%
%TA.AperFunction,Conductor*%
%TO.N,GND*%
G36*
X74933525Y-25400697D02*
G01*
X75045674Y-25406996D01*
X75214224Y-25417192D01*
X75227707Y-25418740D01*
X75359684Y-25441164D01*
X75361061Y-25441407D01*
X75506104Y-25467988D01*
X75518250Y-25470842D01*
X75650720Y-25509006D01*
X75653297Y-25509779D01*
X75790072Y-25552400D01*
X75800774Y-25556275D01*
X75880227Y-25589186D01*
X75929674Y-25609668D01*
X75933122Y-25611157D01*
X76058723Y-25667685D01*
X76062217Y-25669258D01*
X76071451Y-25673878D01*
X76194350Y-25741802D01*
X76198487Y-25744194D01*
X76318926Y-25817002D01*
X76326638Y-25822059D01*
X76441509Y-25903564D01*
X76446285Y-25907127D01*
X76556702Y-25993633D01*
X76562955Y-25998867D01*
X76668086Y-26092817D01*
X76673222Y-26097673D01*
X76772325Y-26196776D01*
X76777181Y-26201912D01*
X76871131Y-26307043D01*
X76876365Y-26313296D01*
X76962871Y-26423713D01*
X76966447Y-26428506D01*
X77047929Y-26543344D01*
X77052996Y-26551072D01*
X77125780Y-26671470D01*
X77128216Y-26675682D01*
X77153940Y-26722226D01*
X77196120Y-26798547D01*
X77200740Y-26807781D01*
X77258821Y-26936830D01*
X77260330Y-26940324D01*
X77313719Y-27069214D01*
X77317606Y-27079948D01*
X77360215Y-27216688D01*
X77360996Y-27219292D01*
X77399153Y-27351738D01*
X77402013Y-27363907D01*
X77428570Y-27508822D01*
X77428854Y-27510428D01*
X77451257Y-27642284D01*
X77452807Y-27655782D01*
X77462990Y-27824127D01*
X77463022Y-27824669D01*
X77469302Y-27936473D01*
X77469500Y-27943539D01*
X77469500Y-74926460D01*
X77469302Y-74933526D01*
X77463022Y-75045329D01*
X77462990Y-75045871D01*
X77452807Y-75214216D01*
X77451257Y-75227714D01*
X77428854Y-75359570D01*
X77428570Y-75361176D01*
X77402013Y-75506091D01*
X77399153Y-75518260D01*
X77360996Y-75650706D01*
X77360215Y-75653310D01*
X77317606Y-75790050D01*
X77313719Y-75800784D01*
X77260330Y-75929674D01*
X77258821Y-75933168D01*
X77200740Y-76062217D01*
X77196120Y-76071451D01*
X77128231Y-76194290D01*
X77125780Y-76198528D01*
X77052996Y-76318926D01*
X77047929Y-76326654D01*
X76966447Y-76441492D01*
X76962871Y-76446285D01*
X76876365Y-76556702D01*
X76871131Y-76562955D01*
X76777181Y-76668086D01*
X76772325Y-76673222D01*
X76673222Y-76772325D01*
X76668086Y-76777181D01*
X76562955Y-76871131D01*
X76556702Y-76876365D01*
X76446285Y-76962871D01*
X76441492Y-76966447D01*
X76326654Y-77047929D01*
X76318926Y-77052996D01*
X76198528Y-77125780D01*
X76194290Y-77128231D01*
X76071451Y-77196120D01*
X76062217Y-77200740D01*
X75933168Y-77258821D01*
X75929674Y-77260330D01*
X75800784Y-77313719D01*
X75790050Y-77317606D01*
X75653310Y-77360215D01*
X75650706Y-77360996D01*
X75518260Y-77399153D01*
X75506091Y-77402013D01*
X75361176Y-77428570D01*
X75359570Y-77428854D01*
X75227714Y-77451257D01*
X75214216Y-77452807D01*
X75045871Y-77462990D01*
X75045329Y-77463022D01*
X74939992Y-77468938D01*
X74933524Y-77469302D01*
X74926461Y-77469500D01*
X22863539Y-77469500D01*
X22856475Y-77469302D01*
X22849383Y-77468903D01*
X22744669Y-77463022D01*
X22744127Y-77462990D01*
X22575782Y-77452807D01*
X22562284Y-77451257D01*
X22430428Y-77428854D01*
X22428822Y-77428570D01*
X22283907Y-77402013D01*
X22271738Y-77399153D01*
X22139292Y-77360996D01*
X22136688Y-77360215D01*
X21999948Y-77317606D01*
X21989214Y-77313719D01*
X21860324Y-77260330D01*
X21856830Y-77258821D01*
X21727781Y-77200740D01*
X21718547Y-77196120D01*
X21642226Y-77153940D01*
X21595682Y-77128216D01*
X21591470Y-77125780D01*
X21471072Y-77052996D01*
X21463344Y-77047929D01*
X21348506Y-76966447D01*
X21343713Y-76962871D01*
X21233296Y-76876365D01*
X21227043Y-76871131D01*
X21121912Y-76777181D01*
X21116776Y-76772325D01*
X21017673Y-76673222D01*
X21012817Y-76668086D01*
X20918867Y-76562955D01*
X20913633Y-76556702D01*
X20827127Y-76446285D01*
X20823564Y-76441509D01*
X20742059Y-76326638D01*
X20737002Y-76318926D01*
X20664194Y-76198487D01*
X20661802Y-76194350D01*
X20593878Y-76071451D01*
X20589258Y-76062217D01*
X20571355Y-76022438D01*
X20531157Y-75933122D01*
X20529668Y-75929674D01*
X20476279Y-75800784D01*
X20472400Y-75790072D01*
X20429779Y-75653297D01*
X20429002Y-75650706D01*
X20424307Y-75634409D01*
X20390842Y-75518250D01*
X20387988Y-75506104D01*
X20361407Y-75361061D01*
X20361164Y-75359684D01*
X20338740Y-75227707D01*
X20337191Y-75214216D01*
X20326996Y-75045675D01*
X20320697Y-74933525D01*
X20320500Y-74926462D01*
X20320500Y-72390006D01*
X21686411Y-72390006D01*
X21706752Y-72778167D01*
X21767561Y-73162097D01*
X21868168Y-73537568D01*
X22007463Y-73900443D01*
X22007467Y-73900451D01*
X22183938Y-74246795D01*
X22395637Y-74572785D01*
X22395649Y-74572802D01*
X22640253Y-74874862D01*
X22640267Y-74874877D01*
X22915122Y-75149732D01*
X22915137Y-75149746D01*
X23217197Y-75394350D01*
X23217214Y-75394362D01*
X23372326Y-75495092D01*
X23543205Y-75606062D01*
X23889547Y-75782532D01*
X23889551Y-75782533D01*
X23889556Y-75782536D01*
X24252431Y-75921831D01*
X24252436Y-75921832D01*
X24252438Y-75921833D01*
X24627901Y-76022438D01*
X25011824Y-76083246D01*
X25011826Y-76083246D01*
X25011832Y-76083247D01*
X25399994Y-76103589D01*
X25400000Y-76103589D01*
X25400006Y-76103589D01*
X25788167Y-76083247D01*
X25788171Y-76083246D01*
X25788176Y-76083246D01*
X26172099Y-76022438D01*
X26547562Y-75921833D01*
X26547565Y-75921831D01*
X26547568Y-75921831D01*
X26910443Y-75782536D01*
X26910444Y-75782535D01*
X26910453Y-75782532D01*
X27256795Y-75606062D01*
X27582793Y-75394357D01*
X27623910Y-75361061D01*
X27884862Y-75149746D01*
X27884867Y-75149740D01*
X27884876Y-75149734D01*
X28159734Y-74874876D01*
X28159740Y-74874867D01*
X28159746Y-74874862D01*
X28404350Y-74572802D01*
X28404351Y-74572799D01*
X28404357Y-74572793D01*
X28616062Y-74246795D01*
X28792532Y-73900453D01*
X28931833Y-73537562D01*
X29032438Y-73162099D01*
X29093246Y-72778176D01*
X29093246Y-72778171D01*
X29093247Y-72778167D01*
X29113589Y-72390006D01*
X68676411Y-72390006D01*
X68696752Y-72778167D01*
X68757561Y-73162097D01*
X68858168Y-73537568D01*
X68997463Y-73900443D01*
X68997467Y-73900451D01*
X69173938Y-74246795D01*
X69385637Y-74572785D01*
X69385649Y-74572802D01*
X69630253Y-74874862D01*
X69630267Y-74874877D01*
X69905122Y-75149732D01*
X69905137Y-75149746D01*
X70207197Y-75394350D01*
X70207214Y-75394362D01*
X70362326Y-75495092D01*
X70533205Y-75606062D01*
X70879547Y-75782532D01*
X70879551Y-75782533D01*
X70879556Y-75782536D01*
X71242431Y-75921831D01*
X71242436Y-75921832D01*
X71242438Y-75921833D01*
X71617901Y-76022438D01*
X72001824Y-76083246D01*
X72001826Y-76083246D01*
X72001832Y-76083247D01*
X72389994Y-76103589D01*
X72390000Y-76103589D01*
X72390006Y-76103589D01*
X72778167Y-76083247D01*
X72778171Y-76083246D01*
X72778176Y-76083246D01*
X73162099Y-76022438D01*
X73537562Y-75921833D01*
X73537565Y-75921831D01*
X73537568Y-75921831D01*
X73900443Y-75782536D01*
X73900444Y-75782535D01*
X73900453Y-75782532D01*
X74246795Y-75606062D01*
X74572793Y-75394357D01*
X74613910Y-75361061D01*
X74874862Y-75149746D01*
X74874867Y-75149740D01*
X74874876Y-75149734D01*
X75149734Y-74874876D01*
X75149740Y-74874867D01*
X75149746Y-74874862D01*
X75394350Y-74572802D01*
X75394351Y-74572799D01*
X75394357Y-74572793D01*
X75606062Y-74246795D01*
X75782532Y-73900453D01*
X75921833Y-73537562D01*
X76022438Y-73162099D01*
X76083246Y-72778176D01*
X76083246Y-72778171D01*
X76083247Y-72778167D01*
X76103589Y-72390006D01*
X76103589Y-72389993D01*
X76083247Y-72001832D01*
X76022438Y-71617902D01*
X75921831Y-71242431D01*
X75782536Y-70879556D01*
X75782532Y-70879548D01*
X75782532Y-70879547D01*
X75606062Y-70533206D01*
X75394357Y-70207207D01*
X75394354Y-70207203D01*
X75394352Y-70207200D01*
X75149746Y-69905137D01*
X75149732Y-69905122D01*
X74874877Y-69630267D01*
X74874862Y-69630253D01*
X74572802Y-69385649D01*
X74572785Y-69385637D01*
X74246795Y-69173938D01*
X73900451Y-68997467D01*
X73900443Y-68997463D01*
X73537568Y-68858168D01*
X73162097Y-68757561D01*
X72778167Y-68696752D01*
X72390006Y-68676411D01*
X72389994Y-68676411D01*
X72001832Y-68696752D01*
X71617902Y-68757561D01*
X71242431Y-68858168D01*
X70879556Y-68997463D01*
X70879548Y-68997467D01*
X70533205Y-69173938D01*
X70207203Y-69385645D01*
X70207200Y-69385647D01*
X69905137Y-69630253D01*
X69905122Y-69630267D01*
X69630267Y-69905122D01*
X69630253Y-69905137D01*
X69385647Y-70207200D01*
X69385645Y-70207203D01*
X69173938Y-70533205D01*
X68997467Y-70879548D01*
X68997463Y-70879556D01*
X68858168Y-71242431D01*
X68757561Y-71617902D01*
X68696752Y-72001832D01*
X68676411Y-72389993D01*
X68676411Y-72390006D01*
X29113589Y-72390006D01*
X29113589Y-72389993D01*
X29093247Y-72001832D01*
X29032438Y-71617902D01*
X28931831Y-71242431D01*
X28792536Y-70879556D01*
X28792532Y-70879548D01*
X28792532Y-70879547D01*
X28616062Y-70533206D01*
X28404357Y-70207207D01*
X28404354Y-70207203D01*
X28404352Y-70207200D01*
X28159746Y-69905137D01*
X28159732Y-69905122D01*
X27884877Y-69630267D01*
X27884862Y-69630253D01*
X27582802Y-69385649D01*
X27582785Y-69385637D01*
X27256795Y-69173938D01*
X26910451Y-68997467D01*
X26910443Y-68997463D01*
X26547568Y-68858168D01*
X26172097Y-68757561D01*
X25788167Y-68696752D01*
X25400006Y-68676411D01*
X25399994Y-68676411D01*
X25011832Y-68696752D01*
X24627902Y-68757561D01*
X24252431Y-68858168D01*
X23889556Y-68997463D01*
X23889548Y-68997467D01*
X23543205Y-69173938D01*
X23217203Y-69385645D01*
X23217200Y-69385647D01*
X22915137Y-69630253D01*
X22915122Y-69630267D01*
X22640267Y-69905122D01*
X22640253Y-69905137D01*
X22395647Y-70207200D01*
X22395645Y-70207203D01*
X22183938Y-70533205D01*
X22007467Y-70879548D01*
X22007463Y-70879556D01*
X21868168Y-71242431D01*
X21767561Y-71617902D01*
X21706752Y-72001832D01*
X21686411Y-72389993D01*
X21686411Y-72390006D01*
X20320500Y-72390006D01*
X20320500Y-68003692D01*
X29419424Y-68003692D01*
X29425933Y-68064239D01*
X29425935Y-68064247D01*
X29477034Y-68201245D01*
X29477036Y-68201250D01*
X29564662Y-68318304D01*
X29681716Y-68405930D01*
X29681718Y-68405931D01*
X29681720Y-68405932D01*
X29740799Y-68427967D01*
X29818719Y-68457031D01*
X29818727Y-68457033D01*
X29879274Y-68463542D01*
X29879279Y-68463542D01*
X29879286Y-68463543D01*
X29879292Y-68463543D01*
X31976556Y-68463543D01*
X31976562Y-68463543D01*
X31976569Y-68463542D01*
X31976573Y-68463542D01*
X32037120Y-68457033D01*
X32037123Y-68457032D01*
X32037125Y-68457032D01*
X32174128Y-68405932D01*
X32291185Y-68318304D01*
X32378813Y-68201247D01*
X32429913Y-68064244D01*
X32436424Y-68003681D01*
X32436424Y-65906405D01*
X32436423Y-65906393D01*
X32429914Y-65845846D01*
X32429912Y-65845838D01*
X32378813Y-65708840D01*
X32378811Y-65708835D01*
X32291185Y-65591781D01*
X32174131Y-65504155D01*
X32174126Y-65504153D01*
X32037128Y-65453054D01*
X32037120Y-65453052D01*
X31976573Y-65446543D01*
X31976562Y-65446543D01*
X29879286Y-65446543D01*
X29879274Y-65446543D01*
X29818727Y-65453052D01*
X29818719Y-65453054D01*
X29681721Y-65504153D01*
X29681716Y-65504155D01*
X29564662Y-65591781D01*
X29477036Y-65708835D01*
X29477034Y-65708840D01*
X29425935Y-65845838D01*
X29425933Y-65845846D01*
X29419424Y-65906393D01*
X29419424Y-68003692D01*
X20320500Y-68003692D01*
X20320500Y-36658806D01*
X22077110Y-36658806D01*
X22096531Y-36880792D01*
X22126339Y-36992037D01*
X22154204Y-37096031D01*
X22154206Y-37096036D01*
X22248377Y-37297988D01*
X22376193Y-37480526D01*
X22533754Y-37638087D01*
X22533757Y-37638089D01*
X22533758Y-37638090D01*
X22716292Y-37765903D01*
X22918248Y-37860076D01*
X23133489Y-37917750D01*
X23355475Y-37937171D01*
X23577461Y-37917750D01*
X23792702Y-37860076D01*
X23994658Y-37765903D01*
X24177192Y-37638090D01*
X24334759Y-37480523D01*
X24462572Y-37297989D01*
X24511280Y-37193534D01*
X24558197Y-37140248D01*
X24626474Y-37120787D01*
X24694434Y-37141328D01*
X24739670Y-37193534D01*
X24788375Y-37297984D01*
X24788377Y-37297987D01*
X24788378Y-37297989D01*
X24827148Y-37353358D01*
X24916193Y-37480526D01*
X25073754Y-37638087D01*
X25073757Y-37638089D01*
X25073758Y-37638090D01*
X25256292Y-37765903D01*
X25458248Y-37860076D01*
X25673489Y-37917750D01*
X25895475Y-37937171D01*
X26117461Y-37917750D01*
X26332702Y-37860076D01*
X26534658Y-37765903D01*
X26717192Y-37638090D01*
X26874759Y-37480523D01*
X27002572Y-37297989D01*
X27051280Y-37193534D01*
X27098197Y-37140248D01*
X27166474Y-37120787D01*
X27234434Y-37141328D01*
X27279670Y-37193534D01*
X27328375Y-37297984D01*
X27328377Y-37297987D01*
X27328378Y-37297989D01*
X27367148Y-37353358D01*
X27456193Y-37480526D01*
X27613754Y-37638087D01*
X27613757Y-37638089D01*
X27613758Y-37638090D01*
X27796292Y-37765903D01*
X27998248Y-37860076D01*
X28213489Y-37917750D01*
X28435475Y-37937171D01*
X28657461Y-37917750D01*
X28872702Y-37860076D01*
X29074658Y-37765903D01*
X29257192Y-37638090D01*
X29414759Y-37480523D01*
X29542572Y-37297989D01*
X29591280Y-37193534D01*
X29638197Y-37140248D01*
X29706474Y-37120787D01*
X29774434Y-37141328D01*
X29819670Y-37193534D01*
X29868375Y-37297984D01*
X29868377Y-37297987D01*
X29868378Y-37297989D01*
X29907148Y-37353358D01*
X29996193Y-37480526D01*
X30153754Y-37638087D01*
X30153757Y-37638089D01*
X30153758Y-37638090D01*
X30336292Y-37765903D01*
X30538248Y-37860076D01*
X30753489Y-37917750D01*
X30975475Y-37937171D01*
X31197461Y-37917750D01*
X31412702Y-37860076D01*
X31445249Y-37844898D01*
X31515440Y-37834237D01*
X31580253Y-37863216D01*
X31619110Y-37922635D01*
X31624500Y-37959093D01*
X31624500Y-52368542D01*
X31622751Y-52384384D01*
X31623044Y-52384412D01*
X31622298Y-52392303D01*
X31624438Y-52460380D01*
X31624500Y-52464339D01*
X31624500Y-52492247D01*
X31624501Y-52492265D01*
X31625007Y-52496273D01*
X31625937Y-52508092D01*
X31627326Y-52552284D01*
X31627327Y-52552289D01*
X31632977Y-52571735D01*
X31636986Y-52591093D01*
X31639525Y-52611189D01*
X31639526Y-52611196D01*
X31655800Y-52652299D01*
X31659644Y-52663525D01*
X31671982Y-52705989D01*
X31682294Y-52723427D01*
X31690988Y-52741175D01*
X31698444Y-52760005D01*
X31698450Y-52760016D01*
X31724432Y-52795777D01*
X31730949Y-52805697D01*
X31753458Y-52843758D01*
X31753459Y-52843759D01*
X31753461Y-52843762D01*
X31767779Y-52858080D01*
X31780617Y-52873110D01*
X31792526Y-52889500D01*
X31792530Y-52889505D01*
X31826598Y-52917688D01*
X31835378Y-52925678D01*
X36448357Y-57538657D01*
X36458324Y-57551097D01*
X36458551Y-57550910D01*
X36463603Y-57557017D01*
X36513270Y-57603657D01*
X36516114Y-57606414D01*
X36535830Y-57626131D01*
X36539027Y-57628611D01*
X36548048Y-57636316D01*
X36580283Y-57666586D01*
X36580284Y-57666586D01*
X36580286Y-57666588D01*
X36598033Y-57676344D01*
X36614563Y-57687202D01*
X36630563Y-57699613D01*
X36671140Y-57717172D01*
X36681791Y-57722390D01*
X36720544Y-57743695D01*
X36740166Y-57748733D01*
X36758867Y-57755135D01*
X36771418Y-57760567D01*
X36777456Y-57763180D01*
X36777457Y-57763180D01*
X36777459Y-57763181D01*
X36821134Y-57770098D01*
X36832745Y-57772502D01*
X36875574Y-57783500D01*
X36895828Y-57783500D01*
X36915538Y-57785051D01*
X36917745Y-57785400D01*
X36935547Y-57788220D01*
X36979565Y-57784058D01*
X36991423Y-57783500D01*
X53702075Y-57783500D01*
X53770196Y-57803502D01*
X53791170Y-57820405D01*
X55104899Y-59134134D01*
X55138925Y-59196446D01*
X55137511Y-59255839D01*
X55126532Y-59296814D01*
X55126531Y-59296817D01*
X55126531Y-59296820D01*
X55107110Y-59518806D01*
X55126531Y-59740792D01*
X55148455Y-59822613D01*
X55184204Y-59956031D01*
X55184206Y-59956036D01*
X55278377Y-60157988D01*
X55406193Y-60340526D01*
X55563754Y-60498087D01*
X55563757Y-60498089D01*
X55563758Y-60498090D01*
X55746292Y-60625903D01*
X55746295Y-60625904D01*
X55746296Y-60625905D01*
X55802911Y-60652305D01*
X55856197Y-60699222D01*
X55875658Y-60767499D01*
X55855117Y-60835459D01*
X55801094Y-60881525D01*
X55749662Y-60892500D01*
X51941288Y-60892500D01*
X51873167Y-60872498D01*
X51826674Y-60818842D01*
X51816570Y-60748568D01*
X51846064Y-60683988D01*
X51888039Y-60652305D01*
X51917408Y-60638610D01*
X51944658Y-60625903D01*
X52127192Y-60498090D01*
X52284759Y-60340523D01*
X52412572Y-60157989D01*
X52506745Y-59956033D01*
X52564419Y-59740792D01*
X52583840Y-59518806D01*
X52564419Y-59296820D01*
X52506745Y-59081579D01*
X52412572Y-58879624D01*
X52284759Y-58697089D01*
X52284758Y-58697088D01*
X52284755Y-58697084D01*
X52127195Y-58539524D01*
X52090530Y-58513851D01*
X51944658Y-58411709D01*
X51944656Y-58411708D01*
X51944657Y-58411708D01*
X51742705Y-58317537D01*
X51742700Y-58317535D01*
X51638705Y-58289670D01*
X51527461Y-58259862D01*
X51305475Y-58240441D01*
X51083489Y-58259862D01*
X51039541Y-58271638D01*
X50868249Y-58317535D01*
X50868244Y-58317537D01*
X50666296Y-58411707D01*
X50483757Y-58539522D01*
X50483753Y-58539525D01*
X50326194Y-58697084D01*
X50326191Y-58697088D01*
X50198376Y-58879627D01*
X50149670Y-58984078D01*
X50102752Y-59037363D01*
X50034475Y-59056824D01*
X49966515Y-59036282D01*
X49921280Y-58984078D01*
X49872573Y-58879627D01*
X49872572Y-58879625D01*
X49872572Y-58879624D01*
X49744759Y-58697089D01*
X49744758Y-58697088D01*
X49744755Y-58697084D01*
X49587195Y-58539524D01*
X49550530Y-58513851D01*
X49404658Y-58411709D01*
X49404656Y-58411708D01*
X49404657Y-58411708D01*
X49202705Y-58317537D01*
X49202700Y-58317535D01*
X49098705Y-58289670D01*
X48987461Y-58259862D01*
X48765475Y-58240441D01*
X48543489Y-58259862D01*
X48499541Y-58271638D01*
X48328249Y-58317535D01*
X48328244Y-58317537D01*
X48126296Y-58411707D01*
X47943757Y-58539522D01*
X47943753Y-58539525D01*
X47786194Y-58697084D01*
X47786191Y-58697088D01*
X47658376Y-58879627D01*
X47609670Y-58984078D01*
X47562752Y-59037363D01*
X47494475Y-59056824D01*
X47426515Y-59036282D01*
X47381280Y-58984078D01*
X47332573Y-58879627D01*
X47332572Y-58879625D01*
X47332572Y-58879624D01*
X47204759Y-58697089D01*
X47204758Y-58697088D01*
X47204755Y-58697084D01*
X47047195Y-58539524D01*
X47010530Y-58513851D01*
X46864658Y-58411709D01*
X46864656Y-58411708D01*
X46864657Y-58411708D01*
X46662705Y-58317537D01*
X46662700Y-58317535D01*
X46558705Y-58289670D01*
X46447461Y-58259862D01*
X46225475Y-58240441D01*
X46003489Y-58259862D01*
X45959541Y-58271638D01*
X45788249Y-58317535D01*
X45788244Y-58317537D01*
X45586296Y-58411707D01*
X45403757Y-58539522D01*
X45403753Y-58539525D01*
X45246194Y-58697084D01*
X45246191Y-58697088D01*
X45118376Y-58879627D01*
X45069670Y-58984078D01*
X45022752Y-59037363D01*
X44954475Y-59056824D01*
X44886515Y-59036282D01*
X44841280Y-58984078D01*
X44792573Y-58879627D01*
X44792572Y-58879625D01*
X44792572Y-58879624D01*
X44664759Y-58697089D01*
X44664758Y-58697088D01*
X44664755Y-58697084D01*
X44507195Y-58539524D01*
X44470530Y-58513851D01*
X44324658Y-58411709D01*
X44324656Y-58411708D01*
X44324657Y-58411708D01*
X44122705Y-58317537D01*
X44122700Y-58317535D01*
X44018705Y-58289670D01*
X43907461Y-58259862D01*
X43685475Y-58240441D01*
X43463489Y-58259862D01*
X43419541Y-58271638D01*
X43248249Y-58317535D01*
X43248244Y-58317537D01*
X43046296Y-58411707D01*
X42863757Y-58539522D01*
X42863753Y-58539525D01*
X42706194Y-58697084D01*
X42706191Y-58697088D01*
X42578376Y-58879627D01*
X42529670Y-58984078D01*
X42482752Y-59037363D01*
X42414475Y-59056824D01*
X42346515Y-59036282D01*
X42301280Y-58984078D01*
X42252573Y-58879627D01*
X42252572Y-58879625D01*
X42252572Y-58879624D01*
X42124759Y-58697089D01*
X42124758Y-58697088D01*
X42124755Y-58697084D01*
X41967195Y-58539524D01*
X41930530Y-58513851D01*
X41784658Y-58411709D01*
X41784656Y-58411708D01*
X41784657Y-58411708D01*
X41582705Y-58317537D01*
X41582700Y-58317535D01*
X41478705Y-58289670D01*
X41367461Y-58259862D01*
X41145475Y-58240441D01*
X40923489Y-58259862D01*
X40879541Y-58271638D01*
X40708249Y-58317535D01*
X40708244Y-58317537D01*
X40506296Y-58411707D01*
X40323757Y-58539522D01*
X40323753Y-58539525D01*
X40166194Y-58697084D01*
X40166191Y-58697088D01*
X40038376Y-58879627D01*
X39989670Y-58984078D01*
X39942752Y-59037363D01*
X39874475Y-59056824D01*
X39806515Y-59036282D01*
X39761280Y-58984078D01*
X39712573Y-58879627D01*
X39712572Y-58879625D01*
X39712572Y-58879624D01*
X39584759Y-58697089D01*
X39584758Y-58697088D01*
X39584755Y-58697084D01*
X39427195Y-58539524D01*
X39390530Y-58513851D01*
X39244658Y-58411709D01*
X39244656Y-58411708D01*
X39244657Y-58411708D01*
X39042705Y-58317537D01*
X39042700Y-58317535D01*
X38938705Y-58289670D01*
X38827461Y-58259862D01*
X38605475Y-58240441D01*
X38383489Y-58259862D01*
X38339541Y-58271638D01*
X38168249Y-58317535D01*
X38168244Y-58317537D01*
X37966296Y-58411707D01*
X37783757Y-58539522D01*
X37783753Y-58539525D01*
X37626194Y-58697084D01*
X37626191Y-58697088D01*
X37498376Y-58879627D01*
X37449670Y-58984078D01*
X37402752Y-59037363D01*
X37334475Y-59056824D01*
X37266515Y-59036282D01*
X37221280Y-58984078D01*
X37172573Y-58879627D01*
X37172572Y-58879625D01*
X37172572Y-58879624D01*
X37044759Y-58697089D01*
X37044758Y-58697088D01*
X37044755Y-58697084D01*
X36887195Y-58539524D01*
X36850530Y-58513851D01*
X36704658Y-58411709D01*
X36704656Y-58411708D01*
X36704657Y-58411708D01*
X36502705Y-58317537D01*
X36502700Y-58317535D01*
X36398705Y-58289670D01*
X36287461Y-58259862D01*
X36065475Y-58240441D01*
X35843489Y-58259862D01*
X35799541Y-58271638D01*
X35628249Y-58317535D01*
X35628244Y-58317537D01*
X35426296Y-58411707D01*
X35243757Y-58539522D01*
X35243753Y-58539525D01*
X35086194Y-58697084D01*
X35086191Y-58697088D01*
X34958376Y-58879627D01*
X34909670Y-58984078D01*
X34862752Y-59037363D01*
X34794475Y-59056824D01*
X34726515Y-59036282D01*
X34681280Y-58984078D01*
X34632573Y-58879627D01*
X34632572Y-58879625D01*
X34632572Y-58879624D01*
X34504759Y-58697089D01*
X34504758Y-58697088D01*
X34504755Y-58697084D01*
X34347195Y-58539524D01*
X34310530Y-58513851D01*
X34164658Y-58411709D01*
X34164656Y-58411708D01*
X34164657Y-58411708D01*
X33962705Y-58317537D01*
X33962700Y-58317535D01*
X33858705Y-58289670D01*
X33747461Y-58259862D01*
X33525475Y-58240441D01*
X33303489Y-58259862D01*
X33259541Y-58271638D01*
X33088249Y-58317535D01*
X33088244Y-58317537D01*
X32886296Y-58411707D01*
X32703757Y-58539522D01*
X32703753Y-58539525D01*
X32546194Y-58697084D01*
X32546191Y-58697088D01*
X32418376Y-58879627D01*
X32369670Y-58984078D01*
X32322752Y-59037363D01*
X32254475Y-59056824D01*
X32186515Y-59036282D01*
X32141280Y-58984078D01*
X32092573Y-58879627D01*
X32092572Y-58879625D01*
X32092572Y-58879624D01*
X31964759Y-58697089D01*
X31964758Y-58697088D01*
X31964755Y-58697084D01*
X31807195Y-58539524D01*
X31770530Y-58513851D01*
X31624658Y-58411709D01*
X31624656Y-58411708D01*
X31624657Y-58411708D01*
X31422705Y-58317537D01*
X31422700Y-58317535D01*
X31318705Y-58289670D01*
X31207461Y-58259862D01*
X30985475Y-58240441D01*
X30763489Y-58259862D01*
X30719541Y-58271638D01*
X30548249Y-58317535D01*
X30548244Y-58317537D01*
X30346296Y-58411707D01*
X30163757Y-58539522D01*
X30163753Y-58539525D01*
X30006194Y-58697084D01*
X30006191Y-58697088D01*
X29878376Y-58879627D01*
X29829670Y-58984078D01*
X29782752Y-59037363D01*
X29714475Y-59056824D01*
X29646515Y-59036282D01*
X29601280Y-58984078D01*
X29552573Y-58879627D01*
X29552572Y-58879625D01*
X29552572Y-58879624D01*
X29424759Y-58697089D01*
X29424758Y-58697088D01*
X29424755Y-58697084D01*
X29267195Y-58539524D01*
X29230530Y-58513851D01*
X29084658Y-58411709D01*
X29084656Y-58411708D01*
X29084657Y-58411708D01*
X28882705Y-58317537D01*
X28882700Y-58317535D01*
X28778705Y-58289670D01*
X28667461Y-58259862D01*
X28445475Y-58240441D01*
X28223489Y-58259862D01*
X28179541Y-58271638D01*
X28008249Y-58317535D01*
X28008244Y-58317537D01*
X27806296Y-58411707D01*
X27623757Y-58539522D01*
X27623753Y-58539525D01*
X27466194Y-58697084D01*
X27466191Y-58697088D01*
X27338376Y-58879627D01*
X27289670Y-58984078D01*
X27242752Y-59037363D01*
X27174475Y-59056824D01*
X27106515Y-59036282D01*
X27061280Y-58984078D01*
X27012573Y-58879627D01*
X27012572Y-58879625D01*
X27012572Y-58879624D01*
X26884759Y-58697089D01*
X26884758Y-58697088D01*
X26884755Y-58697084D01*
X26727195Y-58539524D01*
X26690530Y-58513851D01*
X26544658Y-58411709D01*
X26544656Y-58411708D01*
X26544657Y-58411708D01*
X26342705Y-58317537D01*
X26342700Y-58317535D01*
X26238705Y-58289670D01*
X26127461Y-58259862D01*
X25905475Y-58240441D01*
X25683489Y-58259862D01*
X25639541Y-58271638D01*
X25468249Y-58317535D01*
X25468244Y-58317537D01*
X25266296Y-58411707D01*
X25083757Y-58539522D01*
X25083753Y-58539525D01*
X24926194Y-58697084D01*
X24926191Y-58697088D01*
X24798376Y-58879627D01*
X24749670Y-58984078D01*
X24702752Y-59037363D01*
X24634475Y-59056824D01*
X24566515Y-59036282D01*
X24521280Y-58984078D01*
X24472573Y-58879627D01*
X24472572Y-58879625D01*
X24472572Y-58879624D01*
X24344759Y-58697089D01*
X24344758Y-58697088D01*
X24344755Y-58697084D01*
X24187195Y-58539524D01*
X24150530Y-58513851D01*
X24004658Y-58411709D01*
X24004656Y-58411708D01*
X24004657Y-58411708D01*
X23802705Y-58317537D01*
X23802700Y-58317535D01*
X23698705Y-58289670D01*
X23587461Y-58259862D01*
X23365475Y-58240441D01*
X23143489Y-58259862D01*
X23099541Y-58271638D01*
X22928249Y-58317535D01*
X22928244Y-58317537D01*
X22726296Y-58411707D01*
X22543757Y-58539522D01*
X22543753Y-58539525D01*
X22386194Y-58697084D01*
X22386191Y-58697088D01*
X22258376Y-58879627D01*
X22164206Y-59081575D01*
X22164204Y-59081580D01*
X22136339Y-59185574D01*
X22106531Y-59296820D01*
X22087110Y-59518806D01*
X22106531Y-59740792D01*
X22128455Y-59822613D01*
X22164204Y-59956031D01*
X22164206Y-59956036D01*
X22258377Y-60157988D01*
X22386193Y-60340526D01*
X22543754Y-60498087D01*
X22543757Y-60498089D01*
X22543758Y-60498090D01*
X22726292Y-60625903D01*
X22928248Y-60720076D01*
X23143489Y-60777750D01*
X23365475Y-60797171D01*
X23587461Y-60777750D01*
X23802702Y-60720076D01*
X24004658Y-60625903D01*
X24187192Y-60498090D01*
X24344759Y-60340523D01*
X24472572Y-60157989D01*
X24521280Y-60053534D01*
X24568197Y-60000248D01*
X24636474Y-59980787D01*
X24704434Y-60001328D01*
X24749670Y-60053534D01*
X24798375Y-60157984D01*
X24798377Y-60157987D01*
X24926193Y-60340526D01*
X25083754Y-60498087D01*
X25083757Y-60498089D01*
X25083758Y-60498090D01*
X25266292Y-60625903D01*
X25468248Y-60720076D01*
X25683489Y-60777750D01*
X25905475Y-60797171D01*
X26127461Y-60777750D01*
X26342702Y-60720076D01*
X26544658Y-60625903D01*
X26727192Y-60498090D01*
X26884759Y-60340523D01*
X27012572Y-60157989D01*
X27061280Y-60053534D01*
X27108197Y-60000248D01*
X27176474Y-59980787D01*
X27244434Y-60001328D01*
X27289670Y-60053534D01*
X27338375Y-60157984D01*
X27338377Y-60157987D01*
X27466193Y-60340526D01*
X27623754Y-60498087D01*
X27623757Y-60498089D01*
X27623758Y-60498090D01*
X27806292Y-60625903D01*
X28008248Y-60720076D01*
X28223489Y-60777750D01*
X28445475Y-60797171D01*
X28667461Y-60777750D01*
X28882702Y-60720076D01*
X29084658Y-60625903D01*
X29267192Y-60498090D01*
X29424759Y-60340523D01*
X29552572Y-60157989D01*
X29601280Y-60053534D01*
X29648197Y-60000248D01*
X29716474Y-59980787D01*
X29784434Y-60001328D01*
X29829670Y-60053534D01*
X29878375Y-60157984D01*
X29878377Y-60157987D01*
X30006193Y-60340526D01*
X30163754Y-60498087D01*
X30163757Y-60498089D01*
X30163758Y-60498090D01*
X30346292Y-60625903D01*
X30548248Y-60720076D01*
X30763489Y-60777750D01*
X30985475Y-60797171D01*
X31207461Y-60777750D01*
X31422702Y-60720076D01*
X31624658Y-60625903D01*
X31807192Y-60498090D01*
X31964759Y-60340523D01*
X32092572Y-60157989D01*
X32141280Y-60053534D01*
X32188197Y-60000248D01*
X32256474Y-59980787D01*
X32324434Y-60001328D01*
X32369670Y-60053534D01*
X32418375Y-60157984D01*
X32418377Y-60157987D01*
X32546193Y-60340526D01*
X32703754Y-60498087D01*
X32703757Y-60498089D01*
X32703758Y-60498090D01*
X32886292Y-60625903D01*
X33088248Y-60720076D01*
X33303489Y-60777750D01*
X33525475Y-60797171D01*
X33747461Y-60777750D01*
X33962702Y-60720076D01*
X34164658Y-60625903D01*
X34347192Y-60498090D01*
X34504759Y-60340523D01*
X34632572Y-60157989D01*
X34681280Y-60053534D01*
X34728197Y-60000248D01*
X34796474Y-59980787D01*
X34864434Y-60001328D01*
X34909670Y-60053534D01*
X34958375Y-60157984D01*
X34958377Y-60157987D01*
X35086193Y-60340526D01*
X35243754Y-60498087D01*
X35243757Y-60498089D01*
X35243758Y-60498090D01*
X35426292Y-60625903D01*
X35628248Y-60720076D01*
X35843489Y-60777750D01*
X36065475Y-60797171D01*
X36287461Y-60777750D01*
X36502702Y-60720076D01*
X36704658Y-60625903D01*
X36887192Y-60498090D01*
X37044759Y-60340523D01*
X37172572Y-60157989D01*
X37221280Y-60053534D01*
X37268197Y-60000248D01*
X37336474Y-59980787D01*
X37404434Y-60001328D01*
X37449670Y-60053534D01*
X37498375Y-60157984D01*
X37498377Y-60157987D01*
X37626193Y-60340526D01*
X37783754Y-60498087D01*
X37783757Y-60498089D01*
X37783758Y-60498090D01*
X37966292Y-60625903D01*
X38168248Y-60720076D01*
X38383489Y-60777750D01*
X38605475Y-60797171D01*
X38827461Y-60777750D01*
X39042702Y-60720076D01*
X39244658Y-60625903D01*
X39427192Y-60498090D01*
X39584759Y-60340523D01*
X39712572Y-60157989D01*
X39761280Y-60053534D01*
X39808197Y-60000248D01*
X39876474Y-59980787D01*
X39944434Y-60001328D01*
X39989670Y-60053534D01*
X40038375Y-60157984D01*
X40038377Y-60157987D01*
X40166193Y-60340526D01*
X40323754Y-60498087D01*
X40323757Y-60498089D01*
X40323758Y-60498090D01*
X40506292Y-60625903D01*
X40708248Y-60720076D01*
X40923489Y-60777750D01*
X41145475Y-60797171D01*
X41367461Y-60777750D01*
X41582702Y-60720076D01*
X41784658Y-60625903D01*
X41967192Y-60498090D01*
X42124759Y-60340523D01*
X42252572Y-60157989D01*
X42301280Y-60053534D01*
X42348197Y-60000248D01*
X42416474Y-59980787D01*
X42484434Y-60001328D01*
X42529670Y-60053534D01*
X42578375Y-60157984D01*
X42578377Y-60157987D01*
X42706193Y-60340526D01*
X42863754Y-60498087D01*
X42863757Y-60498089D01*
X42863758Y-60498090D01*
X43046292Y-60625903D01*
X43248248Y-60720076D01*
X43463489Y-60777750D01*
X43685475Y-60797171D01*
X43907461Y-60777750D01*
X44122702Y-60720076D01*
X44324658Y-60625903D01*
X44507192Y-60498090D01*
X44664759Y-60340523D01*
X44792572Y-60157989D01*
X44841280Y-60053534D01*
X44888197Y-60000248D01*
X44956474Y-59980787D01*
X45024434Y-60001328D01*
X45069670Y-60053534D01*
X45118375Y-60157984D01*
X45118377Y-60157987D01*
X45246193Y-60340526D01*
X45403754Y-60498087D01*
X45403757Y-60498089D01*
X45403758Y-60498090D01*
X45586292Y-60625903D01*
X45586295Y-60625904D01*
X45586296Y-60625905D01*
X45665045Y-60662626D01*
X45718331Y-60709543D01*
X45720248Y-60712679D01*
X45720932Y-60713836D01*
X45720935Y-60713840D01*
X45735254Y-60728159D01*
X45748092Y-60743189D01*
X45760001Y-60759579D01*
X45760005Y-60759584D01*
X45794073Y-60787767D01*
X45802853Y-60795757D01*
X45844781Y-60837685D01*
X45878807Y-60899997D01*
X45873742Y-60970812D01*
X45831195Y-61027648D01*
X45764675Y-61052459D01*
X45755686Y-61052780D01*
X42260220Y-61052780D01*
X42199673Y-61059289D01*
X42199665Y-61059291D01*
X42062667Y-61110390D01*
X42062662Y-61110392D01*
X41945608Y-61198018D01*
X41857982Y-61315072D01*
X41857980Y-61315077D01*
X41806881Y-61452075D01*
X41806879Y-61452083D01*
X41800370Y-61512630D01*
X41800370Y-65109929D01*
X41806879Y-65170476D01*
X41806881Y-65170484D01*
X41857980Y-65307482D01*
X41857982Y-65307487D01*
X41945608Y-65424541D01*
X42062662Y-65512167D01*
X42062664Y-65512168D01*
X42062666Y-65512169D01*
X42121745Y-65534204D01*
X42199665Y-65563268D01*
X42199673Y-65563270D01*
X42260220Y-65569779D01*
X42260225Y-65569779D01*
X42260232Y-65569780D01*
X42260238Y-65569780D01*
X45857502Y-65569780D01*
X45857508Y-65569780D01*
X45857515Y-65569779D01*
X45857519Y-65569779D01*
X45918066Y-65563270D01*
X45918069Y-65563269D01*
X45918071Y-65563269D01*
X46055074Y-65512169D01*
X46065780Y-65504155D01*
X46172131Y-65424541D01*
X46259759Y-65307484D01*
X46259759Y-65307481D01*
X46263780Y-65300120D01*
X46313979Y-65249915D01*
X46383353Y-65234821D01*
X46449874Y-65259628D01*
X46492424Y-65316462D01*
X46500370Y-65360500D01*
X46500370Y-67280439D01*
X46500371Y-67280450D01*
X46503181Y-67333372D01*
X46542900Y-67538743D01*
X46547901Y-67564597D01*
X46631052Y-67784932D01*
X46631054Y-67784937D01*
X46750243Y-67988046D01*
X46902050Y-68168099D01*
X47082103Y-68319906D01*
X47285212Y-68439095D01*
X47285214Y-68439096D01*
X47285218Y-68439098D01*
X47505556Y-68522250D01*
X47736778Y-68566969D01*
X47789699Y-68569780D01*
X49728040Y-68569779D01*
X49780962Y-68566969D01*
X50012184Y-68522250D01*
X50232522Y-68439098D01*
X50435638Y-68319905D01*
X50455758Y-68302941D01*
X54994043Y-68302941D01*
X55013998Y-68531028D01*
X55024382Y-68569780D01*
X55073256Y-68752181D01*
X55073258Y-68752187D01*
X55170018Y-68959690D01*
X55196470Y-68997468D01*
X55301343Y-69147241D01*
X55463241Y-69309139D01*
X55650792Y-69440464D01*
X55858298Y-69537225D01*
X56079454Y-69596484D01*
X56307541Y-69616439D01*
X56535628Y-69596484D01*
X56756784Y-69537225D01*
X56964290Y-69440464D01*
X57151841Y-69309139D01*
X57268446Y-69192534D01*
X57330758Y-69158508D01*
X57401573Y-69163573D01*
X57446636Y-69192534D01*
X57563241Y-69309139D01*
X57750792Y-69440464D01*
X57958298Y-69537225D01*
X58179454Y-69596484D01*
X58407541Y-69616439D01*
X58635628Y-69596484D01*
X58856784Y-69537225D01*
X59064290Y-69440464D01*
X59251841Y-69309139D01*
X59413739Y-69147241D01*
X59469828Y-69067138D01*
X59525285Y-69022810D01*
X59595905Y-69015501D01*
X59659265Y-69047532D01*
X59695250Y-69108733D01*
X59699041Y-69139409D01*
X59699041Y-69151590D01*
X59705550Y-69212137D01*
X59705552Y-69212145D01*
X59756651Y-69349143D01*
X59756653Y-69349148D01*
X59844279Y-69466202D01*
X59961333Y-69553828D01*
X59961335Y-69553829D01*
X59961337Y-69553830D01*
X60020416Y-69575865D01*
X60098336Y-69604929D01*
X60098344Y-69604931D01*
X60158891Y-69611440D01*
X60158896Y-69611440D01*
X60158903Y-69611441D01*
X60158909Y-69611441D01*
X61856173Y-69611441D01*
X61856179Y-69611441D01*
X61856186Y-69611440D01*
X61856190Y-69611440D01*
X61916737Y-69604931D01*
X61916740Y-69604930D01*
X61916742Y-69604930D01*
X62053745Y-69553830D01*
X62075930Y-69537223D01*
X62170802Y-69466202D01*
X62258428Y-69349148D01*
X62258428Y-69349147D01*
X62258430Y-69349145D01*
X62309530Y-69212142D01*
X62313638Y-69173938D01*
X62316040Y-69151590D01*
X62316041Y-69151573D01*
X62316041Y-67454308D01*
X62316040Y-67454291D01*
X62309531Y-67393744D01*
X62309529Y-67393736D01*
X62273352Y-67296745D01*
X62258430Y-67256737D01*
X62258429Y-67256735D01*
X62258428Y-67256733D01*
X62170802Y-67139679D01*
X62053748Y-67052053D01*
X62053743Y-67052051D01*
X61916745Y-67000952D01*
X61916737Y-67000950D01*
X61856190Y-66994441D01*
X61856179Y-66994441D01*
X60158903Y-66994441D01*
X60158891Y-66994441D01*
X60098344Y-67000950D01*
X60098336Y-67000952D01*
X59961338Y-67052051D01*
X59961333Y-67052053D01*
X59844279Y-67139679D01*
X59756653Y-67256733D01*
X59756651Y-67256738D01*
X59705552Y-67393736D01*
X59705550Y-67393744D01*
X59699041Y-67454291D01*
X59699041Y-67466472D01*
X59679039Y-67534593D01*
X59625383Y-67581086D01*
X59555109Y-67591190D01*
X59490529Y-67561696D01*
X59469828Y-67538743D01*
X59413741Y-67458644D01*
X59413736Y-67458638D01*
X59251843Y-67296745D01*
X59251837Y-67296740D01*
X59064290Y-67165418D01*
X58856787Y-67068658D01*
X58856781Y-67068656D01*
X58692541Y-67024648D01*
X58635628Y-67009398D01*
X58407541Y-66989443D01*
X58179454Y-67009398D01*
X57958300Y-67068656D01*
X57958294Y-67068658D01*
X57750791Y-67165418D01*
X57563244Y-67296740D01*
X57446636Y-67413348D01*
X57384324Y-67447373D01*
X57313508Y-67442307D01*
X57268446Y-67413348D01*
X57248834Y-67393736D01*
X57151841Y-67296743D01*
X57128572Y-67280450D01*
X56964290Y-67165418D01*
X56756787Y-67068658D01*
X56756781Y-67068656D01*
X56694817Y-67052053D01*
X56592537Y-67024646D01*
X56531916Y-66987696D01*
X56500895Y-66923836D01*
X56509323Y-66853341D01*
X56554526Y-66798594D01*
X56592535Y-66781235D01*
X56756784Y-66737225D01*
X56964290Y-66640464D01*
X57151841Y-66509139D01*
X57313739Y-66347241D01*
X57445064Y-66159690D01*
X57541825Y-65952184D01*
X57601084Y-65731028D01*
X57621039Y-65502941D01*
X61794043Y-65502941D01*
X61813998Y-65731028D01*
X61873257Y-65952184D01*
X61970018Y-66159690D01*
X62101343Y-66347241D01*
X62263241Y-66509139D01*
X62450792Y-66640464D01*
X62658298Y-66737225D01*
X62879454Y-66796484D01*
X63107541Y-66816439D01*
X63335628Y-66796484D01*
X63556784Y-66737225D01*
X63764290Y-66640464D01*
X63951841Y-66509139D01*
X64113739Y-66347241D01*
X64245064Y-66159690D01*
X64341825Y-65952184D01*
X64401084Y-65731028D01*
X64421039Y-65502941D01*
X64401084Y-65274854D01*
X64341825Y-65053698D01*
X64245064Y-64846192D01*
X64113739Y-64658641D01*
X63951841Y-64496743D01*
X63764290Y-64365418D01*
X63556787Y-64268658D01*
X63556781Y-64268656D01*
X63463312Y-64243611D01*
X63335628Y-64209398D01*
X63107541Y-64189443D01*
X62879454Y-64209398D01*
X62658300Y-64268656D01*
X62658294Y-64268658D01*
X62450791Y-64365418D01*
X62263244Y-64496740D01*
X62263238Y-64496745D01*
X62101345Y-64658638D01*
X62101340Y-64658644D01*
X61970018Y-64846191D01*
X61873258Y-65053694D01*
X61873256Y-65053700D01*
X61841966Y-65170476D01*
X61813998Y-65274854D01*
X61794043Y-65502941D01*
X57621039Y-65502941D01*
X57601084Y-65274854D01*
X57541825Y-65053698D01*
X57445064Y-64846192D01*
X57313739Y-64658641D01*
X57151841Y-64496743D01*
X56964290Y-64365418D01*
X56756787Y-64268658D01*
X56756781Y-64268656D01*
X56663312Y-64243611D01*
X56535628Y-64209398D01*
X56307541Y-64189443D01*
X56079454Y-64209398D01*
X55858300Y-64268656D01*
X55858294Y-64268658D01*
X55650791Y-64365418D01*
X55463244Y-64496740D01*
X55463238Y-64496745D01*
X55301345Y-64658638D01*
X55301340Y-64658644D01*
X55170018Y-64846191D01*
X55073258Y-65053694D01*
X55073256Y-65053700D01*
X55041966Y-65170476D01*
X55013998Y-65274854D01*
X54994043Y-65502941D01*
X55013998Y-65731028D01*
X55073257Y-65952184D01*
X55170018Y-66159690D01*
X55301343Y-66347241D01*
X55463241Y-66509139D01*
X55650792Y-66640464D01*
X55858298Y-66737225D01*
X56022543Y-66781234D01*
X56083165Y-66818186D01*
X56114186Y-66882046D01*
X56105758Y-66952541D01*
X56060555Y-67007288D01*
X56022543Y-67024647D01*
X55950201Y-67044031D01*
X55858300Y-67068656D01*
X55858294Y-67068658D01*
X55650791Y-67165418D01*
X55463244Y-67296740D01*
X55463238Y-67296745D01*
X55301345Y-67458638D01*
X55301340Y-67458644D01*
X55170018Y-67646191D01*
X55073258Y-67853694D01*
X55073257Y-67853698D01*
X55013998Y-68074854D01*
X54994043Y-68302941D01*
X50455758Y-68302941D01*
X50615689Y-68168099D01*
X50767495Y-67988048D01*
X50886688Y-67784932D01*
X50969840Y-67564594D01*
X51014559Y-67333372D01*
X51017370Y-67280451D01*
X51017369Y-65342110D01*
X51014559Y-65289188D01*
X50969840Y-65057966D01*
X50886688Y-64837628D01*
X50886686Y-64837624D01*
X50886685Y-64837622D01*
X50767496Y-64634513D01*
X50615689Y-64454460D01*
X50435636Y-64302653D01*
X50232527Y-64183464D01*
X50232522Y-64183462D01*
X50012188Y-64100311D01*
X50012185Y-64100310D01*
X50012184Y-64100310D01*
X49780962Y-64055591D01*
X49728041Y-64052780D01*
X49728028Y-64052780D01*
X47789710Y-64052780D01*
X47750199Y-64054878D01*
X47736778Y-64055591D01*
X47736777Y-64055591D01*
X47630248Y-64076194D01*
X47505556Y-64100310D01*
X47505554Y-64100310D01*
X47505552Y-64100311D01*
X47285217Y-64183462D01*
X47285212Y-64183464D01*
X47082103Y-64302653D01*
X46902050Y-64454460D01*
X46750243Y-64634513D01*
X46631054Y-64837622D01*
X46631052Y-64837627D01*
X46561255Y-65022577D01*
X46518489Y-65079248D01*
X46451873Y-65103802D01*
X46382558Y-65088442D01*
X46332550Y-65038047D01*
X46317370Y-64978089D01*
X46317370Y-61614464D01*
X46337372Y-61546343D01*
X46391028Y-61499850D01*
X46461302Y-61489746D01*
X46525882Y-61519240D01*
X46532465Y-61525369D01*
X47371753Y-62364657D01*
X47381720Y-62377097D01*
X47381947Y-62376910D01*
X47386999Y-62383017D01*
X47387000Y-62383018D01*
X47412965Y-62407401D01*
X47436666Y-62429657D01*
X47439510Y-62432414D01*
X47459226Y-62452131D01*
X47462423Y-62454611D01*
X47471444Y-62462316D01*
X47503679Y-62492586D01*
X47503680Y-62492586D01*
X47503682Y-62492588D01*
X47521429Y-62502344D01*
X47537959Y-62513202D01*
X47553959Y-62525613D01*
X47594536Y-62543172D01*
X47605187Y-62548390D01*
X47643940Y-62569695D01*
X47663562Y-62574733D01*
X47682263Y-62581135D01*
X47700855Y-62589181D01*
X47744522Y-62596096D01*
X47756125Y-62598498D01*
X47798970Y-62609500D01*
X47819231Y-62609500D01*
X47838939Y-62611050D01*
X47858943Y-62614219D01*
X47902954Y-62610058D01*
X47914811Y-62609500D01*
X70782147Y-62609500D01*
X70797988Y-62611249D01*
X70798016Y-62610956D01*
X70805902Y-62611700D01*
X70805909Y-62611702D01*
X70873986Y-62609562D01*
X70877945Y-62609500D01*
X70905851Y-62609500D01*
X70905856Y-62609500D01*
X70909867Y-62608992D01*
X70921699Y-62608061D01*
X70965889Y-62606673D01*
X70985347Y-62601019D01*
X71004694Y-62597013D01*
X71024797Y-62594474D01*
X71065910Y-62578195D01*
X71077130Y-62574353D01*
X71101913Y-62567154D01*
X71119591Y-62562019D01*
X71119595Y-62562017D01*
X71137026Y-62551708D01*
X71154780Y-62543009D01*
X71173617Y-62535552D01*
X71209392Y-62509558D01*
X71219298Y-62503051D01*
X71257362Y-62480542D01*
X71271685Y-62466218D01*
X71286724Y-62453374D01*
X71288435Y-62452131D01*
X71303107Y-62441472D01*
X71331303Y-62407386D01*
X71339272Y-62398630D01*
X72720659Y-61017244D01*
X72733098Y-61007280D01*
X72732910Y-61007053D01*
X72739016Y-61002001D01*
X72739015Y-61002001D01*
X72739018Y-61002000D01*
X72785662Y-60952327D01*
X72788352Y-60949551D01*
X72808135Y-60929770D01*
X72810614Y-60926573D01*
X72818311Y-60917559D01*
X72848586Y-60885321D01*
X72858346Y-60867565D01*
X72869195Y-60851050D01*
X72881614Y-60835041D01*
X72899179Y-60794446D01*
X72904384Y-60783821D01*
X72925695Y-60745060D01*
X72930733Y-60725434D01*
X72937137Y-60706732D01*
X72945180Y-60688147D01*
X72945179Y-60688147D01*
X72945181Y-60688145D01*
X72952096Y-60644481D01*
X72954504Y-60632852D01*
X72956288Y-60625905D01*
X72965500Y-60590030D01*
X72965500Y-60569775D01*
X72967051Y-60550063D01*
X72970220Y-60530057D01*
X72966059Y-60486036D01*
X72965500Y-60474179D01*
X72965500Y-35838459D01*
X72967249Y-35822618D01*
X72966956Y-35822591D01*
X72967701Y-35814698D01*
X72967702Y-35814695D01*
X72965562Y-35746617D01*
X72965500Y-35742658D01*
X72965500Y-35714753D01*
X72965500Y-35714748D01*
X72964992Y-35710734D01*
X72964061Y-35698901D01*
X72963859Y-35692463D01*
X72962673Y-35654714D01*
X72957022Y-35635267D01*
X72953012Y-35615904D01*
X72952865Y-35614739D01*
X72950474Y-35595807D01*
X72934195Y-35554694D01*
X72930353Y-35543473D01*
X72918018Y-35501011D01*
X72907705Y-35483573D01*
X72899010Y-35465826D01*
X72891552Y-35446987D01*
X72865568Y-35411224D01*
X72859051Y-35401303D01*
X72836541Y-35363239D01*
X72822218Y-35348916D01*
X72809377Y-35333883D01*
X72797471Y-35317496D01*
X72763405Y-35289314D01*
X72754626Y-35281325D01*
X71853894Y-34380593D01*
X71819868Y-34318281D01*
X71824933Y-34247466D01*
X71867480Y-34190630D01*
X71934000Y-34165819D01*
X71962697Y-34167048D01*
X72001824Y-34173246D01*
X72001826Y-34173246D01*
X72001832Y-34173247D01*
X72389994Y-34193589D01*
X72390000Y-34193589D01*
X72390006Y-34193589D01*
X72778167Y-34173247D01*
X72778171Y-34173246D01*
X72778176Y-34173246D01*
X73162099Y-34112438D01*
X73537562Y-34011833D01*
X73537565Y-34011831D01*
X73537568Y-34011831D01*
X73900443Y-33872536D01*
X73900444Y-33872535D01*
X73900453Y-33872532D01*
X74246795Y-33696062D01*
X74572793Y-33484357D01*
X74572802Y-33484350D01*
X74874862Y-33239746D01*
X74874867Y-33239740D01*
X74874876Y-33239734D01*
X75149734Y-32964876D01*
X75149740Y-32964867D01*
X75149746Y-32964862D01*
X75394350Y-32662802D01*
X75394351Y-32662799D01*
X75394357Y-32662793D01*
X75606062Y-32336795D01*
X75782532Y-31990453D01*
X75805969Y-31929397D01*
X75921831Y-31627568D01*
X75923164Y-31622593D01*
X76022438Y-31252099D01*
X76083246Y-30868176D01*
X76083246Y-30868171D01*
X76083247Y-30868167D01*
X76103589Y-30480006D01*
X76103589Y-30479993D01*
X76083247Y-30091832D01*
X76072058Y-30021190D01*
X76022438Y-29707901D01*
X75921833Y-29332438D01*
X75921832Y-29332436D01*
X75921831Y-29332431D01*
X75782536Y-28969556D01*
X75782532Y-28969548D01*
X75782532Y-28969547D01*
X75606062Y-28623206D01*
X75394357Y-28297207D01*
X75394354Y-28297203D01*
X75394352Y-28297200D01*
X75149746Y-27995137D01*
X75149732Y-27995122D01*
X74874877Y-27720267D01*
X74874862Y-27720253D01*
X74572802Y-27475649D01*
X74572785Y-27475637D01*
X74246795Y-27263938D01*
X73900451Y-27087467D01*
X73900443Y-27087463D01*
X73537568Y-26948168D01*
X73162097Y-26847561D01*
X72778167Y-26786752D01*
X72390006Y-26766411D01*
X72389994Y-26766411D01*
X72001832Y-26786752D01*
X71617902Y-26847561D01*
X71242431Y-26948168D01*
X70879556Y-27087463D01*
X70879548Y-27087467D01*
X70533205Y-27263938D01*
X70207203Y-27475645D01*
X70207200Y-27475647D01*
X69905137Y-27720253D01*
X69905122Y-27720267D01*
X69630267Y-27995122D01*
X69630253Y-27995137D01*
X69385647Y-28297200D01*
X69385645Y-28297203D01*
X69173938Y-28623205D01*
X68997467Y-28969548D01*
X68997463Y-28969556D01*
X68858168Y-29332431D01*
X68757561Y-29707902D01*
X68696752Y-30091832D01*
X68676411Y-30479993D01*
X68676411Y-30480006D01*
X68696752Y-30868167D01*
X68757561Y-31252097D01*
X68858168Y-31627568D01*
X68997463Y-31990443D01*
X68997467Y-31990451D01*
X68997468Y-31990453D01*
X69035700Y-32065487D01*
X69173938Y-32336795D01*
X69385637Y-32662785D01*
X69385649Y-32662802D01*
X69630253Y-32964862D01*
X69630267Y-32964877D01*
X69725795Y-33060405D01*
X69759821Y-33122717D01*
X69754756Y-33193532D01*
X69712209Y-33250368D01*
X69645689Y-33275179D01*
X69636700Y-33275500D01*
X58989990Y-33275500D01*
X58921869Y-33255498D01*
X58900895Y-33238595D01*
X57820405Y-32158104D01*
X57786379Y-32095792D01*
X57783500Y-32069009D01*
X57783500Y-32004179D01*
X57803502Y-31936058D01*
X57843437Y-31896887D01*
X57972662Y-31817319D01*
X57972662Y-31817318D01*
X57972665Y-31817317D01*
X58148815Y-31662286D01*
X58296230Y-31479716D01*
X58311167Y-31452976D01*
X58361848Y-31403262D01*
X58431365Y-31388839D01*
X58497643Y-31414290D01*
X58525556Y-31443867D01*
X58613600Y-31574132D01*
X58613602Y-31574134D01*
X58613605Y-31574138D01*
X58755608Y-31722301D01*
X58775967Y-31743543D01*
X58964629Y-31883077D01*
X59174159Y-31988720D01*
X59398529Y-32057432D01*
X59631283Y-32087237D01*
X59865727Y-32077278D01*
X60095116Y-32027841D01*
X60312850Y-31940349D01*
X60512665Y-31817317D01*
X60688815Y-31662286D01*
X60836230Y-31479716D01*
X60894424Y-31375544D01*
X63391500Y-31375544D01*
X63402112Y-31479425D01*
X63457885Y-31647738D01*
X63550970Y-31798652D01*
X63550975Y-31798658D01*
X63676341Y-31924024D01*
X63676347Y-31924029D01*
X63676348Y-31924030D01*
X63827262Y-32017115D01*
X63995574Y-32072887D01*
X64099455Y-32083500D01*
X65440544Y-32083499D01*
X65544426Y-32072887D01*
X65712738Y-32017115D01*
X65863652Y-31924030D01*
X65989030Y-31798652D01*
X66082115Y-31647738D01*
X66137887Y-31479426D01*
X66148500Y-31375545D01*
X66148499Y-29584456D01*
X66137887Y-29480574D01*
X66082115Y-29312262D01*
X65989030Y-29161348D01*
X65989029Y-29161347D01*
X65989024Y-29161341D01*
X65863658Y-29035975D01*
X65863652Y-29035970D01*
X65837195Y-29019651D01*
X65712738Y-28942885D01*
X65581377Y-28899357D01*
X65544427Y-28887113D01*
X65544420Y-28887112D01*
X65440553Y-28876500D01*
X64099455Y-28876500D01*
X63995574Y-28887112D01*
X63827261Y-28942885D01*
X63676347Y-29035970D01*
X63676341Y-29035975D01*
X63550975Y-29161341D01*
X63550970Y-29161347D01*
X63457885Y-29312262D01*
X63402113Y-29480572D01*
X63402112Y-29480579D01*
X63391500Y-29584446D01*
X63391500Y-31375544D01*
X60894424Y-31375544D01*
X60950670Y-31274859D01*
X61028843Y-31053608D01*
X61068500Y-30822328D01*
X61068500Y-30196442D01*
X61053584Y-30021190D01*
X61023693Y-29906392D01*
X60994459Y-29794115D01*
X60994457Y-29794111D01*
X60994456Y-29794106D01*
X60897801Y-29580282D01*
X60766400Y-29385868D01*
X60766396Y-29385864D01*
X60766394Y-29385861D01*
X60604035Y-29216459D01*
X60604034Y-29216458D01*
X60604033Y-29216457D01*
X60415371Y-29076923D01*
X60205841Y-28971280D01*
X60205840Y-28971279D01*
X60205837Y-28971278D01*
X60205834Y-28971277D01*
X60073461Y-28930738D01*
X60021262Y-28899357D01*
X59308245Y-28186341D01*
X59298280Y-28173902D01*
X59298053Y-28174091D01*
X59292999Y-28167981D01*
X59243348Y-28121356D01*
X59240504Y-28118599D01*
X59220777Y-28098871D01*
X59220771Y-28098866D01*
X59217567Y-28096380D01*
X59208556Y-28088683D01*
X59176325Y-28058417D01*
X59176319Y-28058413D01*
X59158563Y-28048651D01*
X59142047Y-28037802D01*
X59126041Y-28025386D01*
X59093691Y-28011387D01*
X59085464Y-28007827D01*
X59074807Y-28002605D01*
X59036063Y-27981306D01*
X59036060Y-27981305D01*
X59016436Y-27976266D01*
X58997736Y-27969864D01*
X58979145Y-27961819D01*
X58979143Y-27961818D01*
X58979141Y-27961818D01*
X58935474Y-27954901D01*
X58923855Y-27952495D01*
X58881030Y-27941500D01*
X58860776Y-27941500D01*
X58841066Y-27939949D01*
X58821057Y-27936780D01*
X58786994Y-27940000D01*
X58777039Y-27940941D01*
X58765181Y-27941500D01*
X53804853Y-27941500D01*
X53789011Y-27939750D01*
X53788984Y-27940044D01*
X53781091Y-27939297D01*
X53713001Y-27941438D01*
X53709043Y-27941500D01*
X53681144Y-27941500D01*
X53681138Y-27941500D01*
X53681132Y-27941501D01*
X53677133Y-27942006D01*
X53665313Y-27942936D01*
X53621114Y-27944325D01*
X53621107Y-27944327D01*
X53601649Y-27949979D01*
X53582304Y-27953985D01*
X53562206Y-27956525D01*
X53562198Y-27956527D01*
X53521090Y-27972802D01*
X53509866Y-27976645D01*
X53467409Y-27988981D01*
X53449964Y-27999297D01*
X53432218Y-28007990D01*
X53413382Y-28015448D01*
X53377610Y-28041437D01*
X53367694Y-28047951D01*
X53329637Y-28070458D01*
X53315311Y-28084784D01*
X53300285Y-28097617D01*
X53283895Y-28109525D01*
X53283893Y-28109527D01*
X53255700Y-28143605D01*
X53247713Y-28152381D01*
X52443340Y-28956754D01*
X52430903Y-28966719D01*
X52431091Y-28966946D01*
X52424982Y-28971999D01*
X52378370Y-29021635D01*
X52375620Y-29024473D01*
X52355863Y-29044231D01*
X52353374Y-29047439D01*
X52345688Y-29056436D01*
X52315418Y-29088673D01*
X52315411Y-29088683D01*
X52305651Y-29106435D01*
X52294803Y-29122950D01*
X52282386Y-29138958D01*
X52264824Y-29179540D01*
X52259627Y-29190153D01*
X52258796Y-29191666D01*
X52208470Y-29241745D01*
X52139059Y-29256665D01*
X52072600Y-29231691D01*
X52041118Y-29197158D01*
X52019030Y-29161348D01*
X52019029Y-29161347D01*
X52019024Y-29161341D01*
X51893658Y-29035975D01*
X51893652Y-29035970D01*
X51867195Y-29019651D01*
X51742738Y-28942885D01*
X51611377Y-28899357D01*
X51574427Y-28887113D01*
X51574420Y-28887112D01*
X51470553Y-28876500D01*
X50129455Y-28876500D01*
X50025574Y-28887112D01*
X49857261Y-28942885D01*
X49706347Y-29035970D01*
X49706341Y-29035975D01*
X49580975Y-29161341D01*
X49580970Y-29161347D01*
X49487885Y-29312262D01*
X49432113Y-29480572D01*
X49432112Y-29480579D01*
X49421500Y-29584446D01*
X49421500Y-31375544D01*
X49432112Y-31479425D01*
X49487885Y-31647738D01*
X49580970Y-31798652D01*
X49580975Y-31798658D01*
X49706341Y-31924024D01*
X49706347Y-31924029D01*
X49706348Y-31924030D01*
X49857262Y-32017115D01*
X50025574Y-32072887D01*
X50129455Y-32083500D01*
X51470544Y-32083499D01*
X51574426Y-32072887D01*
X51742738Y-32017115D01*
X51893652Y-31924030D01*
X52019030Y-31798652D01*
X52077415Y-31703995D01*
X52130198Y-31656518D01*
X52200273Y-31645115D01*
X52265389Y-31673407D01*
X52286590Y-31696082D01*
X52298432Y-31712381D01*
X52304949Y-31722301D01*
X52327458Y-31760362D01*
X52327459Y-31760363D01*
X52327461Y-31760366D01*
X52341779Y-31774684D01*
X52354617Y-31789714D01*
X52366526Y-31806104D01*
X52366530Y-31806109D01*
X52400598Y-31834292D01*
X52409378Y-31842282D01*
X54977501Y-34410405D01*
X55011527Y-34472717D01*
X55006462Y-34543532D01*
X54963915Y-34600368D01*
X54897395Y-34625179D01*
X54888406Y-34625500D01*
X48567805Y-34625500D01*
X48551963Y-34623750D01*
X48551936Y-34624044D01*
X48544044Y-34623298D01*
X48544043Y-34623298D01*
X48520312Y-34624044D01*
X48475966Y-34625438D01*
X48472007Y-34625500D01*
X48444096Y-34625500D01*
X48444093Y-34625500D01*
X48444078Y-34625501D01*
X48440073Y-34626007D01*
X48428256Y-34626937D01*
X48384064Y-34628326D01*
X48384062Y-34628327D01*
X48364607Y-34633978D01*
X48345254Y-34637986D01*
X48325162Y-34640524D01*
X48325155Y-34640526D01*
X48284048Y-34656801D01*
X48272823Y-34660644D01*
X48242164Y-34669552D01*
X48230359Y-34672982D01*
X48230357Y-34672982D01*
X48230354Y-34672984D01*
X48212915Y-34683297D01*
X48195170Y-34691990D01*
X48176331Y-34699449D01*
X48140579Y-34725426D01*
X48130656Y-34731944D01*
X48092592Y-34754454D01*
X48078259Y-34768787D01*
X48063233Y-34781620D01*
X48046847Y-34793525D01*
X48018663Y-34827593D01*
X48010675Y-34836370D01*
X47188608Y-35658437D01*
X47126296Y-35692463D01*
X47055481Y-35687398D01*
X47027242Y-35672555D01*
X46991600Y-35647598D01*
X46854658Y-35551709D01*
X46854656Y-35551708D01*
X46854657Y-35551708D01*
X46652705Y-35457537D01*
X46652700Y-35457535D01*
X46537897Y-35426774D01*
X46437461Y-35399862D01*
X46215475Y-35380441D01*
X45993489Y-35399862D01*
X45935816Y-35415315D01*
X45778249Y-35457535D01*
X45778244Y-35457537D01*
X45576296Y-35551707D01*
X45393757Y-35679522D01*
X45393753Y-35679525D01*
X45236194Y-35837084D01*
X45236191Y-35837088D01*
X45108376Y-36019627D01*
X45059670Y-36124078D01*
X45012752Y-36177363D01*
X44944475Y-36196824D01*
X44876515Y-36176282D01*
X44831280Y-36124078D01*
X44782573Y-36019627D01*
X44782572Y-36019624D01*
X44654759Y-35837089D01*
X44654758Y-35837088D01*
X44654755Y-35837084D01*
X44497195Y-35679524D01*
X44422295Y-35627078D01*
X44314658Y-35551709D01*
X44314656Y-35551708D01*
X44314657Y-35551708D01*
X44112705Y-35457537D01*
X44112700Y-35457535D01*
X43997897Y-35426774D01*
X43897461Y-35399862D01*
X43675475Y-35380441D01*
X43453489Y-35399862D01*
X43395816Y-35415315D01*
X43238249Y-35457535D01*
X43238244Y-35457537D01*
X43036296Y-35551707D01*
X42853757Y-35679522D01*
X42853753Y-35679525D01*
X42696194Y-35837084D01*
X42696191Y-35837088D01*
X42568376Y-36019627D01*
X42519670Y-36124078D01*
X42472752Y-36177363D01*
X42404475Y-36196824D01*
X42336515Y-36176282D01*
X42291280Y-36124078D01*
X42242573Y-36019627D01*
X42242572Y-36019624D01*
X42114759Y-35837089D01*
X42114758Y-35837088D01*
X42114755Y-35837084D01*
X41957195Y-35679524D01*
X41882295Y-35627078D01*
X41774658Y-35551709D01*
X41774656Y-35551708D01*
X41774657Y-35551708D01*
X41572705Y-35457537D01*
X41572700Y-35457535D01*
X41457897Y-35426774D01*
X41357461Y-35399862D01*
X41135475Y-35380441D01*
X40913489Y-35399862D01*
X40855816Y-35415315D01*
X40698249Y-35457535D01*
X40698244Y-35457537D01*
X40496296Y-35551707D01*
X40313757Y-35679522D01*
X40313753Y-35679525D01*
X40156194Y-35837084D01*
X40156191Y-35837088D01*
X40028376Y-36019627D01*
X39979670Y-36124078D01*
X39932752Y-36177363D01*
X39864475Y-36196824D01*
X39796515Y-36176282D01*
X39751280Y-36124078D01*
X39702573Y-36019627D01*
X39702572Y-36019624D01*
X39574759Y-35837089D01*
X39574758Y-35837088D01*
X39574755Y-35837084D01*
X39417195Y-35679524D01*
X39342295Y-35627078D01*
X39234658Y-35551709D01*
X39234656Y-35551708D01*
X39234657Y-35551708D01*
X39032705Y-35457537D01*
X39032700Y-35457535D01*
X38917897Y-35426774D01*
X38817461Y-35399862D01*
X38595475Y-35380441D01*
X38373489Y-35399862D01*
X38315816Y-35415315D01*
X38158249Y-35457535D01*
X38158244Y-35457537D01*
X37956296Y-35551707D01*
X37773757Y-35679522D01*
X37773753Y-35679525D01*
X37616194Y-35837084D01*
X37616191Y-35837088D01*
X37488376Y-36019627D01*
X37394206Y-36221575D01*
X37394204Y-36221580D01*
X37366339Y-36325574D01*
X37336531Y-36436820D01*
X37317110Y-36658806D01*
X37336531Y-36880792D01*
X37366339Y-36992037D01*
X37394204Y-37096031D01*
X37394206Y-37096036D01*
X37488377Y-37297988D01*
X37616193Y-37480526D01*
X37773754Y-37638087D01*
X37773757Y-37638089D01*
X37773758Y-37638090D01*
X37956292Y-37765903D01*
X38158248Y-37860076D01*
X38373489Y-37917750D01*
X38595475Y-37937171D01*
X38817461Y-37917750D01*
X39032702Y-37860076D01*
X39234658Y-37765903D01*
X39417192Y-37638090D01*
X39574759Y-37480523D01*
X39702572Y-37297989D01*
X39751280Y-37193534D01*
X39798197Y-37140248D01*
X39866474Y-37120787D01*
X39934434Y-37141328D01*
X39979670Y-37193534D01*
X40028375Y-37297984D01*
X40028377Y-37297987D01*
X40028378Y-37297989D01*
X40067148Y-37353358D01*
X40156193Y-37480526D01*
X40313754Y-37638087D01*
X40313757Y-37638089D01*
X40313758Y-37638090D01*
X40496292Y-37765903D01*
X40698248Y-37860076D01*
X40913489Y-37917750D01*
X41135475Y-37937171D01*
X41357461Y-37917750D01*
X41572702Y-37860076D01*
X41774658Y-37765903D01*
X41957192Y-37638090D01*
X42114759Y-37480523D01*
X42242572Y-37297989D01*
X42291280Y-37193534D01*
X42338197Y-37140248D01*
X42406474Y-37120787D01*
X42474434Y-37141328D01*
X42519670Y-37193534D01*
X42568375Y-37297984D01*
X42568377Y-37297987D01*
X42568378Y-37297989D01*
X42607148Y-37353358D01*
X42696193Y-37480526D01*
X42853754Y-37638087D01*
X42853757Y-37638089D01*
X42853758Y-37638090D01*
X43036292Y-37765903D01*
X43238248Y-37860076D01*
X43453489Y-37917750D01*
X43675475Y-37937171D01*
X43897461Y-37917750D01*
X44112702Y-37860076D01*
X44314658Y-37765903D01*
X44497192Y-37638090D01*
X44654759Y-37480523D01*
X44782572Y-37297989D01*
X44831280Y-37193534D01*
X44878197Y-37140248D01*
X44946474Y-37120787D01*
X45014434Y-37141328D01*
X45059670Y-37193534D01*
X45108375Y-37297984D01*
X45108377Y-37297987D01*
X45108378Y-37297989D01*
X45147148Y-37353358D01*
X45236193Y-37480526D01*
X45393754Y-37638087D01*
X45393757Y-37638089D01*
X45393758Y-37638090D01*
X45576292Y-37765903D01*
X45778248Y-37860076D01*
X45993489Y-37917750D01*
X46215475Y-37937171D01*
X46437461Y-37917750D01*
X46652702Y-37860076D01*
X46696015Y-37839879D01*
X46766207Y-37829217D01*
X46831020Y-37858196D01*
X46869876Y-37917616D01*
X46875266Y-37954073D01*
X46875266Y-40786138D01*
X46855264Y-40854259D01*
X46801608Y-40900752D01*
X46731334Y-40910856D01*
X46676995Y-40889351D01*
X46510081Y-40772477D01*
X46302578Y-40675717D01*
X46302572Y-40675715D01*
X46209103Y-40650670D01*
X46081419Y-40616457D01*
X45853332Y-40596502D01*
X45625245Y-40616457D01*
X45404091Y-40675715D01*
X45404085Y-40675717D01*
X45196582Y-40772477D01*
X45009035Y-40903799D01*
X45009029Y-40903804D01*
X44847136Y-41065697D01*
X44847131Y-41065703D01*
X44715809Y-41253250D01*
X44619049Y-41460753D01*
X44619048Y-41460757D01*
X44559789Y-41681913D01*
X44539834Y-41910000D01*
X44559789Y-42138087D01*
X44619048Y-42359243D01*
X44715809Y-42566749D01*
X44847134Y-42754300D01*
X45009032Y-42916198D01*
X45196583Y-43047523D01*
X45404089Y-43144284D01*
X45625245Y-43203543D01*
X45853332Y-43223498D01*
X46081419Y-43203543D01*
X46302575Y-43144284D01*
X46510081Y-43047523D01*
X46676995Y-42930647D01*
X46744269Y-42907960D01*
X46813129Y-42925245D01*
X46861714Y-42977014D01*
X46875266Y-43033861D01*
X46875266Y-50099969D01*
X46855264Y-50168090D01*
X46838361Y-50189064D01*
X46266578Y-50760847D01*
X46204266Y-50794873D01*
X46144872Y-50793459D01*
X46081422Y-50776457D01*
X45853332Y-50756502D01*
X45625245Y-50776457D01*
X45404091Y-50835715D01*
X45404085Y-50835717D01*
X45196582Y-50932477D01*
X45009035Y-51063799D01*
X45009029Y-51063804D01*
X44847136Y-51225697D01*
X44847131Y-51225703D01*
X44715809Y-51413250D01*
X44619049Y-51620753D01*
X44619047Y-51620759D01*
X44559789Y-51841913D01*
X44539834Y-52070000D01*
X44559789Y-52298090D01*
X44576791Y-52361540D01*
X44575101Y-52432516D01*
X44544180Y-52483246D01*
X44484832Y-52542595D01*
X44422520Y-52576620D01*
X44395736Y-52579500D01*
X41094200Y-52579500D01*
X41026079Y-52559498D01*
X41000563Y-52537810D01*
X40997252Y-52534133D01*
X40842752Y-52421882D01*
X40668288Y-52344206D01*
X40481487Y-52304500D01*
X40290513Y-52304500D01*
X40103711Y-52344206D01*
X39929247Y-52421882D01*
X39774744Y-52534135D01*
X39646965Y-52676048D01*
X39646958Y-52676058D01*
X39551476Y-52841438D01*
X39551473Y-52841445D01*
X39492457Y-53023072D01*
X39472496Y-53213000D01*
X39492457Y-53402927D01*
X39522526Y-53495470D01*
X39551473Y-53584556D01*
X39551476Y-53584561D01*
X39646958Y-53749941D01*
X39646965Y-53749951D01*
X39774744Y-53891864D01*
X39774747Y-53891866D01*
X39929248Y-54004118D01*
X40103712Y-54081794D01*
X40290513Y-54121500D01*
X40481487Y-54121500D01*
X40668288Y-54081794D01*
X40842752Y-54004118D01*
X40997253Y-53891866D01*
X41000563Y-53888190D01*
X41061009Y-53850950D01*
X41094200Y-53846500D01*
X43607970Y-53846500D01*
X44626479Y-53846500D01*
X44642320Y-53848249D01*
X44642348Y-53847956D01*
X44650234Y-53848700D01*
X44650241Y-53848702D01*
X44718318Y-53846562D01*
X44722277Y-53846500D01*
X44750183Y-53846500D01*
X44750188Y-53846500D01*
X44754199Y-53845992D01*
X44766031Y-53845061D01*
X44810221Y-53843673D01*
X44829679Y-53838019D01*
X44849026Y-53834013D01*
X44869129Y-53831474D01*
X44910242Y-53815195D01*
X44921462Y-53811353D01*
X44946245Y-53804154D01*
X44963923Y-53799019D01*
X44963927Y-53799017D01*
X44981358Y-53788708D01*
X44999112Y-53780009D01*
X45017949Y-53772552D01*
X45053724Y-53746558D01*
X45063630Y-53740051D01*
X45101694Y-53717542D01*
X45116017Y-53703218D01*
X45131056Y-53690374D01*
X45147439Y-53678472D01*
X45175631Y-53644392D01*
X45183599Y-53635635D01*
X45440085Y-53379149D01*
X45502396Y-53345126D01*
X45561789Y-53346539D01*
X45625245Y-53363543D01*
X45853332Y-53383498D01*
X46081419Y-53363543D01*
X46302575Y-53304284D01*
X46510081Y-53207523D01*
X46697632Y-53076198D01*
X46859530Y-52914300D01*
X46990855Y-52726749D01*
X47087616Y-52519243D01*
X47146875Y-52298087D01*
X47166830Y-52070000D01*
X50254832Y-52070000D01*
X50274787Y-52298087D01*
X50297393Y-52382454D01*
X50334045Y-52519240D01*
X50334047Y-52519246D01*
X50430807Y-52726749D01*
X50512740Y-52843762D01*
X50562132Y-52914300D01*
X50724030Y-53076198D01*
X50911581Y-53207523D01*
X51119087Y-53304284D01*
X51340243Y-53363543D01*
X51568330Y-53383498D01*
X51796417Y-53363543D01*
X52017573Y-53304284D01*
X52225079Y-53207523D01*
X52412630Y-53076198D01*
X52574528Y-52914300D01*
X52705853Y-52726749D01*
X52802614Y-52519243D01*
X52861873Y-52298087D01*
X52881828Y-52070000D01*
X52861873Y-51841913D01*
X52802614Y-51620757D01*
X52705853Y-51413251D01*
X52574528Y-51225700D01*
X52412630Y-51063802D01*
X52225079Y-50932477D01*
X52180357Y-50911623D01*
X52017576Y-50835717D01*
X52017570Y-50835715D01*
X51924101Y-50810670D01*
X51796417Y-50776457D01*
X51568330Y-50756502D01*
X51340243Y-50776457D01*
X51119089Y-50835715D01*
X51119083Y-50835717D01*
X50911580Y-50932477D01*
X50724033Y-51063799D01*
X50724027Y-51063804D01*
X50562134Y-51225697D01*
X50562129Y-51225703D01*
X50430807Y-51413250D01*
X50334047Y-51620753D01*
X50334046Y-51620757D01*
X50274787Y-51841913D01*
X50254832Y-52070000D01*
X47166830Y-52070000D01*
X47146875Y-51841913D01*
X47129872Y-51778457D01*
X47131561Y-51707481D01*
X47162481Y-51656753D01*
X47897423Y-50921811D01*
X47909858Y-50911850D01*
X47909671Y-50911623D01*
X47915782Y-50906567D01*
X47915781Y-50906567D01*
X47915784Y-50906566D01*
X47962442Y-50856878D01*
X47965133Y-50854101D01*
X47984900Y-50834336D01*
X47987383Y-50831133D01*
X47995074Y-50822128D01*
X48025352Y-50789887D01*
X48035111Y-50772133D01*
X48045963Y-50755612D01*
X48058379Y-50739607D01*
X48075934Y-50699036D01*
X48081158Y-50688374D01*
X48102460Y-50649627D01*
X48102461Y-50649626D01*
X48107499Y-50630001D01*
X48113904Y-50611296D01*
X48121947Y-50592711D01*
X48128862Y-50549047D01*
X48131270Y-50537418D01*
X48142266Y-50494596D01*
X48142266Y-50474341D01*
X48143817Y-50454629D01*
X48146986Y-50434623D01*
X48142825Y-50390602D01*
X48142266Y-50378745D01*
X48142266Y-41910000D01*
X50254832Y-41910000D01*
X50274787Y-42138087D01*
X50334046Y-42359243D01*
X50430807Y-42566749D01*
X50562132Y-42754300D01*
X50724030Y-42916198D01*
X50911581Y-43047523D01*
X51119087Y-43144284D01*
X51340243Y-43203543D01*
X51568330Y-43223498D01*
X51796417Y-43203543D01*
X52017573Y-43144284D01*
X52225079Y-43047523D01*
X52412630Y-42916198D01*
X52574528Y-42754300D01*
X52705853Y-42566749D01*
X52802614Y-42359243D01*
X52861873Y-42138087D01*
X52881828Y-41910000D01*
X52861873Y-41681913D01*
X52802614Y-41460757D01*
X52705853Y-41253251D01*
X52574528Y-41065700D01*
X52412630Y-40903802D01*
X52341875Y-40854259D01*
X52225079Y-40772477D01*
X52017576Y-40675717D01*
X52017570Y-40675715D01*
X51924101Y-40650670D01*
X51796417Y-40616457D01*
X51568330Y-40596502D01*
X51340243Y-40616457D01*
X51119089Y-40675715D01*
X51119083Y-40675717D01*
X50911580Y-40772477D01*
X50724033Y-40903799D01*
X50724027Y-40903804D01*
X50562134Y-41065697D01*
X50562129Y-41065703D01*
X50430807Y-41253250D01*
X50334047Y-41460753D01*
X50334046Y-41460757D01*
X50274787Y-41681913D01*
X50254832Y-41910000D01*
X48142266Y-41910000D01*
X48142266Y-37975794D01*
X48162268Y-37907673D01*
X48215924Y-37861180D01*
X48286198Y-37851076D01*
X48312783Y-37859003D01*
X48313078Y-37858194D01*
X48318244Y-37860074D01*
X48318248Y-37860076D01*
X48533489Y-37917750D01*
X48755475Y-37937171D01*
X48977461Y-37917750D01*
X49192702Y-37860076D01*
X49394658Y-37765903D01*
X49577192Y-37638090D01*
X49734759Y-37480523D01*
X49862572Y-37297989D01*
X49911280Y-37193534D01*
X49958197Y-37140248D01*
X50026474Y-37120787D01*
X50094434Y-37141328D01*
X50139670Y-37193534D01*
X50188375Y-37297984D01*
X50188377Y-37297987D01*
X50188378Y-37297989D01*
X50227148Y-37353358D01*
X50316193Y-37480526D01*
X50473754Y-37638087D01*
X50473757Y-37638089D01*
X50473758Y-37638090D01*
X50656292Y-37765903D01*
X50858248Y-37860076D01*
X51073489Y-37917750D01*
X51295475Y-37937171D01*
X51517461Y-37917750D01*
X51732702Y-37860076D01*
X51934658Y-37765903D01*
X52117192Y-37638090D01*
X52274759Y-37480523D01*
X52402572Y-37297989D01*
X52451280Y-37193534D01*
X52498197Y-37140248D01*
X52566474Y-37120787D01*
X52634434Y-37141328D01*
X52679670Y-37193534D01*
X52728375Y-37297984D01*
X52728377Y-37297987D01*
X52728378Y-37297989D01*
X52767148Y-37353358D01*
X52856193Y-37480526D01*
X53013754Y-37638087D01*
X53013757Y-37638089D01*
X53013758Y-37638090D01*
X53196292Y-37765903D01*
X53398248Y-37860076D01*
X53613489Y-37917750D01*
X53835475Y-37937171D01*
X54057461Y-37917750D01*
X54272702Y-37860076D01*
X54474658Y-37765903D01*
X54657192Y-37638090D01*
X54814759Y-37480523D01*
X54942572Y-37297989D01*
X54991280Y-37193534D01*
X55038197Y-37140248D01*
X55106474Y-37120787D01*
X55174434Y-37141328D01*
X55219670Y-37193534D01*
X55268375Y-37297984D01*
X55268377Y-37297987D01*
X55268378Y-37297989D01*
X55307148Y-37353358D01*
X55396193Y-37480526D01*
X55553754Y-37638087D01*
X55553757Y-37638089D01*
X55553758Y-37638090D01*
X55736292Y-37765903D01*
X55938248Y-37860076D01*
X56153489Y-37917750D01*
X56375475Y-37937171D01*
X56597461Y-37917750D01*
X56812702Y-37860076D01*
X57014658Y-37765903D01*
X57197192Y-37638090D01*
X57354759Y-37480523D01*
X57482572Y-37297989D01*
X57531280Y-37193534D01*
X57578197Y-37140248D01*
X57646474Y-37120787D01*
X57714434Y-37141328D01*
X57759670Y-37193534D01*
X57808375Y-37297984D01*
X57808377Y-37297987D01*
X57808378Y-37297989D01*
X57847148Y-37353358D01*
X57936193Y-37480526D01*
X58093754Y-37638087D01*
X58093757Y-37638089D01*
X58093758Y-37638090D01*
X58276292Y-37765903D01*
X58478248Y-37860076D01*
X58693489Y-37917750D01*
X58915475Y-37937171D01*
X59137461Y-37917750D01*
X59352702Y-37860076D01*
X59554658Y-37765903D01*
X59737192Y-37638090D01*
X59894759Y-37480523D01*
X60022572Y-37297989D01*
X60071280Y-37193534D01*
X60118197Y-37140248D01*
X60186474Y-37120787D01*
X60254434Y-37141328D01*
X60299670Y-37193534D01*
X60348375Y-37297984D01*
X60348377Y-37297987D01*
X60348378Y-37297989D01*
X60387148Y-37353358D01*
X60476193Y-37480526D01*
X60633754Y-37638087D01*
X60633757Y-37638089D01*
X60633758Y-37638090D01*
X60816292Y-37765903D01*
X61018248Y-37860076D01*
X61233489Y-37917750D01*
X61455475Y-37937171D01*
X61677461Y-37917750D01*
X61718440Y-37906769D01*
X61789412Y-37908457D01*
X61840145Y-37939380D01*
X61940595Y-38039830D01*
X61974621Y-38102142D01*
X61977500Y-38128925D01*
X61977500Y-41217414D01*
X61957498Y-41285535D01*
X61903842Y-41332028D01*
X61833568Y-41342132D01*
X61768988Y-41312638D01*
X61737306Y-41270665D01*
X61729186Y-41253252D01*
X61597862Y-41065703D01*
X61597857Y-41065697D01*
X61435964Y-40903804D01*
X61435958Y-40903799D01*
X61248411Y-40772477D01*
X61040908Y-40675717D01*
X61040902Y-40675715D01*
X60947433Y-40650670D01*
X60819749Y-40616457D01*
X60591662Y-40596502D01*
X60363575Y-40616457D01*
X60142421Y-40675715D01*
X60142415Y-40675717D01*
X59934912Y-40772477D01*
X59747365Y-40903799D01*
X59747359Y-40903804D01*
X59585466Y-41065697D01*
X59585461Y-41065703D01*
X59454139Y-41253250D01*
X59357379Y-41460753D01*
X59357378Y-41460757D01*
X59298119Y-41681913D01*
X59278164Y-41910000D01*
X59298119Y-42138087D01*
X59357378Y-42359243D01*
X59454139Y-42566749D01*
X59585464Y-42754300D01*
X59747362Y-42916198D01*
X59934913Y-43047523D01*
X60142419Y-43144284D01*
X60363575Y-43203543D01*
X60591662Y-43223498D01*
X60819749Y-43203543D01*
X61040905Y-43144284D01*
X61248411Y-43047523D01*
X61435962Y-42916198D01*
X61597860Y-42754300D01*
X61729185Y-42566749D01*
X61737305Y-42549336D01*
X61784221Y-42496051D01*
X61852498Y-42476589D01*
X61920458Y-42497130D01*
X61966525Y-42551152D01*
X61977500Y-42602585D01*
X61977500Y-49736066D01*
X61957498Y-49804187D01*
X61940595Y-49825162D01*
X61004908Y-50760848D01*
X60942596Y-50794873D01*
X60883202Y-50793459D01*
X60819752Y-50776457D01*
X60591662Y-50756502D01*
X60363575Y-50776457D01*
X60142421Y-50835715D01*
X60142415Y-50835717D01*
X59934912Y-50932477D01*
X59747365Y-51063799D01*
X59747359Y-51063804D01*
X59585466Y-51225697D01*
X59585461Y-51225703D01*
X59454139Y-51413250D01*
X59357379Y-51620753D01*
X59357377Y-51620759D01*
X59298119Y-51841913D01*
X59278164Y-52070000D01*
X59298119Y-52298090D01*
X59315121Y-52361540D01*
X59313431Y-52432516D01*
X59282510Y-52483246D01*
X59223162Y-52542595D01*
X59160850Y-52576620D01*
X59134066Y-52579500D01*
X55826200Y-52579500D01*
X55758079Y-52559498D01*
X55732563Y-52537810D01*
X55729252Y-52534133D01*
X55574752Y-52421882D01*
X55400288Y-52344206D01*
X55213487Y-52304500D01*
X55022513Y-52304500D01*
X54835711Y-52344206D01*
X54661247Y-52421882D01*
X54506744Y-52534135D01*
X54378965Y-52676048D01*
X54378958Y-52676058D01*
X54283476Y-52841438D01*
X54283473Y-52841445D01*
X54224457Y-53023072D01*
X54204496Y-53213000D01*
X54224457Y-53402927D01*
X54254526Y-53495470D01*
X54283473Y-53584556D01*
X54283476Y-53584561D01*
X54378958Y-53749941D01*
X54378965Y-53749951D01*
X54506744Y-53891864D01*
X54506747Y-53891866D01*
X54661248Y-54004118D01*
X54835712Y-54081794D01*
X55022513Y-54121500D01*
X55213487Y-54121500D01*
X55400288Y-54081794D01*
X55574752Y-54004118D01*
X55729253Y-53891866D01*
X55732563Y-53888190D01*
X55793009Y-53850950D01*
X55826200Y-53846500D01*
X59364809Y-53846500D01*
X59380650Y-53848249D01*
X59380678Y-53847956D01*
X59388564Y-53848700D01*
X59388571Y-53848702D01*
X59456648Y-53846562D01*
X59460607Y-53846500D01*
X59488513Y-53846500D01*
X59488518Y-53846500D01*
X59492529Y-53845992D01*
X59504361Y-53845061D01*
X59548551Y-53843673D01*
X59568009Y-53838019D01*
X59587356Y-53834013D01*
X59607459Y-53831474D01*
X59648572Y-53815195D01*
X59659792Y-53811353D01*
X59684575Y-53804154D01*
X59702253Y-53799019D01*
X59702257Y-53799017D01*
X59719688Y-53788708D01*
X59737442Y-53780009D01*
X59756279Y-53772552D01*
X59792054Y-53746558D01*
X59801960Y-53740051D01*
X59840024Y-53717542D01*
X59854347Y-53703218D01*
X59869386Y-53690374D01*
X59885769Y-53678472D01*
X59913961Y-53644392D01*
X59921929Y-53635635D01*
X60178415Y-53379149D01*
X60240726Y-53345126D01*
X60300119Y-53346539D01*
X60363575Y-53363543D01*
X60591662Y-53383498D01*
X60819749Y-53363543D01*
X61040905Y-53304284D01*
X61248411Y-53207523D01*
X61435962Y-53076198D01*
X61597860Y-52914300D01*
X61729185Y-52726749D01*
X61825946Y-52519243D01*
X61885205Y-52298087D01*
X61905160Y-52070000D01*
X64726502Y-52070000D01*
X64746457Y-52298087D01*
X64769063Y-52382454D01*
X64805715Y-52519240D01*
X64805717Y-52519246D01*
X64902477Y-52726749D01*
X64984410Y-52843762D01*
X65033802Y-52914300D01*
X65195700Y-53076198D01*
X65383251Y-53207523D01*
X65590757Y-53304284D01*
X65811913Y-53363543D01*
X66040000Y-53383498D01*
X66268087Y-53363543D01*
X66489243Y-53304284D01*
X66696749Y-53207523D01*
X66884300Y-53076198D01*
X67046198Y-52914300D01*
X67177523Y-52726749D01*
X67274284Y-52519243D01*
X67333543Y-52298087D01*
X67353498Y-52070000D01*
X67333543Y-51841913D01*
X67274284Y-51620757D01*
X67177523Y-51413251D01*
X67046198Y-51225700D01*
X66884300Y-51063802D01*
X66696749Y-50932477D01*
X66652027Y-50911623D01*
X66489246Y-50835717D01*
X66489240Y-50835715D01*
X66395771Y-50810670D01*
X66268087Y-50776457D01*
X66040000Y-50756502D01*
X65811913Y-50776457D01*
X65590759Y-50835715D01*
X65590753Y-50835717D01*
X65383250Y-50932477D01*
X65195703Y-51063799D01*
X65195697Y-51063804D01*
X65033804Y-51225697D01*
X65033799Y-51225703D01*
X64902477Y-51413250D01*
X64805717Y-51620753D01*
X64805716Y-51620757D01*
X64746457Y-51841913D01*
X64726502Y-52070000D01*
X61905160Y-52070000D01*
X61885205Y-51841913D01*
X61868202Y-51778457D01*
X61869891Y-51707481D01*
X61900811Y-51656753D01*
X62999657Y-50557907D01*
X63012092Y-50547946D01*
X63011905Y-50547719D01*
X63018016Y-50542663D01*
X63018015Y-50542663D01*
X63018018Y-50542662D01*
X63064676Y-50492974D01*
X63067367Y-50490197D01*
X63087134Y-50470432D01*
X63089617Y-50467229D01*
X63097308Y-50458224D01*
X63127586Y-50425983D01*
X63137345Y-50408229D01*
X63148197Y-50391708D01*
X63160613Y-50375703D01*
X63178168Y-50335132D01*
X63183392Y-50324470D01*
X63204694Y-50285723D01*
X63204695Y-50285722D01*
X63209733Y-50266097D01*
X63216138Y-50247392D01*
X63224181Y-50228807D01*
X63231096Y-50185143D01*
X63233504Y-50173514D01*
X63238987Y-50152161D01*
X63244500Y-50130692D01*
X63244500Y-50110437D01*
X63246051Y-50090725D01*
X63249220Y-50070719D01*
X63245059Y-50026698D01*
X63244500Y-50014841D01*
X63244500Y-41910000D01*
X64726502Y-41910000D01*
X64746457Y-42138087D01*
X64805716Y-42359243D01*
X64902477Y-42566749D01*
X65033802Y-42754300D01*
X65195700Y-42916198D01*
X65383251Y-43047523D01*
X65590757Y-43144284D01*
X65811913Y-43203543D01*
X66040000Y-43223498D01*
X66268087Y-43203543D01*
X66489243Y-43144284D01*
X66696749Y-43047523D01*
X66884300Y-42916198D01*
X67046198Y-42754300D01*
X67177523Y-42566749D01*
X67274284Y-42359243D01*
X67333543Y-42138087D01*
X67353498Y-41910000D01*
X67333543Y-41681913D01*
X67274284Y-41460757D01*
X67177523Y-41253251D01*
X67046198Y-41065700D01*
X66884300Y-40903802D01*
X66813545Y-40854259D01*
X66696749Y-40772477D01*
X66489246Y-40675717D01*
X66489240Y-40675715D01*
X66395771Y-40650670D01*
X66268087Y-40616457D01*
X66040000Y-40596502D01*
X65811913Y-40616457D01*
X65590759Y-40675715D01*
X65590753Y-40675717D01*
X65383250Y-40772477D01*
X65195703Y-40903799D01*
X65195697Y-40903804D01*
X65033804Y-41065697D01*
X65033799Y-41065703D01*
X64902477Y-41253250D01*
X64805717Y-41460753D01*
X64805716Y-41460757D01*
X64746457Y-41681913D01*
X64726502Y-41910000D01*
X63244500Y-41910000D01*
X63244500Y-37911553D01*
X63264502Y-37843432D01*
X63318158Y-37796939D01*
X63388432Y-37786835D01*
X63423744Y-37797356D01*
X63558248Y-37860076D01*
X63773489Y-37917750D01*
X63995475Y-37937171D01*
X64217461Y-37917750D01*
X64432702Y-37860076D01*
X64634658Y-37765903D01*
X64817192Y-37638090D01*
X64974759Y-37480523D01*
X65102572Y-37297989D01*
X65151280Y-37193534D01*
X65198197Y-37140248D01*
X65266474Y-37120787D01*
X65334434Y-37141328D01*
X65379670Y-37193534D01*
X65428375Y-37297984D01*
X65428377Y-37297987D01*
X65428378Y-37297989D01*
X65467148Y-37353358D01*
X65556193Y-37480526D01*
X65713754Y-37638087D01*
X65713757Y-37638089D01*
X65713758Y-37638090D01*
X65896292Y-37765903D01*
X66098248Y-37860076D01*
X66313489Y-37917750D01*
X66535475Y-37937171D01*
X66757461Y-37917750D01*
X66972702Y-37860076D01*
X67174658Y-37765903D01*
X67357192Y-37638090D01*
X67514759Y-37480523D01*
X67572763Y-37397684D01*
X67628220Y-37353358D01*
X67698839Y-37346049D01*
X67762199Y-37378080D01*
X67798184Y-37439282D01*
X67801975Y-37469957D01*
X67801975Y-37472455D01*
X67808484Y-37533002D01*
X67808486Y-37533010D01*
X67859585Y-37670008D01*
X67859587Y-37670013D01*
X67947213Y-37787067D01*
X68064267Y-37874693D01*
X68064269Y-37874694D01*
X68064271Y-37874695D01*
X68089948Y-37884272D01*
X68201270Y-37925794D01*
X68201278Y-37925796D01*
X68261825Y-37932305D01*
X68261830Y-37932305D01*
X68261837Y-37932306D01*
X68261843Y-37932306D01*
X69889107Y-37932306D01*
X69889113Y-37932306D01*
X69889120Y-37932305D01*
X69889124Y-37932305D01*
X69949671Y-37925796D01*
X69949674Y-37925795D01*
X69949676Y-37925795D01*
X70086679Y-37874695D01*
X70106211Y-37860074D01*
X70203736Y-37787067D01*
X70291362Y-37670013D01*
X70291362Y-37670012D01*
X70291364Y-37670010D01*
X70342464Y-37533007D01*
X70348107Y-37480523D01*
X70348974Y-37472455D01*
X70348975Y-37472438D01*
X70348975Y-36244465D01*
X70368977Y-36176344D01*
X70422633Y-36129851D01*
X70492907Y-36119747D01*
X70557487Y-36149241D01*
X70564070Y-36155370D01*
X70761595Y-36352895D01*
X70795621Y-36415207D01*
X70798500Y-36441990D01*
X70798500Y-59822613D01*
X70778498Y-59890734D01*
X70761595Y-59911708D01*
X70267708Y-60405595D01*
X70205396Y-60439621D01*
X70178613Y-60442500D01*
X67994595Y-60442500D01*
X67926474Y-60422498D01*
X67905500Y-60405595D01*
X67716649Y-60216744D01*
X67682623Y-60154432D01*
X67687688Y-60083617D01*
X67691550Y-60074398D01*
X67746745Y-59956033D01*
X67804419Y-59740792D01*
X67823840Y-59518806D01*
X67804419Y-59296820D01*
X67746745Y-59081579D01*
X67652572Y-58879624D01*
X67524759Y-58697089D01*
X67524758Y-58697088D01*
X67524755Y-58697084D01*
X67367195Y-58539524D01*
X67330530Y-58513851D01*
X67184658Y-58411709D01*
X67184656Y-58411708D01*
X67184657Y-58411708D01*
X66982705Y-58317537D01*
X66982700Y-58317535D01*
X66878705Y-58289670D01*
X66767461Y-58259862D01*
X66545475Y-58240441D01*
X66323489Y-58259862D01*
X66279541Y-58271638D01*
X66108249Y-58317535D01*
X66108244Y-58317537D01*
X65906296Y-58411707D01*
X65723757Y-58539522D01*
X65723753Y-58539525D01*
X65566194Y-58697084D01*
X65566191Y-58697088D01*
X65438376Y-58879627D01*
X65389670Y-58984078D01*
X65342752Y-59037363D01*
X65274475Y-59056824D01*
X65206515Y-59036282D01*
X65161280Y-58984078D01*
X65112573Y-58879627D01*
X65112572Y-58879625D01*
X65112572Y-58879624D01*
X64984759Y-58697089D01*
X64984758Y-58697088D01*
X64984755Y-58697084D01*
X64827195Y-58539524D01*
X64790530Y-58513851D01*
X64644658Y-58411709D01*
X64644656Y-58411708D01*
X64644657Y-58411708D01*
X64442705Y-58317537D01*
X64442691Y-58317532D01*
X64271415Y-58271638D01*
X64214932Y-58239027D01*
X62287245Y-56311340D01*
X62277283Y-56298904D01*
X62277056Y-56299093D01*
X62272002Y-56292984D01*
X62222364Y-56246372D01*
X62219519Y-56243614D01*
X62199781Y-56223875D01*
X62199773Y-56223868D01*
X62199770Y-56223865D01*
X62196566Y-56221380D01*
X62187554Y-56213681D01*
X62155325Y-56183417D01*
X62155319Y-56183413D01*
X62137563Y-56173651D01*
X62121047Y-56162802D01*
X62105041Y-56150386D01*
X62064464Y-56132827D01*
X62053807Y-56127605D01*
X62015063Y-56106306D01*
X62015060Y-56106305D01*
X61995436Y-56101266D01*
X61976736Y-56094864D01*
X61958145Y-56086819D01*
X61958143Y-56086818D01*
X61958141Y-56086818D01*
X61914474Y-56079901D01*
X61902855Y-56077495D01*
X61860030Y-56066500D01*
X61839776Y-56066500D01*
X61820066Y-56064949D01*
X61800057Y-56061780D01*
X61756039Y-56065941D01*
X61744181Y-56066500D01*
X37456594Y-56066500D01*
X37388473Y-56046498D01*
X37367499Y-56029595D01*
X35512667Y-54174762D01*
X35478641Y-54112450D01*
X35475762Y-54085667D01*
X35475762Y-52816869D01*
X35495764Y-52748748D01*
X35549420Y-52702255D01*
X35619694Y-52692151D01*
X35684274Y-52721645D01*
X35704975Y-52744598D01*
X35774410Y-52843762D01*
X35823802Y-52914300D01*
X35985700Y-53076198D01*
X36173251Y-53207523D01*
X36380757Y-53304284D01*
X36601913Y-53363543D01*
X36830000Y-53383498D01*
X37058087Y-53363543D01*
X37279243Y-53304284D01*
X37486749Y-53207523D01*
X37674300Y-53076198D01*
X37836198Y-52914300D01*
X37967523Y-52726749D01*
X38064284Y-52519243D01*
X38123543Y-52298087D01*
X38143498Y-52070000D01*
X38123543Y-51841913D01*
X38064284Y-51620757D01*
X37967523Y-51413251D01*
X37836198Y-51225700D01*
X37674300Y-51063802D01*
X37486749Y-50932477D01*
X37442027Y-50911623D01*
X37279246Y-50835717D01*
X37279240Y-50835715D01*
X37185771Y-50810670D01*
X37058087Y-50776457D01*
X36830000Y-50756502D01*
X36601913Y-50776457D01*
X36380759Y-50835715D01*
X36380753Y-50835717D01*
X36173250Y-50932477D01*
X35985703Y-51063799D01*
X35985697Y-51063804D01*
X35823804Y-51225697D01*
X35823799Y-51225703D01*
X35704975Y-51395401D01*
X35649518Y-51439729D01*
X35578898Y-51447038D01*
X35515538Y-51415007D01*
X35479553Y-51353806D01*
X35475762Y-51323130D01*
X35475762Y-42656869D01*
X35495764Y-42588748D01*
X35549420Y-42542255D01*
X35619694Y-42532151D01*
X35684274Y-42561645D01*
X35704975Y-42584598D01*
X35823802Y-42754300D01*
X35985700Y-42916198D01*
X36173251Y-43047523D01*
X36380757Y-43144284D01*
X36601913Y-43203543D01*
X36830000Y-43223498D01*
X37058087Y-43203543D01*
X37279243Y-43144284D01*
X37486749Y-43047523D01*
X37674300Y-42916198D01*
X37836198Y-42754300D01*
X37967523Y-42566749D01*
X38064284Y-42359243D01*
X38123543Y-42138087D01*
X38143498Y-41910000D01*
X38123543Y-41681913D01*
X38064284Y-41460757D01*
X37967523Y-41253251D01*
X37836198Y-41065700D01*
X37674300Y-40903802D01*
X37603545Y-40854259D01*
X37486749Y-40772477D01*
X37279246Y-40675717D01*
X37279240Y-40675715D01*
X37185771Y-40650670D01*
X37058087Y-40616457D01*
X36830000Y-40596502D01*
X36601913Y-40616457D01*
X36380759Y-40675715D01*
X36380753Y-40675717D01*
X36173250Y-40772477D01*
X35985703Y-40903799D01*
X35985697Y-40903804D01*
X35823804Y-41065697D01*
X35823799Y-41065703D01*
X35704975Y-41235401D01*
X35649518Y-41279729D01*
X35578898Y-41287038D01*
X35515538Y-41255007D01*
X35479553Y-41193806D01*
X35475762Y-41163130D01*
X35475762Y-36211331D01*
X35495764Y-36143210D01*
X35512662Y-36122241D01*
X39514500Y-32120402D01*
X39576810Y-32086378D01*
X39603583Y-32083499D01*
X40929544Y-32083499D01*
X41033426Y-32072887D01*
X41201738Y-32017115D01*
X41352652Y-31924030D01*
X41478030Y-31798652D01*
X41571115Y-31647738D01*
X41626887Y-31479426D01*
X41637500Y-31375545D01*
X41637499Y-29584456D01*
X41626887Y-29480574D01*
X41571115Y-29312262D01*
X41478030Y-29161348D01*
X41478029Y-29161347D01*
X41478024Y-29161341D01*
X41352658Y-29035975D01*
X41352652Y-29035970D01*
X41326195Y-29019651D01*
X41201738Y-28942885D01*
X41070377Y-28899357D01*
X41033427Y-28887113D01*
X41033420Y-28887112D01*
X40929553Y-28876500D01*
X39588455Y-28876500D01*
X39484574Y-28887112D01*
X39316261Y-28942885D01*
X39165347Y-29035970D01*
X39165341Y-29035975D01*
X39039975Y-29161341D01*
X39039966Y-29161353D01*
X38945450Y-29314586D01*
X38892664Y-29362064D01*
X38822589Y-29373467D01*
X38757474Y-29345174D01*
X38747253Y-29335633D01*
X38633033Y-29216457D01*
X38444371Y-29076923D01*
X38234841Y-28971280D01*
X38234835Y-28971278D01*
X38234830Y-28971276D01*
X38010471Y-28902568D01*
X37777717Y-28872763D01*
X37777713Y-28872763D01*
X37777705Y-28872762D01*
X37543272Y-28882721D01*
X37313881Y-28932159D01*
X37096147Y-29019652D01*
X37096143Y-29019654D01*
X36896337Y-29142680D01*
X36720188Y-29297710D01*
X36688127Y-29337417D01*
X36572770Y-29480284D01*
X36565178Y-29493875D01*
X36557832Y-29507025D01*
X36507147Y-29556739D01*
X36437630Y-29571159D01*
X36371352Y-29545707D01*
X36343443Y-29516132D01*
X36255400Y-29385868D01*
X36255394Y-29385861D01*
X36093035Y-29216459D01*
X36093034Y-29216458D01*
X36093033Y-29216457D01*
X35904371Y-29076923D01*
X35694841Y-28971280D01*
X35694835Y-28971278D01*
X35694830Y-28971276D01*
X35470471Y-28902568D01*
X35237717Y-28872763D01*
X35237713Y-28872763D01*
X35237705Y-28872762D01*
X35003272Y-28882721D01*
X34773881Y-28932159D01*
X34556147Y-29019652D01*
X34556143Y-29019654D01*
X34356337Y-29142680D01*
X34180188Y-29297710D01*
X34148127Y-29337417D01*
X34032770Y-29480284D01*
X34009846Y-29521320D01*
X33918329Y-29685142D01*
X33840158Y-29906385D01*
X33840157Y-29906392D01*
X33808362Y-30091824D01*
X33800500Y-30137674D01*
X33800500Y-30763570D01*
X33815415Y-30938805D01*
X33815417Y-30938818D01*
X33874540Y-31165884D01*
X33874543Y-31165891D01*
X33874544Y-31165894D01*
X33971199Y-31379718D01*
X34102600Y-31574132D01*
X34102602Y-31574134D01*
X34102605Y-31574138D01*
X34244608Y-31722301D01*
X34264967Y-31743543D01*
X34453629Y-31883077D01*
X34663159Y-31988720D01*
X34887529Y-32057432D01*
X35063025Y-32079904D01*
X35128051Y-32108397D01*
X35167353Y-32167523D01*
X35168449Y-32238511D01*
X35136114Y-32293979D01*
X31869336Y-35560757D01*
X31856901Y-35570721D01*
X31857089Y-35570948D01*
X31850976Y-35576004D01*
X31845704Y-35581619D01*
X31784489Y-35617581D01*
X31713550Y-35614739D01*
X31681588Y-35598574D01*
X31614657Y-35551708D01*
X31412705Y-35457537D01*
X31412700Y-35457535D01*
X31297897Y-35426774D01*
X31197461Y-35399862D01*
X30975475Y-35380441D01*
X30753489Y-35399862D01*
X30695816Y-35415315D01*
X30538249Y-35457535D01*
X30538244Y-35457537D01*
X30336296Y-35551707D01*
X30153757Y-35679522D01*
X30153753Y-35679525D01*
X29996194Y-35837084D01*
X29996191Y-35837088D01*
X29868376Y-36019627D01*
X29819670Y-36124078D01*
X29772752Y-36177363D01*
X29704475Y-36196824D01*
X29636515Y-36176282D01*
X29591280Y-36124078D01*
X29542573Y-36019627D01*
X29542572Y-36019624D01*
X29414759Y-35837089D01*
X29414758Y-35837088D01*
X29414755Y-35837084D01*
X29257195Y-35679524D01*
X29182295Y-35627078D01*
X29074658Y-35551709D01*
X29074656Y-35551708D01*
X29074657Y-35551708D01*
X28872705Y-35457537D01*
X28872700Y-35457535D01*
X28757897Y-35426774D01*
X28657461Y-35399862D01*
X28435475Y-35380441D01*
X28213489Y-35399862D01*
X28155816Y-35415315D01*
X27998249Y-35457535D01*
X27998244Y-35457537D01*
X27796296Y-35551707D01*
X27613757Y-35679522D01*
X27613753Y-35679525D01*
X27456194Y-35837084D01*
X27456191Y-35837088D01*
X27328376Y-36019627D01*
X27279670Y-36124078D01*
X27232752Y-36177363D01*
X27164475Y-36196824D01*
X27096515Y-36176282D01*
X27051280Y-36124078D01*
X27002573Y-36019627D01*
X27002572Y-36019624D01*
X26874759Y-35837089D01*
X26874758Y-35837088D01*
X26874755Y-35837084D01*
X26717195Y-35679524D01*
X26642295Y-35627078D01*
X26534658Y-35551709D01*
X26534656Y-35551708D01*
X26534657Y-35551708D01*
X26332705Y-35457537D01*
X26332700Y-35457535D01*
X26217897Y-35426774D01*
X26117461Y-35399862D01*
X25895475Y-35380441D01*
X25673489Y-35399862D01*
X25615816Y-35415315D01*
X25458249Y-35457535D01*
X25458244Y-35457537D01*
X25256296Y-35551707D01*
X25073757Y-35679522D01*
X25073753Y-35679525D01*
X24916194Y-35837084D01*
X24916191Y-35837088D01*
X24788376Y-36019627D01*
X24739670Y-36124078D01*
X24692752Y-36177363D01*
X24624475Y-36196824D01*
X24556515Y-36176282D01*
X24511280Y-36124078D01*
X24462573Y-36019627D01*
X24462572Y-36019624D01*
X24334759Y-35837089D01*
X24334758Y-35837088D01*
X24334755Y-35837084D01*
X24177195Y-35679524D01*
X24102295Y-35627078D01*
X23994658Y-35551709D01*
X23994656Y-35551708D01*
X23994657Y-35551708D01*
X23792705Y-35457537D01*
X23792700Y-35457535D01*
X23677897Y-35426774D01*
X23577461Y-35399862D01*
X23355475Y-35380441D01*
X23133489Y-35399862D01*
X23075816Y-35415315D01*
X22918249Y-35457535D01*
X22918244Y-35457537D01*
X22716296Y-35551707D01*
X22533757Y-35679522D01*
X22533753Y-35679525D01*
X22376194Y-35837084D01*
X22376191Y-35837088D01*
X22248376Y-36019627D01*
X22154206Y-36221575D01*
X22154204Y-36221580D01*
X22126339Y-36325574D01*
X22096531Y-36436820D01*
X22077110Y-36658806D01*
X20320500Y-36658806D01*
X20320500Y-30480006D01*
X21686411Y-30480006D01*
X21706752Y-30868167D01*
X21767561Y-31252097D01*
X21868168Y-31627568D01*
X22007463Y-31990443D01*
X22007467Y-31990451D01*
X22007468Y-31990453D01*
X22045700Y-32065487D01*
X22183938Y-32336795D01*
X22395637Y-32662785D01*
X22395649Y-32662802D01*
X22640253Y-32964862D01*
X22640267Y-32964877D01*
X22915122Y-33239732D01*
X22915137Y-33239746D01*
X23217197Y-33484350D01*
X23217214Y-33484362D01*
X23353270Y-33572717D01*
X23543205Y-33696062D01*
X23889547Y-33872532D01*
X23889551Y-33872533D01*
X23889556Y-33872536D01*
X24252431Y-34011831D01*
X24252436Y-34011832D01*
X24252438Y-34011833D01*
X24627901Y-34112438D01*
X25011824Y-34173246D01*
X25011826Y-34173246D01*
X25011832Y-34173247D01*
X25399994Y-34193589D01*
X25400000Y-34193589D01*
X25400006Y-34193589D01*
X25788167Y-34173247D01*
X25788171Y-34173246D01*
X25788176Y-34173246D01*
X26172099Y-34112438D01*
X26547562Y-34011833D01*
X26547565Y-34011831D01*
X26547568Y-34011831D01*
X26910443Y-33872536D01*
X26910444Y-33872535D01*
X26910453Y-33872532D01*
X27256795Y-33696062D01*
X27582793Y-33484357D01*
X27582802Y-33484350D01*
X27884862Y-33239746D01*
X27884867Y-33239740D01*
X27884876Y-33239734D01*
X28159734Y-32964876D01*
X28159740Y-32964867D01*
X28159746Y-32964862D01*
X28404350Y-32662802D01*
X28404351Y-32662799D01*
X28404357Y-32662793D01*
X28616062Y-32336795D01*
X28792532Y-31990453D01*
X28815969Y-31929397D01*
X28931831Y-31627568D01*
X28933164Y-31622593D01*
X29032438Y-31252099D01*
X29093246Y-30868176D01*
X29093246Y-30868171D01*
X29093247Y-30868167D01*
X29113589Y-30480006D01*
X29113589Y-30479993D01*
X29093247Y-30091832D01*
X29082058Y-30021190D01*
X29032438Y-29707901D01*
X28931833Y-29332438D01*
X28931832Y-29332436D01*
X28931831Y-29332431D01*
X28792536Y-28969556D01*
X28792532Y-28969548D01*
X28792532Y-28969547D01*
X28616062Y-28623206D01*
X28404357Y-28297207D01*
X28404354Y-28297203D01*
X28404352Y-28297200D01*
X28159746Y-27995137D01*
X28159732Y-27995122D01*
X27884877Y-27720267D01*
X27884862Y-27720253D01*
X27582802Y-27475649D01*
X27582785Y-27475637D01*
X27256795Y-27263938D01*
X26910451Y-27087467D01*
X26910443Y-27087463D01*
X26547568Y-26948168D01*
X26172097Y-26847561D01*
X25788167Y-26786752D01*
X25400006Y-26766411D01*
X25399994Y-26766411D01*
X25011832Y-26786752D01*
X24627902Y-26847561D01*
X24252431Y-26948168D01*
X23889556Y-27087463D01*
X23889548Y-27087467D01*
X23543205Y-27263938D01*
X23217203Y-27475645D01*
X23217200Y-27475647D01*
X22915137Y-27720253D01*
X22915122Y-27720267D01*
X22640267Y-27995122D01*
X22640253Y-27995137D01*
X22395647Y-28297200D01*
X22395645Y-28297203D01*
X22183938Y-28623205D01*
X22007467Y-28969548D01*
X22007463Y-28969556D01*
X21868168Y-29332431D01*
X21767561Y-29707902D01*
X21706752Y-30091832D01*
X21686411Y-30479993D01*
X21686411Y-30480006D01*
X20320500Y-30480006D01*
X20320500Y-27943537D01*
X20320698Y-27936473D01*
X20326988Y-27824458D01*
X20337192Y-27655770D01*
X20338739Y-27642296D01*
X20361173Y-27510258D01*
X20361397Y-27508993D01*
X20387989Y-27363886D01*
X20390840Y-27351758D01*
X20429021Y-27219227D01*
X20429763Y-27216753D01*
X20472404Y-27079912D01*
X20476269Y-27069239D01*
X20529684Y-26940284D01*
X20531135Y-26936925D01*
X20589266Y-26807763D01*
X20593869Y-26798564D01*
X20661827Y-26675603D01*
X20664167Y-26671557D01*
X20737020Y-26551043D01*
X20742041Y-26543385D01*
X20823593Y-26428449D01*
X20827098Y-26423751D01*
X20913655Y-26313268D01*
X20918844Y-26307069D01*
X21012850Y-26201876D01*
X21017638Y-26196812D01*
X21116812Y-26097638D01*
X21121876Y-26092850D01*
X21227069Y-25998844D01*
X21233268Y-25993655D01*
X21343751Y-25907098D01*
X21348449Y-25903593D01*
X21463385Y-25822041D01*
X21471043Y-25817020D01*
X21591557Y-25744167D01*
X21595603Y-25741827D01*
X21718564Y-25673869D01*
X21727763Y-25669266D01*
X21856925Y-25611135D01*
X21860284Y-25609684D01*
X21989239Y-25556269D01*
X21999912Y-25552404D01*
X22136753Y-25509763D01*
X22139227Y-25509021D01*
X22271758Y-25470840D01*
X22283886Y-25467989D01*
X22428993Y-25441397D01*
X22430258Y-25441173D01*
X22562296Y-25418739D01*
X22575770Y-25417192D01*
X22744443Y-25406989D01*
X22856474Y-25400697D01*
X22863538Y-25400500D01*
X74926462Y-25400500D01*
X74933525Y-25400697D01*
G37*
%TD.AperFunction*%
%TD*%
M02*
