%TF.GenerationSoftware,KiCad,Pcbnew,7.0.10*%
%TF.CreationDate,2026-01-21T09:32:43+08:00*%
%TF.ProjectId,KiCad_Esp32_LotNoDisplay,4b694361-645f-4457-9370-33325f4c6f74,rev?*%
%TF.SameCoordinates,Original*%
%TF.FileFunction,Drillmap*%
%TF.FilePolarity,Positive*%
%FSLAX45Y45*%
G04 Gerber Fmt 4.5, Leading zero omitted, Abs format (unit mm)*
G04 Created by KiCad (PCBNEW 7.0.10) date 2026-01-21 09:32:43*
%MOMM*%
%LPD*%
G01*
G04 APERTURE LIST*
%ADD10C,0.100000*%
%ADD11C,0.200000*%
G04 APERTURE END LIST*
D10*
X2286000Y-2540000D02*
G75*
G03*
X2032000Y-2794000I0J-254000D01*
G01*
X2286000Y-2540000D02*
X7493000Y-2540000D01*
X7493000Y-7747000D02*
G75*
G03*
X7747000Y-7493000I0J254000D01*
G01*
X2032000Y-7493000D02*
G75*
G03*
X2286000Y-7747000I254000J0D01*
G01*
X7493000Y-7747000D02*
X2286000Y-7747000D01*
X2032000Y-7493000D02*
X2032000Y-2794000D01*
X7747000Y-2794000D02*
G75*
G03*
X7493000Y-2540000I-254000J0D01*
G01*
X7747000Y-2794000D02*
X7747000Y-7493000D01*
D11*
X2287777Y-8063484D02*
X2287777Y-7863484D01*
X2287777Y-7863484D02*
X2335396Y-7863484D01*
X2335396Y-7863484D02*
X2363967Y-7873008D01*
X2363967Y-7873008D02*
X2383015Y-7892055D01*
X2383015Y-7892055D02*
X2392539Y-7911103D01*
X2392539Y-7911103D02*
X2402063Y-7949198D01*
X2402063Y-7949198D02*
X2402063Y-7977769D01*
X2402063Y-7977769D02*
X2392539Y-8015865D01*
X2392539Y-8015865D02*
X2383015Y-8034912D01*
X2383015Y-8034912D02*
X2363967Y-8053960D01*
X2363967Y-8053960D02*
X2335396Y-8063484D01*
X2335396Y-8063484D02*
X2287777Y-8063484D01*
X2487777Y-8063484D02*
X2487777Y-7930150D01*
X2487777Y-7968246D02*
X2497301Y-7949198D01*
X2497301Y-7949198D02*
X2506824Y-7939674D01*
X2506824Y-7939674D02*
X2525872Y-7930150D01*
X2525872Y-7930150D02*
X2544920Y-7930150D01*
X2611586Y-8063484D02*
X2611586Y-7930150D01*
X2611586Y-7863484D02*
X2602063Y-7873008D01*
X2602063Y-7873008D02*
X2611586Y-7882531D01*
X2611586Y-7882531D02*
X2621110Y-7873008D01*
X2621110Y-7873008D02*
X2611586Y-7863484D01*
X2611586Y-7863484D02*
X2611586Y-7882531D01*
X2735396Y-8063484D02*
X2716348Y-8053960D01*
X2716348Y-8053960D02*
X2706824Y-8034912D01*
X2706824Y-8034912D02*
X2706824Y-7863484D01*
X2840158Y-8063484D02*
X2821110Y-8053960D01*
X2821110Y-8053960D02*
X2811586Y-8034912D01*
X2811586Y-8034912D02*
X2811586Y-7863484D01*
X3068729Y-8063484D02*
X3068729Y-7863484D01*
X3068729Y-7863484D02*
X3135396Y-8006341D01*
X3135396Y-8006341D02*
X3202062Y-7863484D01*
X3202062Y-7863484D02*
X3202062Y-8063484D01*
X3383015Y-8063484D02*
X3383015Y-7958722D01*
X3383015Y-7958722D02*
X3373491Y-7939674D01*
X3373491Y-7939674D02*
X3354443Y-7930150D01*
X3354443Y-7930150D02*
X3316348Y-7930150D01*
X3316348Y-7930150D02*
X3297301Y-7939674D01*
X3383015Y-8053960D02*
X3363967Y-8063484D01*
X3363967Y-8063484D02*
X3316348Y-8063484D01*
X3316348Y-8063484D02*
X3297301Y-8053960D01*
X3297301Y-8053960D02*
X3287777Y-8034912D01*
X3287777Y-8034912D02*
X3287777Y-8015865D01*
X3287777Y-8015865D02*
X3297301Y-7996817D01*
X3297301Y-7996817D02*
X3316348Y-7987293D01*
X3316348Y-7987293D02*
X3363967Y-7987293D01*
X3363967Y-7987293D02*
X3383015Y-7977769D01*
X3478253Y-7930150D02*
X3478253Y-8130150D01*
X3478253Y-7939674D02*
X3497301Y-7930150D01*
X3497301Y-7930150D02*
X3535396Y-7930150D01*
X3535396Y-7930150D02*
X3554443Y-7939674D01*
X3554443Y-7939674D02*
X3563967Y-7949198D01*
X3563967Y-7949198D02*
X3573491Y-7968246D01*
X3573491Y-7968246D02*
X3573491Y-8025388D01*
X3573491Y-8025388D02*
X3563967Y-8044436D01*
X3563967Y-8044436D02*
X3554443Y-8053960D01*
X3554443Y-8053960D02*
X3535396Y-8063484D01*
X3535396Y-8063484D02*
X3497301Y-8063484D01*
X3497301Y-8063484D02*
X3478253Y-8053960D01*
X3659205Y-8044436D02*
X3668729Y-8053960D01*
X3668729Y-8053960D02*
X3659205Y-8063484D01*
X3659205Y-8063484D02*
X3649682Y-8053960D01*
X3649682Y-8053960D02*
X3659205Y-8044436D01*
X3659205Y-8044436D02*
X3659205Y-8063484D01*
X3659205Y-7939674D02*
X3668729Y-7949198D01*
X3668729Y-7949198D02*
X3659205Y-7958722D01*
X3659205Y-7958722D02*
X3649682Y-7949198D01*
X3649682Y-7949198D02*
X3659205Y-7939674D01*
X3659205Y-7939674D02*
X3659205Y-7958722D01*
M02*
