%TF.GenerationSoftware,KiCad,Pcbnew,7.0.10*%
%TF.CreationDate,2026-01-21T09:32:35+08:00*%
%TF.ProjectId,KiCad_Esp32_LotNoDisplay,4b694361-645f-4457-9370-33325f4c6f74,rev?*%
%TF.SameCoordinates,Original*%
%TF.FileFunction,Legend,Bot*%
%TF.FilePolarity,Positive*%
%FSLAX46Y46*%
G04 Gerber Fmt 4.6, Leading zero omitted, Abs format (unit mm)*
G04 Created by KiCad (PCBNEW 7.0.10) date 2026-01-21 09:32:35*
%MOMM*%
%LPD*%
G01*
G04 APERTURE LIST*
%ADD10C,0.150000*%
G04 APERTURE END LIST*
D10*
X28527951Y-76491180D02*
X28527951Y-75776895D01*
X28527951Y-75776895D02*
X28480332Y-75634038D01*
X28480332Y-75634038D02*
X28385094Y-75538800D01*
X28385094Y-75538800D02*
X28242237Y-75491180D01*
X28242237Y-75491180D02*
X28146999Y-75491180D01*
X29480332Y-75491180D02*
X29004142Y-75491180D01*
X29004142Y-75491180D02*
X29004142Y-76491180D01*
X30385094Y-75586419D02*
X30337475Y-75538800D01*
X30337475Y-75538800D02*
X30194618Y-75491180D01*
X30194618Y-75491180D02*
X30099380Y-75491180D01*
X30099380Y-75491180D02*
X29956523Y-75538800D01*
X29956523Y-75538800D02*
X29861285Y-75634038D01*
X29861285Y-75634038D02*
X29813666Y-75729276D01*
X29813666Y-75729276D02*
X29766047Y-75919752D01*
X29766047Y-75919752D02*
X29766047Y-76062609D01*
X29766047Y-76062609D02*
X29813666Y-76253085D01*
X29813666Y-76253085D02*
X29861285Y-76348323D01*
X29861285Y-76348323D02*
X29956523Y-76443561D01*
X29956523Y-76443561D02*
X30099380Y-76491180D01*
X30099380Y-76491180D02*
X30194618Y-76491180D01*
X30194618Y-76491180D02*
X30337475Y-76443561D01*
X30337475Y-76443561D02*
X30385094Y-76395942D01*
X31099380Y-76491180D02*
X31099380Y-75776895D01*
X31099380Y-75776895D02*
X31051761Y-75634038D01*
X31051761Y-75634038D02*
X30956523Y-75538800D01*
X30956523Y-75538800D02*
X30813666Y-75491180D01*
X30813666Y-75491180D02*
X30718428Y-75491180D01*
X32051761Y-75491180D02*
X31575571Y-75491180D01*
X31575571Y-75491180D02*
X31575571Y-76491180D01*
X32956523Y-75586419D02*
X32908904Y-75538800D01*
X32908904Y-75538800D02*
X32766047Y-75491180D01*
X32766047Y-75491180D02*
X32670809Y-75491180D01*
X32670809Y-75491180D02*
X32527952Y-75538800D01*
X32527952Y-75538800D02*
X32432714Y-75634038D01*
X32432714Y-75634038D02*
X32385095Y-75729276D01*
X32385095Y-75729276D02*
X32337476Y-75919752D01*
X32337476Y-75919752D02*
X32337476Y-76062609D01*
X32337476Y-76062609D02*
X32385095Y-76253085D01*
X32385095Y-76253085D02*
X32432714Y-76348323D01*
X32432714Y-76348323D02*
X32527952Y-76443561D01*
X32527952Y-76443561D02*
X32670809Y-76491180D01*
X32670809Y-76491180D02*
X32766047Y-76491180D01*
X32766047Y-76491180D02*
X32908904Y-76443561D01*
X32908904Y-76443561D02*
X32956523Y-76395942D01*
X33670809Y-76491180D02*
X33670809Y-75776895D01*
X33670809Y-75776895D02*
X33623190Y-75634038D01*
X33623190Y-75634038D02*
X33527952Y-75538800D01*
X33527952Y-75538800D02*
X33385095Y-75491180D01*
X33385095Y-75491180D02*
X33289857Y-75491180D01*
X34623190Y-75491180D02*
X34147000Y-75491180D01*
X34147000Y-75491180D02*
X34147000Y-76491180D01*
X35527952Y-75586419D02*
X35480333Y-75538800D01*
X35480333Y-75538800D02*
X35337476Y-75491180D01*
X35337476Y-75491180D02*
X35242238Y-75491180D01*
X35242238Y-75491180D02*
X35099381Y-75538800D01*
X35099381Y-75538800D02*
X35004143Y-75634038D01*
X35004143Y-75634038D02*
X34956524Y-75729276D01*
X34956524Y-75729276D02*
X34908905Y-75919752D01*
X34908905Y-75919752D02*
X34908905Y-76062609D01*
X34908905Y-76062609D02*
X34956524Y-76253085D01*
X34956524Y-76253085D02*
X35004143Y-76348323D01*
X35004143Y-76348323D02*
X35099381Y-76443561D01*
X35099381Y-76443561D02*
X35242238Y-76491180D01*
X35242238Y-76491180D02*
X35337476Y-76491180D01*
X35337476Y-76491180D02*
X35480333Y-76443561D01*
X35480333Y-76443561D02*
X35527952Y-76395942D01*
X36242238Y-76491180D02*
X36242238Y-75776895D01*
X36242238Y-75776895D02*
X36194619Y-75634038D01*
X36194619Y-75634038D02*
X36099381Y-75538800D01*
X36099381Y-75538800D02*
X35956524Y-75491180D01*
X35956524Y-75491180D02*
X35861286Y-75491180D01*
X37194619Y-75491180D02*
X36718429Y-75491180D01*
X36718429Y-75491180D02*
X36718429Y-76491180D01*
X38099381Y-75586419D02*
X38051762Y-75538800D01*
X38051762Y-75538800D02*
X37908905Y-75491180D01*
X37908905Y-75491180D02*
X37813667Y-75491180D01*
X37813667Y-75491180D02*
X37670810Y-75538800D01*
X37670810Y-75538800D02*
X37575572Y-75634038D01*
X37575572Y-75634038D02*
X37527953Y-75729276D01*
X37527953Y-75729276D02*
X37480334Y-75919752D01*
X37480334Y-75919752D02*
X37480334Y-76062609D01*
X37480334Y-76062609D02*
X37527953Y-76253085D01*
X37527953Y-76253085D02*
X37575572Y-76348323D01*
X37575572Y-76348323D02*
X37670810Y-76443561D01*
X37670810Y-76443561D02*
X37813667Y-76491180D01*
X37813667Y-76491180D02*
X37908905Y-76491180D01*
X37908905Y-76491180D02*
X38051762Y-76443561D01*
X38051762Y-76443561D02*
X38099381Y-76395942D01*
M02*
